{
.appVersion = "3100";
.formatVersion = 3;
axes = (
{
name = Weight;
tag = wght;
}
);
classes = (
{
automatic = 1;

glyphs = (
{
glyphname = "hamza-ar";
layers = (
{
anchors = (
{
name = bottom;
pos = (119,-189);
},
{
name = bottom.mark;
pos = (149,-189);
},
{
name = top;
pos = (272,584);
},
{
name = top.mark;
pos = (294,576);
}
);
layerId = "1467EB51-6BD4-4CFC-AEAA-3E4EB1A95CFA";
shapes = (
{
closed = 1;
nodes = (
(54,0,o),
(36,3,o),
(61,19,cs),
(105,47,o),
(185,75,o),
(233,99,cs),
(257,111,o),
(246,121,o),
(229,125,cs),
(194,133,o),
(167,152,o),
(156,171,cs),
(130,216,o),
(221,334,o),
(312,397,cs),
(327,408,o),
(362,428,o),
(376,428,cs),
(390,428,o),
(378,405,o),
(368,388,cs),
(358,371,o),
(333,341,o),
(325,326,c),
(287,316,o),
(264,308,o),
(236,284,c),
(262,238,o),
(334,254,o),
(339,203,cs),
(341,184,o),
(315,152,o),
(287,113,cs),
(257,72,o),
(228,34,o),
(194,18,cs),
(169,6,o),
(123,0,o),
(84,0,cs)
);
}
);
width = 431;
},
{
anchors = (
{
name = bottom;
pos = (119,-189);
},
{
name = bottom.mark;
pos = (149,-189);
},
{
name = top;
pos = (272,584);
},
{
name = top.mark;
pos = (294,576);
}
);
layerId = "EF321139-F770-433D-B2B6-C3EFA1B16465";
shapes = (
{
closed = 1;
nodes = (
(65,0,o),
(39,-2,o),
(39,18,cs),
(39,27,o),
(51,35,o),
(58,40,cs),
(96,65,o),
(144,84,o),
(188,103,c),
(225,118,l),
(228,119,l),
(204,125,o),
(181,133,o),
(166,148,c),
(166,147,l),
(148,163,o),
(138,181,o),
(138,198,cs),
(138,202,o),
(139,206,o),
(140,210,cs),
(151,253,o),
(177,288,o),
(203,319,cs),
(217,336,o),
(233,353,o),
(251,369,cs),
(288,402,o),
(322,424,o),
(353,434,cs),
(358,436,o),
(363,437,o),
(367,437,cs),
(379,437,o),
(385,431,o),
(385,420,cs),
(385,407,o),
(377,396,o),
(369,381,cs),
(362,368,o),
(353,355,o),
(344,343,cs),
(337,333,o),
(333,328,o),
(328,320,c),
(321,315,l),
(291,307,o),
(270,301,o),
(248,284,c),
(260,271,o),
(278,267,o),
(295,260,cs),
(315,251,o),
(343,239,o),
(343,211,cs),
(343,209,o),
(343,209,o),
(343,208,cs),
(343,201,o),
(340,192,o),
(335,181,cs),
(330,170,o),
(322,159,o),
(312,145,cs),
(263,77,ls),
(245,53,o),
(223,34,o),
(197,19,cs),
(173,6,o),
(126,0,o),
(85,0,cs)
);
}
);
width = 431;
},
{
associatedMasterId = "1467EB51-6BD4-4CFC-AEAA-3E4EB1A95CFA";
layerId = "8FA8D4BE-FDF6-4067-903C-E6AA9B20CFF0";
name = Back;
shapes = (
{
closed = 1;
nodes = (
(299.805,318.848,o),
(279.053,311.035,o),
(258.301,303.223,o),
(236.328,284.18,q),
(249.023,262.695,o),
(273.926,254.395,o),
(298.828,246.094,o),
(317.139,236.084,o),
(335.449,226.074,o),
(338.379,207.031,qs),
(338.867,205.078,o),
(338.867,203.125,qs),
(338.867,183.594,o),
(310.059,144.531,qs),
(284.18,109.375,o),
(258.545,74.219,o),
(232.91,39.062,o),
(194.336,18.066,qs),
(170.898,4.883,o),
(126.953,1.953,qs),
(103.027,0.488,o),
(84.473,0.488,qs),
(69.336,0.488,o),
(57.617,1.465,qs),
(48.828,2.441,o),
(48.828,5.859,qs),
(48.828,10.254,o),
(62.012,18.555,qs),
(85.938,33.691,o),
(123.291,51.025,o),
(160.645,68.359,o),
(195.801,83.008,o),
(230.957,97.656,o),
(233.398,98.633,qs),
(245.605,104.004,o),
(247.07,108.887,q),
(247.07,110.84,ls),
(247.07,120.117,o),
(228.516,124.512,qs),
(194.824,132.324,o),
(175.781,149.902,q),
(151.367,170.898,o),
(151.367,192.383,qs),
(151.367,197.266,o),
(152.832,202.637,qs),
(159.668,229.004,o),
(177.246,257.324,qs),
(209.961,310.059,o),
(264.893,359.863,o),
(319.824,409.668,o),
(365.234,425.293,qs),
(372.07,427.734,o),
(375.977,427.734,qs),
(382.324,427.734,o),
(382.324,422.363,qs),
(382.324,420.898,o),
(381.836,419.922,qs),
(379.395,407.227,o),
(368.164,388.184,o),
(356.934,369.141,o),
(342.773,350.342,o),
(328.613,331.543,o),
(325.195,325.684,q)
);
}
);
width = 431;
},
{
associatedMasterId = "EF321139-F770-433D-B2B6-C3EFA1B16465";
layerId = "E538A617-D84A-48C8-90DD-64171AE925D7";
name = Back;
shapes = (
{
closed = 1;
nodes = (
(300.293,309.082,o),
(282.715,302.979,o),
(265.137,296.875,o),
(248.047,284.18,q),
(252.93,278.809,o),
(258.789,275.146,o),
(264.648,271.484,o),
(271.973,269.043,qs),
(283.691,265.137,o),
(294.922,260.254,o),
(306.152,255.371,o),
(315.43,250,qs),
(326.66,244.141,o),
(333.496,235.352,o),
(340.332,226.562,o),
(342.285,214.844,qs),
(342.773,213.379,o),
(342.773,211.426,o),
(342.773,209.473,o),
(342.773,208.008,qs),
(342.773,196.777,o),
(334.961,180.908,o),
(327.148,165.039,o),
(312.5,144.531,qs),
(262.695,76.66,l),
(235.84,41.016,o),
(197.266,19.043,qs),
(171.875,4.883,o),
(127.441,1.953,qs),
(104.004,0.488,o),
(85.449,0.488,qs),
(77.637,0.488,o),
(70.801,0.732,o),
(63.965,0.977,o),
(58.594,1.465,qs),
(48.828,2.441,o),
(43.945,5.859,o),
(39.062,9.277,o),
(39.062,17.578,qs),
(39.062,22.461,o),
(44.189,28.32,o),
(49.316,34.18,o),
(57.617,39.551,qs),
(69.824,47.363,o),
(84.961,55.42,o),
(100.098,63.477,o),
(117.676,71.777,q),
(117.188,71.777,l),
(135.742,80.078,o),
(153.32,87.891,o),
(170.898,95.703,o),
(187.988,103.027,qs),
(225.098,118.164,l),
(224.609,118.164,l),
(227.539,119.141,l),
(221.68,120.605,ls),
(204.59,125,o),
(190.186,131.592,o),
(175.781,138.184,o),
(165.527,147.949,q),
(165.527,147.461,l),
(138.184,171.875,o),
(138.184,197.754,qs),
(138.184,204.59,o),
(140.137,210.938,q),
(140.137,210.449,l),
(143.555,224.121,o),
(149.902,237.793,o),
(156.25,251.465,o),
(165.039,266.602,qs),
(181.641,293.457,o),
(202.881,318.848,o),
(224.121,344.238,o),
(251.465,368.652,qs),
(306.641,418.457,o),
(352.539,434.082,qs),
(360.352,437.012,o),
(366.699,437.012,qs),
(384.766,437.012,o),
(384.766,419.922,qs),
(384.766,416.016,o),
(383.789,413.574,qs),
(380.371,400.391,o),
(369.385,381.104,o),
(358.398,361.816,o),
(344.238,343.262,q),
(337.402,333.496,o),
(333.252,328.125,o),
(329.102,322.754,o),
(327.637,320.312,q),
(321.289,314.941,l)
);
}
);
width = 431;
}
);
unicode = 1569;
},
{
glyphname = "alef-ar";
layers = (
{
anchors = (
{
name = bottom;
pos = (128,-22);
},
{
name = bottom.mark;
pos = (145,-31);
},
{
name = top;
pos = (121,791);
},
{
name = top.mark;
pos = (129,835);
}
);
layerId = "1467EB51-6BD4-4CFC-AEAA-3E4EB1A95CFA";
shapes = (
{
closed = 1;
nodes = (
(147,687,l),
(175,262,l),
(101,144,l),
(73,569,l)
);
}
);
width = 248;
},
{
anchors = (
{
name = bottom;
pos = (132,-22);
},
{
name = bottom.mark;
pos = (148,-31);
},
{
name = top;
pos = (124,791);
},
{
name = top.mark;
pos = (133,835);
}
);
layerId = "EF321139-F770-433D-B2B6-C3EFA1B16465";
shapes = (
{
closed = 1;
nodes = (
(136,681,ls),
(142,690,o),
(157,688,o),
(158,676,c),
(186,261,l),
(112,145,ls),
(106,135,o),
(92,138,o),
(91,150,c),
(63,564,l)
);
}
);
width = 248;
},
{
associatedMasterId = "1467EB51-6BD4-4CFC-AEAA-3E4EB1A95CFA";
layerId = "3D32B070-5D36-4270-A7EC-98825BE27953";
name = Back;
shapes = (
{
closed = 1;
nodes = (
(146.973,686.035,l),
(175.293,261.23,l),
(101.562,144.043,l),
(73.242,568.848,l)
);
}
);
width = 248;
},
{
associatedMasterId = "EF321139-F770-433D-B2B6-C3EFA1B16465";
layerId = "247D950D-9B35-45BC-8294-2945A488A4C2";
name = Back;
shapes = (
{
closed = 1;
nodes = (
(136.23,680.664,ls),
(138.672,684.57,o),
(142.334,685.791,o),
(145.996,687.012,o),
(149.414,686.279,o),
(152.832,685.547,o),
(155.273,682.861,o),
(157.715,680.176,o),
(158.203,675.781,qs),
(186.035,261.23,l),
(112.305,145.02,ls),
(107.422,137.207,o),
(99.609,139.16,o),
(91.797,141.113,o),
(90.82,149.902,qs),
(62.988,564.453,l)
);
}
);
width = 248;
}
);
unicode = 1575;
},
{
glyphname = "alef-ar.fina";
layers = (
{
anchors = (
{
name = bottom;
pos = (125,-185);
},
{
name = bottom.mark;
pos = (208,-189);
},
{
name = entry;
pos = (112,0);
},
{
name = top;
pos = (112,800);
},
{
name = top.mark;
pos = (116,791);
}
);
layerId = "1467EB51-6BD4-4CFC-AEAA-3E4EB1A95CFA";
shapes = (
{
closed = 1;
nodes = (
(136,687,l),
(174,118,l),
(112,0,l),
(73,570,l)
);
}
);
width = 112;
},
{
anchors = (
{
name = bottom;
pos = (125,-185);
},
{
name = bottom.mark;
pos = (208,-189);
},
{
name = entry;
pos = (107,0);
},
{
name = top;
pos = (112,800);
},
{
name = top.mark;
pos = (116,791);
}
);
layerId = "EF321139-F770-433D-B2B6-C3EFA1B16465";
shapes = (
{
closed = 1;
nodes = (
(123,681,ls),
(128,691,o),
(144,688,o),
(145,677,cs),
(182,124,l),
(121,6,ls),
(116,-3,o),
(99,-2,o),
(99,11,c),
(60,565,l)
);
}
);
width = 112;
},
{
associatedMasterId = "1467EB51-6BD4-4CFC-AEAA-3E4EB1A95CFA";
layerId = "058EC9B2-D9CC-4F5D-A55F-E95EDBB6120D";
name = Back;
shapes = (
{
closed = 1;
nodes = (
(136.23,687.012,l),
(174.316,118.164,l),
(112.305,0,l),
(73.242,569.824,l)
);
}
);
width = 112;
},
{
associatedMasterId = "EF321139-F770-433D-B2B6-C3EFA1B16465";
layerId = "A8317FD2-624E-46DC-97CD-9C14FB7AF965";
name = Back;
shapes = (
{
closed = 1;
nodes = (
(123.047,681.152,ls),
(125,685.059,o),
(128.662,686.523,o),
(132.324,687.988,o),
(135.742,687.256,o),
(139.16,686.523,o),
(141.846,683.838,o),
(144.531,681.152,o),
(145.02,676.758,qs),
(182.129,123.535,l),
(120.605,6.348,ls),
(118.164,1.953,o),
(114.746,0.488,o),
(111.328,-0.977,o),
(107.666,-0.244,o),
(104.004,0.488,o),
(101.318,3.418,o),
(98.633,6.348,o),
(98.633,10.742,qs),
(60.059,564.941,l)
);
}
);
width = 112;
}
);
},
{
glyphname = "alef-ar.fina.lam";
layers = (
{
anchors = (
{
name = bottom;
pos = (317,-204);
},
{
name = bottom.mark;
pos = (317,-113);
},
{
name = entry;
pos = (-27,0);
},
{
name = top;
pos = (285,714);
},
{
name = top.mark;
pos = (290,671);
}
);
layerId = "1467EB51-6BD4-4CFC-AEAA-3E4EB1A95CFA";
shapes = (
{
closed = 1;
nodes = (
(366,460,o),
(382,365,o),
(390,257,c),
(323,145,l),
(289,444,l),
(354,564,l)
);
}
);
width = 394;
},
{
anchors = (
{
name = bottom;
pos = (317,-204);
},
{
name = bottom.mark;
pos = (317,-113);
},
{
name = entry;
pos = (-27,0);
},
{
name = top;
pos = (285,714);
},
{
name = top.mark;
pos = (290,671);
}
);
layerId = "EF321139-F770-433D-B2B6-C3EFA1B16465";
shapes = (
{
closed = 1;
nodes = (
(323,142,o),
(307,143,o),
(306,155,cs),
(272,448,l),
(337,568,ls),
(342,578,o),
(358,574,o),
(359,563,cs),
(364,527,o),
(368,493,o),
(373,457,c),
(382,397,o),
(390,327,o),
(395,263,c),
(329,151,ls)
);
}
);
width = 394;
},
{
associatedMasterId = "1467EB51-6BD4-4CFC-AEAA-3E4EB1A95CFA";
layerId = "A06EA403-22CD-4D22-B302-C0F5A6600EAF";
name = Back;
shapes = (
{
closed = 1;
nodes = (
(288.574,444.336,l),
(353.516,564.453,l),
(362.305,486.816,o),
(373.047,411.865,o),
(383.789,336.914,o),
(389.648,256.836,q),
(323.242,145.02,l)
);
}
);
width = 394;
},
{
associatedMasterId = "EF321139-F770-433D-B2B6-C3EFA1B16465";
layerId = "CE400564-3237-4D19-BDCD-6926D2C4CB36";
name = Back;
shapes = (
{
closed = 1;
nodes = (
(326.172,146.973,o),
(322.51,145.508,o),
(318.848,144.043,o),
(315.43,144.775,o),
(312.012,145.508,o),
(309.326,148.193,o),
(306.641,150.879,o),
(306.152,155.273,qs),
(272.461,448.242,l),
(336.914,567.871,ls),
(338.867,571.777,o),
(342.529,573.242,o),
(346.191,574.707,o),
(349.609,573.975,o),
(353.027,573.242,o),
(355.713,570.557,o),
(358.398,567.871,o),
(358.887,563.477,qs),
(362.305,536.133,o),
(365.723,509.521,o),
(369.141,482.91,o),
(372.559,456.543,q),
(379.395,410.645,o),
(385.01,360.84,o),
(390.625,311.035,o),
(394.531,262.695,q),
(328.613,150.879,ls)
);
}
);
width = 394;
}
);
},
{
glyphname = "behDotless-ar";
layers = (
{
anchors = (
{
name = bottom;
pos = (308,-136);
},
{
name = bottom.mark;
pos = (330,-185);
},
{
name = top;
pos = (397,505);
},
{
name = top.mark;
pos = (347,532);
}
);
layerId = "1467EB51-6BD4-4CFC-AEAA-3E4EB1A95CFA";
shapes = (
{
closed = 1;
nodes = (
(696,456,l),
(696,456,o),
(759,335,o),
(699,215,cs),
(646,107,o),
(441,1,o),
(275,1,cs),
(264,1,o),
(86,-13,o),
(86,152,cs),
(86,207,o),
(123,288,o),
(177,369,cs),
(188,385,o),
(196,380,o),
(192,372,cs),
(184,357,o),
(147,300,o),
(144,240,cs),
(140,155,o),
(219,124,o),
(306,124,cs),
(456,124,o),
(650,221,o),
(650,221,c),
(651,244,o),
(632,308,o),
(619,342,c)
);
}
);
width = 801;
},
{
anchors = (
{
name = bottom;
pos = (308,-136);
},
{
name = bottom.mark;
pos = (330,-185);
},
{
name = top;
pos = (397,505);
},
{
name = top.mark;
pos = (347,532);
}
);
layerId = "EF321139-F770-433D-B2B6-C3EFA1B16465";
shapes = (
{
closed = 1;
nodes = (
(192,397,o),
(200,387,o),
(200,376,cs),
(200,372,o),
(198,367,o),
(195,360,c),
(170,312,o),
(157,274,o),
(157,244,cs),
(157,169,o),
(225,143,o),
(302,143,cs),
(401,143,o),
(499,172,o),
(569,206,cs),
(623,232,l),
(621,259,o),
(611,286,o),
(604,309,cs),
(601,320,o),
(597,330,o),
(594,339,cs),
(593,342,o),
(594,347,o),
(595,349,cs),
(669,458,ls),
(675,467,o),
(687,466,o),
(690,456,cs),
(713,385,ls),
(719,367,o),
(722,349,o),
(722,329,cs),
(722,284,o),
(709,249,o),
(693,214,c),
(672,169,o),
(631,129,o),
(571,92,c),
(502,50,o),
(422,17,o),
(327,5,cs),
(308,3,o),
(289,1,o),
(272,1,cs),
(171,1,o),
(103,32,o),
(76,107,cs),
(69,124,o),
(66,143,o),
(66,165,cs),
(66,192,o),
(73,221,o),
(86,252,c),
(108,300,o),
(129,343,o),
(155,384,c),
(162,393,o),
(170,397,o),
(178,397,cs)
);
}
);
width = 801;
},
{
associatedMasterId = "1467EB51-6BD4-4CFC-AEAA-3E4EB1A95CFA";
layerId = "3AF9BACF-8D7F-4F42-A9B2-539802AA4FAD";
name = Back;
shapes = (
{
closed = 1;
nodes = (
(666.992,148.438,o),
(577.637,93.506,o),
(488.281,38.574,o),
(388.184,15.137,qs),
(329.102,0.977,o),
(274.902,0.977,qs),
(236.328,0.977,o),
(199.707,8.301,qs),
(111.816,24.902,o),
(83.008,103.027,qs),
(73.242,129.395,o),
(73.242,158.203,qs),
(73.242,198.73,o),
(93.262,244.141,qs),
(127.441,320.312,o),
(164.062,377.93,q),
(170.41,386.719,o),
(177.246,386.719,qs),
(179.688,386.719,o),
(182.129,385.742,qs),
(187.5,383.301,o),
(187.5,376.953,qs),
(187.5,372.559,o),
(184.57,365.723,q),
(143.555,289.062,o),
(143.555,239.746,qs),
(143.555,230.469,o),
(145.02,222.656,qs),
(153.809,169.922,o),
(198.73,146.484,q),
(241.211,123.535,o),
(305.664,123.535,qs),
(309.082,123.535,o),
(312.5,124.023,qs),
(381.348,125,o),
(453.125,142.578,qs),
(524.414,159.668,o),
(587.402,190.43,qs),
(649.902,221.191,l),
(649.902,223.145,ls),
(649.902,241.699,o),
(640.137,276.367,q),
(629.395,312.012,o),
(619.141,342.285,q),
(695.801,455.566,l),
(719.727,382.324,ls),
(728.027,356.445,o),
(728.027,328.613,qs),
(728.027,275.879,o),
(698.73,214.844,qs)
);
}
);
width = 801;
},
{
associatedMasterId = "EF321139-F770-433D-B2B6-C3EFA1B16465";
layerId = "2E5647EB-20F9-4CBA-BBD9-E5AF0462A5A6";
name = Back;
shapes = (
{
closed = 1;
nodes = (
(660.645,147.461,o),
(571.289,91.797,q),
(527.832,65.43,o),
(480.225,46.143,o),
(432.617,26.855,o),
(384.766,15.137,qs),
(355.469,8.301,o),
(326.904,4.639,o),
(298.34,0.977,o),
(272.461,0.977,qs),
(252.93,0.977,o),
(233.887,2.686,o),
(214.844,4.395,o),
(197.266,7.812,qs),
(152.344,17.578,o),
(121.338,41.748,o),
(90.332,65.918,o),
(75.684,106.934,qs),
(70.312,120.605,o),
(68.115,135.01,o),
(65.918,149.414,o),
(65.918,164.551,qs),
(65.918,205.566,o),
(85.938,252.441,q),
(103.027,290.039,o),
(120.117,322.51,o),
(137.207,354.98,o),
(155.273,383.789,q),
(166.016,397.461,o),
(178.223,397.461,qs),
(182.617,397.461,o),
(185.547,396.484,qs),
(199.707,390.137,o),
(199.707,375.977,qs),
(199.707,370.117,o),
(195.312,359.863,q),
(157.227,288.574,o),
(157.227,243.652,qs),
(157.227,236.328,o),
(158.691,229.004,qs),
(166.992,184.082,o),
(204.59,163.574,qs),
(242.676,143.066,o),
(302.246,143.066,qs),
(304.199,143.066,o),
(306.152,143.555,qs),
(374.512,144.531,o),
(441.895,161.133,qs),
(475.586,169.434,o),
(507.812,180.664,o),
(540.039,191.895,o),
(569.336,206.055,qs),
(622.559,231.934,l),
(622.07,240.234,o),
(619.873,251.221,o),
(617.676,262.207,o),
(613.77,275.391,qs),
(608.398,292.48,o),
(603.516,308.594,o),
(598.633,324.707,o),
(593.75,338.867,qs),
(592.773,340.82,o),
(593.506,343.994,o),
(594.238,347.168,o),
(595.215,349.121,qs),
(669.434,458.496,ls),
(673.828,465.332,o),
(680.908,464.355,o),
(687.988,463.379,o),
(690.43,455.566,qs),
(713.379,384.766,ls),
(722.168,358.398,o),
(722.168,329.102,qs),
(722.168,301.758,o),
(714.6,273.438,o),
(707.031,245.117,o),
(692.871,214.355,q)
);
}
);
width = 801;
}
);
unicode = 1646;
},
{
glyphname = "behDotless-ar.jalt";
layers = (
{
anchors = (
{
name = bottom;
pos = (488,-163);
},
{
name = bottom.mark;
pos = (479,-158);
},
{
name = top;
pos = (523,338);
},
{
name = top.mark;
pos = (505,795);
}
);
layerId = "1467EB51-6BD4-4CFC-AEAA-3E4EB1A95CFA";
shapes = (
{
closed = 1;
nodes = (
(178,21,o),
(102,51,o),
(59,98,cs),
(-33,198,o),
(-7,321,o),
(72,422,cs),
(152,524,o),
(266,581,o),
(409,618,cs),
(473,635,o),
(545,645,o),
(624,648,c),
(571,535,l),
(489,532,o),
(403,518,o),
(313,490,cs),
(223,462,o),
(148,420,o),
(87,362,cs),
(69,344,o),
(58,326,o),
(56,306,cs),
(54,286,o),
(69,262,o),
(101,235,cs),
(186,162,o),
(306,126,o),
(463,128,c),
(543,134,o),
(623,142,o),
(695,158,cs),
(731,165,o),
(773,180,o),
(822,201,cs),
(895,233,o),
(896,233,o),
(896,233,c),
(898,266,o),
(875,326,o),
(865,354,c),
(942,468,l),
(942,468,o),
(942,468,o),
(966,394,cs),
(982,345,o),
(975,289,o),
(945,227,cs),
(920,176,o),
(881,134,o),
(828,102,cs),
(731,44,o),
(601,8,o),
(458,2,cs),
(393,-1,o),
(336,1,o),
(287,7,cs)
);
}
);
width = 1038;
},
{
anchors = (
{
name = bottom;
pos = (488,-163);
},
{
name = bottom.mark;
pos = (479,-158);
},
{
name = top;
pos = (523,338);
},
{
name = top.mark;
pos = (505,795);
}
);
layerId = "EF321139-F770-433D-B2B6-C3EFA1B16465";
shapes = (
{
closed = 1;
nodes = (
(301,0,o),
(210,15,o),
(146,40,cs),
(108,55,o),
(78,74,o),
(56,98,cs),
(16,141,o),
(-3,189,o),
(-3,241,cs),
(-3,244,o),
(-3,245,o),
(-3,249,cs),
(-3,281,o),
(7,312,o),
(20,343,cs),
(83,497,o),
(230,576,o),
(401,621,cs),
(464,637,o),
(534,647,o),
(611,650,cs),
(619,651,o),
(627,642,o),
(622,633,c),
(571,524,ls),
(570,521,o),
(565,517,o),
(561,517,cs),
(470,514,o),
(392,498,o),
(314,474,c),
(228,448,o),
(157,407,o),
(100,353,cs),
(85,339,o),
(76,323,o),
(74,306,cs),
(73,291,o),
(86,272,o),
(113,248,cs),
(190,181,o),
(299,147,o),
(441,147,cs),
(455,147,l),
(552,155,o),
(654,164,o),
(733,191,cs),
(773,205,o),
(824,228,o),
(862,245,c),
(860,270,o),
(850,298,o),
(843,320,cs),
(840,331,o),
(836,341,o),
(833,351,cs),
(832,354,o),
(833,359,o),
(834,361,cs),
(919,469,l),
(933,449,o),
(943,423,o),
(952,396,cs),
(957,380,o),
(961,360,o),
(961,340,cs),
(961,305,o),
(952,267,o),
(932,226,cs),
(907,175,o),
(868,133,o),
(814,100,cs),
(718,43,o),
(596,9,o),
(452,1,cs),
(443,0,o),
(434,0,o),
(424,0,cs),
(410,0,o),
(409,0,o),
(396,0,cs)
);
}
);
width = 1038;
},
{
associatedMasterId = "1467EB51-6BD4-4CFC-AEAA-3E4EB1A95CFA";
layerId = "F862CB5E-F740-4EBD-8244-16EDB3150491";
name = Back;
shapes = (
{
closed = 1;
nodes = (
(123.047,27.832,o),
(58.594,97.9,o),
(-5.859,167.969,o),
(0.732,253.174,o),
(7.324,338.379,o),
(72.021,421.631,o),
(136.719,504.883,o),
(231.445,552.734,qs),
(312.5,593.262,o),
(409.18,618.408,o),
(505.859,643.555,o),
(624.023,647.949,q),
(571.289,535.156,l),
(448.242,531.25,o),
(312.988,489.99,o),
(177.734,448.73,o),
(86.914,361.816,qs),
(59.57,335.449,o),
(56.396,305.664,o),
(53.223,275.879,o),
(101.074,234.863,qs),
(228.027,125,o),
(463.379,128.418,q),
(520.508,132.812,o),
(579.346,139.16,o),
(638.184,145.508,o),
(695.312,158.203,q),
(749.023,169.434,o),
(822.266,201.416,o),
(895.508,233.398,o),
(895.508,233.398,q),
(896.484,252.441,o),
(885.986,288.33,o),
(875.488,324.219,o),
(865.234,354.492,q),
(941.895,467.773,l),
(941.895,467.773,o),
(965.576,394.043,o),
(989.258,320.312,o),
(944.824,226.562,q),
(907.715,149.414,o),
(827.881,101.807,o),
(748.047,54.199,o),
(652.344,30.029,o),
(556.641,5.859,o),
(458.496,1.709,o),
(360.352,-2.441,o),
(287.109,6.836,qs)
);
}
);
width = 1038;
},
{
associatedMasterId = "EF321139-F770-433D-B2B6-C3EFA1B16465";
layerId = "8932F04D-F5B6-46AC-B5B4-4F4253C12936";
name = Back;
shapes = (
{
closed = 1;
nodes = (
(202.148,17.578,o),
(145.508,40.039,o),
(88.867,62.5,o),
(56.152,98.145,qs),
(-3.418,162.598,o),
(-3.418,241.211,qs),
(-3.418,244.629,o),
(-3.418,249.023,o),
(-3.418,253.418,o),
(-2.93,257.324,qs),
(1.465,298.828,o),
(19.531,342.773,o),
(37.598,386.719,o),
(68.359,426.27,qs),
(131.836,508.789,o),
(226.562,556.152,qs),
(306.152,596.191,o),
(400.879,620.85,o),
(495.605,645.508,o),
(610.84,649.902,qs),
(617.676,650.391,o),
(621.582,644.775,o),
(625.488,639.16,o),
(622.07,632.812,qs),
(571.289,523.926,ls),
(570.312,521.484,o),
(566.895,519.287,o),
(563.477,517.09,o),
(560.547,517.09,qs),
(501.465,515.137,o),
(440.43,504.639,o),
(379.395,494.141,o),
(313.965,473.633,q),
(185.547,434.57,o),
(100.098,353.027,qs),
(77.148,331.543,o),
(74.219,305.664,q),
(72.266,283.691,o),
(113.281,247.559,q),
(229.004,147.461,o),
(441.406,147.461,qs),
(455.078,147.461,l),
(509.766,151.855,o),
(567.627,158.203,o),
(625.488,164.551,o),
(677.734,175.781,qs),
(702.637,181.152,o),
(732.666,191.406,o),
(762.695,201.66,o),
(797.852,217.285,qs),
(815.43,225.098,o),
(827.637,230.225,o),
(839.844,235.352,o),
(847.656,238.77,qs),
(856.445,242.676,o),
(861.816,245.117,q),
(861.328,252.93,o),
(858.887,263.184,o),
(856.445,273.438,o),
(852.539,287.109,qs),
(847.656,304.199,o),
(842.773,320.068,o),
(837.891,335.938,o),
(833.008,350.586,qs),
(832.031,352.539,o),
(832.764,355.713,o),
(833.496,358.887,o),
(834.473,360.84,qs),
(918.945,469.238,l),
(924.316,461.426,o),
(929.688,450.684,qs),
(934.57,441.406,o),
(940.43,427.734,o),
(946.289,414.062,o),
(952.148,396.484,qs),
(956.543,383.789,o),
(958.74,369.141,o),
(960.938,354.492,o),
(960.938,340.332,qs),
(960.938,287.598,o),
(931.641,225.586,q),
(894.531,148.926,o),
(813.965,100.098,qs),
(775.391,77.148,o),
(731.445,59.326,o),
(687.5,41.504,o),
(641.602,29.297,q),
(595.215,17.578,o),
(546.875,10.742,o),
(498.535,3.906,o),
(451.66,1.465,qs),
(437.988,0.488,o),
(423.584,0.488,o),
(409.18,0.488,o),
(396.484,0.488,qs),
(365.234,0.488,o),
(337.158,1.953,o),
(309.082,3.418,o),
(284.18,6.836,qs)
);
}
);
width = 1038;
}
);
},
{
glyphname = "behDotless-ar.fina";
layers = (
{
anchors = (
{
name = bottom;
pos = (242,-193);
},
{
name = bottom.mark;
pos = (255,-185);
},
{
name = entry;
pos = (492,26);
},
{
name = top;
pos = (352,413);
},
{
name = top.mark;
pos = (365,453);
}
);
layerId = "1467EB51-6BD4-4CFC-AEAA-3E4EB1A95CFA";
shapes = (
{
closed = 1;
nodes = (
(432,20,o),
(329,0,o),
(245,0,cs),
(204,0,o),
(0,-2,o),
(0,159,cs),
(0,186,o),
(6,215,o),
(19,245,cs),
(42,296,o),
(66,340,o),
(90,379,cs),
(101,396,o),
(119,389,o),
(110,367,cs),
(86,322,o),
(73,284,o),
(71,243,cs),
(68,172,o),
(114,127,o),
(288,127,cs),
(324,127,o),
(468,134,o),
(537,170,cs),
(556,180,o),
(572,200,o),
(581,220,cs),
(587,234,o),
(585,207,o),
(585,206,cs),
(579,184,o),
(566,153,o),
(551,118,cs),
(536,83,o),
(516,52,o),
(491,26,c),
(490,26,ls),
(488,26,o),
(487,27,o),
(487,31,cs),
(487,34,o),
(488,38,o),
(489,43,c)
);
}
);
width = 490;
},
{
anchors = (
{
name = bottom;
pos = (242,-193);
},
{
name = bottom.mark;
pos = (255,-185);
},
{
name = entry;
pos = (492,26);
},
{
name = top;
pos = (352,413);
},
{
name = top.mark;
pos = (365,453);
}
);
layerId = "EF321139-F770-433D-B2B6-C3EFA1B16465";
shapes = (
{
closed = 1;
nodes = (
(402,14,o),
(325,0,o),
(242,0,cs),
(237,0,o),
(236,0,o),
(231,0,cs),
(177,0,o),
(128,11,o),
(87,26,c),
(29,49,o),
(-8,92,o),
(-8,166,cs),
(-8,222,o),
(26,282,o),
(47,323,cs),
(58,345,o),
(70,366,o),
(82,385,c),
(89,394,o),
(96,398,o),
(104,398,cs),
(118,398,o),
(126,388,o),
(126,377,cs),
(126,372,o),
(125,367,o),
(122,361,c),
(99,318,o),
(87,282,o),
(85,253,c),
(85,247,ls),
(85,223,o),
(92,203,o),
(103,189,c),
(135,153,o),
(210,147,o),
(278,147,cs),
(307,147,l),
(350,149,o),
(393,154,o),
(435,162,c),
(476,170,o),
(503,179,o),
(518,187,c),
(534,195,o),
(546,209,o),
(554,228,c),
(559,235,o),
(564,239,o),
(569,239,cs),
(578,239,o),
(582,233,o),
(582,222,cs),
(582,200,o),
(574,187,o),
(567,168,cs),
(555,136,o),
(540,99,o),
(522,71,cs),
(512,56,o),
(500,41,o),
(487,28,cs),
(486,27,o),
(481,25,o),
(479,25,cs),
(471,25,o),
(466,29,o),
(464,36,c)
);
}
);
width = 490;
},
{
associatedMasterId = "1467EB51-6BD4-4CFC-AEAA-3E4EB1A95CFA";
layerId = "29856C48-3ECF-4B98-BE76-EA647630D0C3";
name = Back;
shapes = (
{
closed = 1;
nodes = (
(-0.977,130.371,o),
(-0.977,159.18,qs),
(-0.977,199.707,o),
(19.043,244.629,qs),
(53.223,320.801,o),
(89.844,378.906,q),
(96.191,387.695,o),
(103.027,387.695,qs),
(105.469,387.695,o),
(107.91,386.719,qs),
(113.281,384.277,o),
(113.281,377.93,qs),
(113.281,373.535,o),
(110.352,366.699,q),
(72.754,297.363,o),
(70.801,250.488,q),
(70.801,243.164,ls),
(70.801,201.66,o),
(92.285,175.781,qs),
(117.676,145.02,o),
(180.664,135.254,qs),
(229.004,127.441,o),
(282.227,127.441,qs),
(297.363,127.441,o),
(313.477,127.93,qs),
(383.789,130.859,o),
(447.266,143.311,o),
(510.742,155.762,o),
(537.109,170.41,qs),
(565.918,186.035,o),
(579.59,219.238,q),
(582.031,222.656,o),
(583.496,222.656,qs),
(584.961,222.656,o),
(584.961,217.285,qs),
(584.961,208.008,o),
(583.984,205.566,qs),
(572.754,170.41,o),
(550.781,117.92,o),
(528.809,65.43,o),
(491.211,25.879,q),
(490.234,25.879,ls),
(486.816,25.879,o),
(486.816,31.25,qs),
(486.816,35.645,o),
(488.77,42.969,q),
(443.359,24.414,o),
(370.605,11.719,qs),
(308.105,0.488,o),
(245.117,0.488,qs),
(234.375,0.488,o),
(224.121,0.977,qs),
(150.391,2.93,o),
(89.6,26.123,o),
(28.809,49.316,o),
(8.789,104.004,qs)
);
}
);
width = 490;
},
{
associatedMasterId = "EF321139-F770-433D-B2B6-C3EFA1B16465";
layerId = "5DE03156-34DD-45F7-A9A6-A9828B6B044D";
name = Back;
shapes = (
{
closed = 1;
nodes = (
(-7.812,136.23,o),
(-7.812,165.527,qs),
(-7.812,207.52,o),
(12.695,252.93,qs),
(29.785,290.039,o),
(46.631,322.998,o),
(63.477,355.957,o),
(82.031,384.766,q),
(92.285,398.438,o),
(104.492,398.438,qs),
(109.863,398.438,o),
(111.816,397.461,qs),
(125.977,391.602,o),
(125.977,376.953,qs),
(125.977,370.117,o),
(122.07,360.84,q),
(87.402,296.875,o),
(84.961,253.418,q),
(84.961,246.582,ls),
(84.961,229.004,o),
(89.844,214.355,o),
(94.727,199.707,o),
(103.027,188.965,q),
(114.258,176.27,o),
(133.789,167.48,o),
(153.32,158.691,o),
(181.152,154.297,qs),
(204.59,150.391,o),
(228.76,148.682,o),
(252.93,146.973,o),
(277.832,146.973,qs),
(307.129,146.973,l),
(372.07,149.902,o),
(434.57,161.621,q),
(496.094,174.316,o),
(518.066,187.012,q),
(541.992,199.219,o),
(554.199,228.027,q),
(561.035,238.77,o),
(568.848,238.77,qs),
(582.031,238.77,o),
(582.031,221.68,qs),
(582.031,215.82,o),
(581.543,211.914,o),
(581.055,208.008,o),
(580.566,206.543,q),
(580.566,207.031,l),
(575.195,189.453,o),
(566.895,167.969,o),
(558.594,146.484,o),
(547.852,120.605,qs),
(536.621,94.238,o),
(521.729,71.289,o),
(506.836,48.34,o),
(487.305,28.32,qs),
(486.328,27.344,o),
(483.154,26.123,o),
(479.98,24.902,o),
(478.516,24.902,qs),
(466.309,24.902,o),
(463.867,35.645,q),
(442.871,28.32,o),
(417.969,22.461,o),
(393.066,16.602,o),
(364.746,11.23,qs),
(334.961,5.859,o),
(303.955,3.174,o),
(272.949,0.488,o),
(241.699,0.488,qs),
(236.328,0.488,o),
(230.957,0.488,o),
(225.586,0.488,o),
(220.703,0.977,qs),
(184.57,1.953,o),
(151.123,8.301,o),
(117.676,14.648,o),
(86.914,25.879,q),
(22.461,51.27,o),
(1.953,108.398,qs)
);
}
);
width = 490;
}
);
},
{
glyphname = "behDotless-ar.fina.jalt";
layers = (
{
anchors = (
{
name = bottom;
pos = (453,-176);
},
{
name = bottom.mark;
pos = (466,-180);
},
{
name = entry;
pos = (851,83);
},
{
name = top;
pos = (558,360);
},
{
name = top.mark;
pos = (536,804);
}
);
layerId = "1467EB51-6BD4-4CFC-AEAA-3E4EB1A95CFA";
shapes = (
{
closed = 1;
nodes = (
(178,21,o),
(102,51,o),
(59,98,cs),
(-33,198,o),
(-7,321,o),
(72,422,cs),
(152,524,o),
(266,581,o),
(409,619,cs),
(473,636,o),
(545,645,o),
(624,648,c),
(571,536,l),
(489,533,o),
(403,518,o),
(313,490,cs),
(223,462,o),
(148,420,o),
(87,362,cs),
(69,345,o),
(58,326,o),
(56,306,cs),
(54,286,o),
(69,262,o),
(101,235,cs),
(185,162,o),
(305,126,o),
(463,128,c),
(526,133,o),
(601,143,o),
(685,158,cs),
(769,173,o),
(840,196,o),
(896,227,cs),
(916,238,o),
(929,253,o),
(938,275,c),
(942,280,o),
(944,279,o),
(944,273,cs),
(944,267,o),
(943,264,o),
(942,262,cs),
(935,239,o),
(924,209,o),
(909,174,cs),
(894,139,o),
(875,109,o),
(850,82,c),
(844,81,o),
(843,87,o),
(848,99,c),
(759,63,o),
(668,36,o),
(573,17,cs),
(478,-2,o),
(383,-5,o),
(287,7,cs)
);
}
);
width = 849;
},
{
anchors = (
{
name = bottom;
pos = (453,-176);
},
{
name = bottom.mark;
pos = (466,-180);
},
{
name = entry;
pos = (851,83);
},
{
name = top;
pos = (558,360);
},
{
name = top.mark;
pos = (536,804);
}
);
layerId = "EF321139-F770-433D-B2B6-C3EFA1B16465";
shapes = (
{
closed = 1;
nodes = (
(357,0,o),
(320,3,o),
(284,7,cs),
(175,21,o),
(99,52,o),
(56,99,cs),
(16,142,o),
(-4,190,o),
(-4,242,cs),
(-4,246,o),
(-4,246,o),
(-4,250,cs),
(-4,253,o),
(-3,255,o),
(-3,258,cs),
(7,390,o),
(124,505,o),
(227,556,cs),
(333,610,o),
(456,644,o),
(610,650,cs),
(618,651,o),
(627,643,o),
(622,633,c),
(571,524,ls),
(570,521,o),
(565,518,o),
(561,518,cs),
(483,515,o),
(400,500,o),
(313,474,cs),
(228,448,o),
(157,407,o),
(100,353,cs),
(85,338,o),
(76,323,o),
(74,306,cs),
(73,291,o),
(86,272,o),
(113,248,cs),
(191,180,o),
(306,146,o),
(455,147,c),
(607,161,o),
(762,182,o),
(868,241,cs),
(885,250,o),
(897,264,o),
(904,283,c),
(919,304,o),
(932,311,o),
(932,276,cs),
(932,268,o),
(931,262,o),
(929,259,c),
(906,191,o),
(878,128,o),
(834,80,c),
(820,79,o),
(813,81,o),
(812,88,c),
(691,42,o),
(559,0,o),
(397,0,cs)
);
}
);
width = 849;
},
{
associatedMasterId = "1467EB51-6BD4-4CFC-AEAA-3E4EB1A95CFA";
layerId = "AD3E87D6-AC64-494E-BD9F-BE23E096605B";
name = Back;
shapes = (
{
closed = 1;
nodes = (
(123.047,28.32,o),
(58.594,98.389,o),
(-5.859,168.457,o),
(0.732,253.418,o),
(7.324,338.379,o),
(72.021,421.631,o),
(136.719,504.883,o),
(231.445,552.734,qs),
(312.5,593.262,o),
(409.18,618.652,o),
(505.859,644.043,o),
(624.023,648.438,q),
(571.289,535.645,l),
(448.242,531.25,o),
(312.988,489.99,o),
(177.734,448.73,o),
(86.914,361.816,qs),
(59.57,335.938,o),
(56.396,305.908,o),
(53.223,275.879,o),
(101.074,234.863,qs),
(227.051,125.977,o),
(463.379,128.418,q),
(558.594,135.742,o),
(685.303,157.959,o),
(812.012,180.176,o),
(895.508,226.562,qs),
(925.293,242.676,o),
(938.477,275.391,q),
(943.848,282.715,o),
(943.848,273.438,o),
(943.848,264.16,o),
(942.383,261.719,q),
(931.641,226.562,o),
(909.424,174.316,o),
(887.207,122.07,o),
(850.098,82.031,q),
(840.82,81.055,o),
(847.656,99.121,q),
(714.844,44.434,o),
(572.998,16.602,o),
(431.152,-11.23,o),
(287.109,7.324,qs)
);
}
);
width = 849;
},
{
associatedMasterId = "EF321139-F770-433D-B2B6-C3EFA1B16465";
layerId = "436B7900-BF91-48D8-8C42-B549087F2DA3";
name = Back;
shapes = (
{
closed = 1;
nodes = (
(121.094,27.832,o),
(56.152,98.633,qs),
(-3.906,163.574,o),
(-3.906,241.699,qs),
(-3.906,245.605,o),
(-3.906,249.756,o),
(-3.906,253.906,o),
(-3.418,257.812,qs),
(2.93,343.262,o),
(67.871,426.27,qs),
(132.812,509.766,o),
(226.562,556.152,q),
(306.152,596.191,o),
(400.635,621.094,o),
(495.117,645.996,o),
(610.352,650.391,qs),
(617.676,650.879,o),
(621.338,645.264,o),
(625,639.648,o),
(621.582,633.301,qs),
(570.801,524.414,ls),
(569.824,521.973,o),
(566.65,519.775,o),
(563.477,517.578,o),
(560.547,517.578,qs),
(443.359,513.184,o),
(313.477,473.633,qs),
(185.547,434.57,o),
(100.098,353.027,qs),
(77.148,331.055,o),
(74.219,305.664,q),
(72.266,283.691,o),
(113.281,247.559,q),
(230.957,145.996,o),
(454.59,147.461,q),
(476.074,149.414,o),
(501.465,152.1,o),
(526.855,154.785,o),
(554.443,158.447,o),
(582.031,162.109,o),
(610.84,166.504,o),
(639.648,170.898,o),
(667.969,175.781,qs),
(727.539,187.012,o),
(778.076,203.369,o),
(828.613,219.727,o),
(867.676,241.211,q),
(893.066,254.395,o),
(904.297,283.203,q),
(916.992,301.758,o),
(924.316,300.293,o),
(931.641,298.828,o),
(931.641,275.879,qs),
(931.641,263.672,o),
(929.199,259.277,q),
(923.828,243.164,o),
(915.527,220.703,o),
(907.227,198.242,o),
(897.461,175.293,q),
(886.23,150.391,o),
(870.605,125.977,o),
(854.98,101.562,o),
(834.473,79.59,q),
(813.965,77.637,o),
(812.012,88.379,q),
(753.418,65.918,o),
(688.965,47.119,o),
(624.512,28.32,o),
(563.965,16.113,q),
(522.461,8.301,o),
(480.713,4.15,o),
(438.965,0,o),
(396.973,0,qs),
(368.164,0,o),
(340.088,1.709,o),
(312.012,3.418,o),
(284.18,6.836,qs)
);
}
);
width = 849;
}
);
},
{
glyphname = "behDotless-ar.medi";
layers = (
{
anchors = (
{
name = bottom;
pos = (149,-171);
},
{
name = bottom.mark;
pos = (145,-193);
},
{
name = entry;
pos = (198,22);
},
{
name = exit;
},
{
name = top;
pos = (215,374);
},
{
name = top.mark;
pos = (250,404);
}
);
layerId = "1467EB51-6BD4-4CFC-AEAA-3E4EB1A95CFA";
shapes = (
{
closed = 1;
nodes = (
(200,23,o),
(201,34,o),
(203,41,c),
(157,22,o),
(58,6,o),
(0,0,c),
(21,127,l),
(46,129,o),
(193,143,o),
(246,166,cs),
(271,177,o),
(288,201,o),
(295,218,cs),
(300,229,o),
(301,208,o),
(299,205,cs),
(284,158,o),
(256,77,o),
(206,24,c),
(205,24,l)
);
}
);
width = 206;
},
{
anchors = (
{
name = bottom;
pos = (149,-171);
},
{
name = bottom.mark;
pos = (145,-193);
},
{
name = entry;
pos = (198,22);
},
{
name = exit;
},
{
name = top;
pos = (215,374);
},
{
name = top.mark;
pos = (250,404);
}
);
layerId = "EF321139-F770-433D-B2B6-C3EFA1B16465";
shapes = (
{
closed = 1;
nodes = (
(193,23,o),
(188,28,o),
(186,35,c),
(135,17,o),
(65,6,o),
(3,0,cs),
(-5,-1,o),
(-10,6,o),
(-9,14,cs),
(11,136,ls),
(12,141,o),
(17,145,o),
(22,146,cs),
(81,151,o),
(129,157,o),
(165,164,cs),
(201,171,o),
(227,179,o),
(241,186,c),
(258,196,o),
(269,210,o),
(277,228,c),
(280,233,o),
(285,237,o),
(292,237,cs),
(301,237,o),
(305,231,o),
(305,220,cs),
(305,198,o),
(297,186,o),
(290,167,cs),
(270,114,o),
(246,66,o),
(210,27,cs),
(209,26,o),
(204,23,o),
(202,23,cs),
(201,23,ls)
);
}
);
width = 206;
},
{
associatedMasterId = "1467EB51-6BD4-4CFC-AEAA-3E4EB1A95CFA";
layerId = "8F7BC7EC-EB9C-431A-B721-C76243C83CC4";
name = Back;
shapes = (
{
closed = 1;
nodes = (
(205.566,24.414,ls),
(201.172,24.414,o),
(201.172,29.785,qs),
(201.172,33.691,o),
(204.102,41.504,q),
(169.922,27.344,o),
(106.689,15.625,o),
(43.457,3.906,o),
(0,0,q),
(20.996,126.953,l),
(208.496,144.531,o),
(252.441,168.945,qs),
(281.738,185.547,o),
(294.922,217.773,q),
(297.363,221.191,o),
(298.828,221.191,qs),
(300.293,221.191,o),
(300.293,215.82,qs),
(300.293,206.543,o),
(299.316,204.102,qs),
(288.086,168.945,o),
(266.113,116.699,o),
(244.141,64.453,o),
(206.543,24.414,q)
);
}
);
width = 206;
},
{
associatedMasterId = "EF321139-F770-433D-B2B6-C3EFA1B16465";
layerId = "8A8B8811-E7D6-4C3F-BEF2-7E5FDFEE7D4A";
name = Back;
shapes = (
{
closed = 1;
nodes = (
(188.477,23.438,o),
(185.547,34.668,q),
(169.922,29.297,o),
(150.146,24.414,o),
(130.371,19.531,o),
(107.91,15.137,qs),
(81.055,10.254,o),
(52.49,6.104,o),
(23.926,1.953,o),
(3.418,0,qs),
(-2.441,-0.488,o),
(-6.348,3.662,o),
(-10.254,7.812,o),
(-9.277,13.672,qs),
(11.23,136.23,ls),
(11.719,140.137,o),
(14.893,143.066,o),
(18.066,145.996,o),
(21.973,146.484,qs),
(109.863,154.297,o),
(164.551,164.307,o),
(219.238,174.316,o),
(240.723,185.547,q),
(265.625,200.684,o),
(277.344,227.539,q),
(280.273,232.91,o),
(284.18,235.107,o),
(288.086,237.305,o),
(291.504,237.305,qs),
(304.688,237.305,o),
(304.688,220.215,qs),
(304.688,214.355,o),
(304.199,210.449,o),
(303.711,206.543,o),
(303.223,205.078,q),
(303.223,205.566,l),
(297.852,187.988,o),
(289.551,166.504,o),
(281.25,145.02,o),
(270.508,119.629,qs),
(248.047,67.871,o),
(210.449,27.344,qs),
(209.473,26.367,o),
(206.543,24.902,o),
(203.613,23.438,o),
(202.148,23.438,qs),
(201.172,23.438,ls)
);
}
);
width = 206;
}
);
},
{
glyphname = "behDotless-ar.medi.ain";
layers = (
{
anchors = (
{
name = bottom;
pos = (224,-136);
},
{
name = bottom.mark;
pos = (321,-180);
},
{
name = entry;
pos = (352,26);
},
{
name = exit;
},
{
name = top;
pos = (312,400);
},
{
name = top.mark;
pos = (400,409);
}
);
layerId = "1467EB51-6BD4-4CFC-AEAA-3E4EB1A95CFA";
shapes = (
{
closed = 1;
nodes = (
(342,24,o),
(341,30,o),
(346,42,c),
(312,28,o),
(264,17,o),
(202,9,cs),
(140,1,o),
(92,-2,o),
(56,1,cs),
(28,4,o),
(1,19,o),
(0,48,c),
(13,98,o),
(26,140,o),
(39,175,c),
(50,139,o),
(98,129,o),
(146,128,cs),
(171,127,o),
(213,132,o),
(271,139,cs),
(329,146,o),
(370,157,o),
(394,170,cs),
(413,180,o),
(427,197,o),
(437,219,c),
(440,224,o),
(441,223,o),
(441,217,cs),
(441,211,o),
(441,207,o),
(440,205,cs),
(433,182,o),
(422,152,o),
(407,117,cs),
(392,82,o),
(373,51,o),
(348,25,c)
);
}
);
width = 347;
},
{
anchors = (
{
name = bottom;
pos = (224,-136);
},
{
name = bottom.mark;
pos = (321,-180);
},
{
name = entry;
pos = (352,26);
},
{
name = exit;
},
{
name = top;
pos = (312,400);
},
{
name = top.mark;
pos = (400,409);
}
);
layerId = "EF321139-F770-433D-B2B6-C3EFA1B16465";
shapes = (
{
closed = 1;
nodes = (
(260,14,o),
(173,0,o),
(91,0,cs),
(40,0,o),
(-7,10,o),
(-8,59,c),
(4,104,o),
(16,147,o),
(31,186,cs),
(33,190,o),
(37,193,o),
(42,193,cs),
(48,193,o),
(51,190,o),
(53,185,cs),
(62,154,o),
(107,148,o),
(146,147,cs),
(169,146,o),
(208,151,o),
(264,158,c),
(333,166,o),
(393,176,o),
(415,228,c),
(431,251,o),
(442,260,o),
(442,221,cs),
(442,215,o),
(441,211,o),
(440,207,cs),
(428,170,o),
(405,106,o),
(382,71,cs),
(372,56,o),
(360,41,o),
(348,28,c),
(341,24,l),
(329,23,o),
(322,23,o),
(322,35,c)
);
}
);
width = 347;
},
{
associatedMasterId = "1467EB51-6BD4-4CFC-AEAA-3E4EB1A95CFA";
layerId = "F4310074-1402-4A98-B062-E0ADBE253D47";
name = Back;
shapes = (
{
closed = 1;
nodes = (
(338.867,24.414,o),
(345.703,42.48,q),
(294.434,21.484,o),
(202.148,9.033,o),
(109.863,-3.418,o),
(56.152,1.465,qs),
(35.156,3.418,o),
(18.066,14.648,o),
(0.977,25.879,o),
(0,47.852,q),
(19.043,122.559,o),
(39.062,175.293,q),
(46.387,150.391,o),
(75.928,139.893,o),
(105.469,129.395,o),
(146.484,128.418,qs),
(184.57,127.441,o),
(271.24,138.672,o),
(357.91,149.902,o),
(393.555,169.922,q),
(421.875,185.059,o),
(436.523,218.75,q),
(441.406,226.074,o),
(441.406,216.797,o),
(441.406,207.52,o),
(440.43,205.078,qs),
(429.199,169.922,o),
(407.227,117.432,o),
(385.254,64.941,o),
(347.656,25.391,q)
);
}
);
width = 347;
},
{
associatedMasterId = "EF321139-F770-433D-B2B6-C3EFA1B16465";
layerId = "83D946AB-715D-49E5-BBD3-280E8080CF70";
name = Back;
shapes = (
{
closed = 1;
nodes = (
(331.055,23.438,o),
(326.66,24.902,o),
(322.266,26.367,o),
(322.266,34.668,q),
(297.852,26.367,o),
(268.066,20.02,o),
(238.281,13.672,o),
(200.684,8.301,q),
(168.945,4.395,o),
(141.846,2.197,o),
(114.746,0,o),
(91.309,0,qs),
(71.289,0,o),
(56.641,1.465,qs),
(33.691,3.906,o),
(14.648,16.113,q),
(-7.812,29.785,o),
(-8.301,59.082,q),
(1.465,96.191,o),
(11.23,127.686,o),
(20.996,159.18,o),
(30.762,185.547,qs),
(32.227,189.453,o),
(35.4,191.406,o),
(38.574,193.359,o),
(41.992,193.359,o),
(45.41,193.359,o),
(48.34,191.162,o),
(51.27,188.965,o),
(52.734,184.57,qs),
(55.664,174.805,o),
(63.721,167.969,o),
(71.777,161.133,o),
(83.984,156.738,o),
(96.191,152.344,o),
(111.816,150.146,o),
(127.441,147.949,o),
(145.508,147.461,qs),
(180.664,146.484,o),
(264.16,157.715,q),
(305.664,162.598,o),
(333.74,169.922,o),
(361.816,177.246,o),
(378.418,186.523,qs),
(402.832,199.707,o),
(414.551,227.539,q),
(429.199,248.535,o),
(435.547,247.314,o),
(441.895,246.094,o),
(441.895,221.191,qs),
(441.895,215.332,o),
(441.406,211.426,o),
(440.918,207.52,o),
(440.43,206.055,q),
(440.43,206.543,l),
(429.199,171.387,o),
(408.203,120.117,qs),
(396.973,93.75,o),
(381.836,71.045,o),
(366.699,48.34,o),
(348.145,28.32,q),
(340.82,24.414,l)
);
}
);
width = 347;
}
);
},
{
glyphname = "behDotless-ar.medi.dal";
layers = (
{
anchors = (
{
name = bottom;
pos = (193,-171);
},
{
name = bottom.mark;
pos = (202,-171);
},
{
name = entry;
pos = (233,18);
},
{
name = exit;
},
{
name = top;
pos = (242,387);
},
{
name = top.mark;
pos = (281,435);
}
);
layerId = "1467EB51-6BD4-4CFC-AEAA-3E4EB1A95CFA";
shapes = (
{
closed = 1;
nodes = (
(196,23,o),
(82,-14,o),
(40,6,cs),
(-27,39,o),
(1,150,o),
(47,203,cs),
(53,210,o),
(52,209,o),
(52,202,cs),
(52,172,o),
(60,139,o),
(86,132,cs),
(135,120,o),
(246,146,o),
(275,162,cs),
(294,173,o),
(309,190,o),
(317,211,cs),
(324,221,o),
(323,200,o),
(321,197,cs),
(308,154,o),
(274,86,o),
(242,26,cs),
(235,14,o),
(219,12,o),
(226,35,c)
);
}
);
width = 228;
},
{
anchors = (
{
name = bottom;
pos = (193,-171);
},
{
name = bottom.mark;
pos = (202,-171);
},
{
name = entry;
pos = (226,18);
},
{
name = exit;
},
{
name = top;
pos = (242,387);
},
{
name = top.mark;
pos = (281,435);
}
);
layerId = "EF321139-F770-433D-B2B6-C3EFA1B16465";
shapes = (
{
closed = 1;
nodes = (
(324,231,o),
(326,225,o),
(326,213,cs),
(326,209,o),
(325,207,o),
(325,204,cs),
(325,201,o),
(325,200,o),
(324,199,cs),
(304,140,o),
(274,84,o),
(247,31,cs),
(242,22,o),
(233,17,o),
(222,17,c),
(215,18,o),
(210,21,o),
(208,28,c),
(170,16,o),
(124,-1,o),
(76,-1,cs),
(21,-1,o),
(-10,34,o),
(-10,83,cs),
(-10,116,o),
(0,144,o),
(10,168,cs),
(18,186,o),
(27,202,o),
(39,216,c),
(44,220,o),
(47,222,o),
(51,222,cs),
(60,222,o),
(64,217,o),
(64,207,cs),
(64,204,ls),
(64,191,o),
(67,179,o),
(71,168,c),
(77,149,o),
(95,147,o),
(119,147,cs),
(157,147,o),
(203,158,o),
(232,167,cs),
(266,177,o),
(286,189,o),
(298,220,c),
(301,225,o),
(307,231,o),
(312,231,cs)
);
}
);
width = 228;
},
{
associatedMasterId = "1467EB51-6BD4-4CFC-AEAA-3E4EB1A95CFA";
layerId = "EE74D2CC-E245-46FD-93F6-2FA6F6D6AC1F";
name = Back;
shapes = (
{
closed = 1;
nodes = (
(203.613,25.391,o),
(137.207,8.301,qs),
(101.562,-0.977,o),
(75.684,-0.977,qs),
(54.199,-0.977,o),
(39.551,5.859,qs),
(-0.977,25.879,o),
(-0.977,74.219,qs),
(-0.977,84.473,o),
(0.977,96.68,qs),
(11.719,162.598,o),
(46.875,202.637,qs),
(49.316,205.078,o),
(50.293,205.078,qs),
(51.758,205.078,o),
(51.758,202.148,qs),
(51.758,199.219,ls),
(51.758,177.734,o),
(59.082,158.203,q),
(66.406,136.719,o),
(85.938,132.324,q),
(101.074,128.418,o),
(120.605,128.418,qs),
(148.926,128.418,o),
(187.5,136.719,qs),
(251.953,149.902,o),
(273.926,162.109,qs),
(303.223,177.734,o),
(316.895,210.938,q),
(319.336,214.355,o),
(320.312,214.355,qs),
(322.266,214.355,o),
(322.266,209.961,qs),
(322.266,208.984,l),
(321.777,199.707,o),
(320.801,197.266,qs),
(310.547,165.039,o),
(287.842,117.676,o),
(265.137,70.312,o),
(241.699,25.879,qs),
(236.816,17.09,o),
(229.004,17.09,qs),
(228.516,17.09,l),
(224.121,17.578,o),
(224.121,23.438,qs),
(224.121,27.832,o),
(226.074,34.668,q)
);
}
);
width = 228;
},
{
associatedMasterId = "EF321139-F770-433D-B2B6-C3EFA1B16465";
layerId = "12FE8C12-EC33-4D4D-B68E-3B98EEBBA4D6";
name = Back;
shapes = (
{
closed = 1;
nodes = (
(210.938,18.066,o),
(208.008,27.832,q),
(195.312,23.926,o),
(177.734,19.043,o),
(160.156,14.16,o),
(138.184,8.301,qs),
(121.094,3.906,o),
(104.736,1.465,o),
(88.379,-0.977,o),
(75.684,-0.977,qs),
(52.734,-0.977,o),
(35.645,6.836,qs),
(-10.254,28.809,o),
(-10.254,83.496,qs),
(-10.254,88.867,o),
(-9.766,95.215,o),
(-9.277,101.562,o),
(-8.301,106.934,qs),
(-2.441,140.137,o),
(9.521,167.725,o),
(21.484,195.312,o),
(39.062,215.82,q),
(45.898,221.68,o),
(51.27,221.68,qs),
(64.453,221.68,o),
(64.453,207.031,qs),
(64.453,204.102,ls),
(64.453,184.57,o),
(70.801,168.457,q),
(75.195,153.809,o),
(87.891,150.879,qs),
(94.727,149.414,o),
(102.051,148.438,o),
(109.375,147.461,o),
(119.141,147.461,qs),
(133.301,147.461,o),
(148.438,149.414,o),
(163.574,151.367,o),
(181.641,155.273,qs),
(211.914,161.133,o),
(231.689,167.236,o),
(251.465,173.34,o),
(261.719,178.711,qs),
(286.621,191.895,o),
(297.852,219.727,q),
(301.758,226.074,o),
(306.152,228.516,o),
(310.547,230.957,o),
(312.012,230.957,qs),
(320.312,230.957,o),
(322.998,227.051,o),
(325.684,223.145,o),
(325.684,213.379,q),
(325.195,208.008,o),
(325.195,204.102,o),
(325.195,200.195,o),
(324.219,198.73,qs),
(318.848,182.617,o),
(310.547,162.598,o),
(302.246,142.578,o),
(291.504,120.117,qs),
(280.273,97.168,o),
(269.043,74.951,o),
(257.812,52.734,o),
(246.582,30.762,q),
(238.77,16.602,o),
(221.68,16.602,q)
);
}
);
width = 228;
}
);
},
{
glyphname = "behDotless-ar.medi.feh";
layers = (
{
anchors = (
{
name = bottom;
pos = (338,-167);
},
{
name = bottom.mark;
pos = (374,-171);
},
{
name = entry;
pos = (400,35);
},
{
name = exit;
},
{
name = top;
pos = (422,461);
},
{
name = top.mark;
pos = (453,492);
}
);
layerId = "1467EB51-6BD4-4CFC-AEAA-3E4EB1A95CFA";
shapes = (
{
closed = 1;
nodes = (
(28,4,o),
(1,19,o),
(0,48,c),
(13,98,o),
(26,140,o),
(39,175,c),
(52,132,o),
(119,126,o),
(179,129,c),
(207,130,o),
(252,135,o),
(316,144,cs),
(380,153,o),
(421,163,o),
(442,175,c),
(462,186,o),
(476,202,o),
(485,224,c),
(489,229,o),
(490,228,o),
(490,222,cs),
(490,216,o),
(490,212,o),
(489,210,cs),
(482,187,o),
(471,158,o),
(456,123,cs),
(441,88,o),
(421,57,o),
(396,31,c),
(391,30,o),
(390,36,o),
(394,48,c),
(360,34,o),
(306,22,o),
(230,11,cs),
(154,0,o),
(96,-3,o),
(56,1,cs)
);
}
);
width = 395;
},
{
anchors = (
{
name = bottom;
pos = (338,-167);
},
{
name = bottom.mark;
pos = (374,-171);
},
{
name = entry;
pos = (400,35);
},
{
name = exit;
},
{
name = top;
pos = (422,461);
},
{
name = top.mark;
pos = (453,492);
}
);
layerId = "EF321139-F770-433D-B2B6-C3EFA1B16465";
shapes = (
{
closed = 1;
nodes = (
(42,3,o),
(28,8,o),
(15,16,cs),
(0,25,o),
(-8,39,o),
(-8,59,c),
(4,104,o),
(16,147,o),
(31,186,cs),
(33,190,o),
(37,193,o),
(42,193,cs),
(48,193,o),
(51,190,o),
(53,185,cs),
(63,152,o),
(113,147,o),
(155,147,cs),
(160,147,o),
(161,147,o),
(166,147,cs),
(206,147,o),
(330,165,o),
(382,177,cs),
(424,187,o),
(448,198,o),
(462,233,c),
(476,254,o),
(490,262,o),
(490,227,cs),
(490,219,o),
(489,213,o),
(487,210,c),
(478,184,o),
(466,152,o),
(455,125,cs),
(440,90,o),
(420,59,o),
(393,30,c),
(380,29,o),
(373,33,o),
(371,41,c),
(312,22,o),
(228,9,o),
(154,3,cs),
(132,1,o),
(111,0,o),
(93,0,cs),
(79,0,o),
(68,0,o),
(58,1,c),
(57,1,l)
);
}
);
width = 395;
},
{
associatedMasterId = "1467EB51-6BD4-4CFC-AEAA-3E4EB1A95CFA";
layerId = "23E7CBCD-ED66-4452-BE75-83C282265109";
name = Back;
shapes = (
{
closed = 1;
nodes = (
(35.156,3.418,o),
(18.066,14.648,o),
(0.977,25.879,o),
(0,47.852,q),
(19.043,122.559,o),
(39.062,175.293,q),
(47.852,145.508,o),
(87.646,135.742,o),
(127.441,125.977,o),
(178.711,128.906,q),
(220.215,130.371,o),
(315.674,144.043,o),
(411.133,157.715,o),
(441.895,175.293,q),
(471.68,191.406,o),
(484.863,224.121,q),
(490.234,231.445,o),
(490.234,222.168,o),
(490.234,212.891,o),
(488.77,210.449,q),
(478.027,175.293,o),
(455.811,122.803,o),
(433.594,70.312,o),
(396.484,30.762,q),
(388.672,29.785,o),
(394.043,47.852,q),
(343.262,27.344,o),
(229.736,11.475,o),
(116.211,-4.395,o),
(56.152,1.465,qs)
);
}
);
width = 395;
},
{
associatedMasterId = "EF321139-F770-433D-B2B6-C3EFA1B16465";
layerId = "5C5D5E15-5C9B-4EA7-BD99-8EE26D8DB968";
name = Back;
shapes = (
{
closed = 1;
nodes = (
(34.18,3.906,o),
(15.137,16.113,q),
(-7.324,29.785,o),
(-7.812,59.082,q),
(1.953,96.191,o),
(11.475,127.686,o),
(20.996,159.18,o),
(31.25,185.547,qs),
(32.715,189.453,o),
(35.889,191.406,o),
(39.062,193.359,o),
(42.48,193.359,o),
(45.898,193.359,o),
(48.828,191.162,o),
(51.758,188.965,o),
(53.223,184.57,qs),
(56.641,173.34,o),
(66.406,165.771,o),
(76.172,158.203,o),
(91.309,154.297,qs),
(121.094,147.461,o),
(155.273,147.461,qs),
(160.645,147.461,o),
(165.527,147.461,o),
(170.41,147.461,o),
(175.781,147.949,qs),
(214.844,149.414,o),
(307.129,162.598,qs),
(353.027,169.434,o),
(382.324,176.514,o),
(411.621,183.594,o),
(425.293,191.406,qs),
(450.684,205.078,o),
(462.402,233.398,q),
(475.098,251.953,o),
(482.422,250.732,o),
(489.746,249.512,o),
(489.746,226.562,qs),
(489.746,214.355,o),
(487.305,209.961,q),
(481.445,193.359,o),
(473.145,171.143,o),
(464.844,148.926,o),
(455.078,125.488,qs),
(432.617,73.242,o),
(392.578,30.273,q),
(373.047,28.32,o),
(370.605,40.527,q),
(345.215,32.227,o),
(309.326,24.902,o),
(273.438,17.578,o),
(227.539,10.742,q),
(187.012,5.371,o),
(153.809,2.686,o),
(120.605,0,o),
(93.262,0,qs),
(72.754,0,o),
(57.617,1.465,q),
(57.129,1.465,l)
);
}
);
width = 395;
}
);
},
{
glyphname = "behDotless-ar.medi.hah";
layers = (
{
anchors = (
{
name = bottom;
pos = (461,0);
},
{
name = bottom.mark;
pos = (400,18);
},
{
name = entry;
pos = (356,184);
},
{
name = exit;
pos = (-31,7);
},
{
name = top;
pos = (229,488);
},
{
name = top.mark;
pos = (312,580);
}
);
layerId = "1467EB51-6BD4-4CFC-AEAA-3E4EB1A95CFA";
shapes = (
{
closed = 1;
nodes = (
(9,-1,o),
(0,-1,o),
(0,5,cs),
(3,43,o),
(17,106,o),
(30,138,c),
(51,164,o),
(74,192,o),
(100,218,c),
(143,263,o),
(201,312,o),
(260,340,c),
(291,354,o),
(319,361,o),
(345,361,cs),
(372,361,o),
(381,333,o),
(393,318,c),
(395,317,o),
(396,317,o),
(398,317,cs),
(431,322,l),
(369,188,l),
(361,186,o),
(354,183,o),
(350,183,c),
(333,182,o),
(322,190,o),
(317,206,c),
(308,224,o),
(287,245,o),
(257,233,cs),
(216,218,o),
(178,196,o),
(143,167,cs),
(106,137,o),
(81,110,o),
(67,89,cs),
(53,68,o),
(35,38,o),
(12,2,c)
);
}
);
width = 452;
},
{
anchors = (
{
name = bottom;
pos = (461,0);
},
{
name = bottom.mark;
pos = (400,18);
},
{
name = entry;
pos = (356,189);
},
{
name = exit;
pos = (-32,0);
},
{
name = top;
pos = (229,488);
},
{
name = top.mark;
pos = (312,580);
}
);
layerId = "EF321139-F770-433D-B2B6-C3EFA1B16465";
shapes = (
{
closed = 1;
nodes = (
(16,-5,o),
(-8,1,o),
(-8,18,cs),
(-5,63,o),
(7,112,o),
(23,152,c),
(44,178,o),
(67,206,o),
(92,231,c),
(135,276,o),
(192,323,o),
(250,351,c),
(281,365,o),
(310,372,o),
(337,372,cs),
(354,372,o),
(367,366,o),
(375,352,cs),
(380,343,o),
(385,336,o),
(390,330,c),
(419,334,ls),
(428,335,o),
(436,328,o),
(431,318,cs),
(371,189,ls),
(370,186,o),
(347,177,o),
(344,177,cs),
(321,176,o),
(306,185,o),
(299,205,c),
(295,214,o),
(284,229,o),
(269,229,cs),
(264,229,o),
(260,228,o),
(256,226,cs),
(202,206,o),
(144,164,o),
(105,125,cs),
(93,113,o),
(85,101,o),
(78,91,c),
(78,92,l),
(25,8,l)
);
}
);
width = 452;
},
{
associatedMasterId = "1467EB51-6BD4-4CFC-AEAA-3E4EB1A95CFA";
layerId = "FCF99BE0-30F0-4FF8-8D6B-C9BF88E0B174";
name = Back;
shapes = (
{
closed = 1;
nodes = (
(9.277,0,o),
(4.639,0.488,o),
(0,0.977,o),
(0,5.371,qs),
(1.465,25.879,o),
(9.033,65.674,o),
(16.602,105.469,o),
(29.785,138.184,q),
(42.969,154.785,o),
(60.547,175.537,o),
(78.125,196.289,o),
(100.098,218.262,q),
(133.789,253.418,o),
(175.049,286.377,o),
(216.309,319.336,o),
(259.766,339.844,q),
(306.152,360.84,o),
(344.727,360.84,qs),
(364.258,360.84,o),
(373.779,345.459,o),
(383.301,330.078,o),
(392.578,318.359,q),
(394.043,317.871,o),
(395.508,317.383,o),
(396.973,316.895,o),
(398.438,316.895,qs),
(431.152,321.777,l),
(369.141,187.988,l),
(356.445,185.059,o),
(350.098,183.105,q),
(324.219,182.129,o),
(317.383,205.566,q),
(310.059,220.703,o),
(293.945,230.957,o),
(277.832,241.211,o),
(256.836,232.91,qs),
(195.312,209.961,o),
(142.578,166.992,qs),
(87.402,121.582,o),
(66.65,89.355,o),
(45.898,57.129,o),
(11.719,2.441,q)
);
}
);
width = 452;
},
{
associatedMasterId = "EF321139-F770-433D-B2B6-C3EFA1B16465";
layerId = "1F6B012F-C695-4731-A3A8-45E1C14197E7";
name = Back;
shapes = (
{
closed = 1;
nodes = (
(20.02,1.953,o),
(14.648,0.977,o),
(9.277,0,o),
(4.15,1.465,o),
(-0.977,2.93,o),
(-4.639,6.836,o),
(-8.301,10.742,o),
(-8.301,17.578,qs),
(-6.836,40.527,o),
(0.488,77.148,qs),
(7.812,113.77,o),
(22.949,152.344,q),
(36.621,169.434,o),
(53.955,189.941,o),
(71.289,210.449,o),
(91.797,230.957,q),
(125.488,266.113,o),
(166.016,298.34,o),
(206.543,330.566,o),
(249.512,351.074,q),
(295.898,372.07,o),
(336.914,372.07,qs),
(361.816,372.07,o),
(374.512,351.562,qs),
(382.324,338.379,o),
(389.648,329.59,q),
(418.945,334.473,ls),
(426.27,335.449,o),
(430.42,330.078,o),
(434.57,324.707,o),
(431.152,317.871,qs),
(371.094,188.965,ls),
(370.117,186.523,o),
(358.643,181.885,o),
(347.168,177.246,o),
(343.75,176.758,qs),
(308.594,175.781,o),
(298.828,207.031,q),
(299.316,205.078,l),
(294.434,216.309,o),
(281.25,225.098,qs),
(275.879,228.516,o),
(269.043,228.516,qs),
(266.113,228.516,o),
(262.695,228.027,o),
(259.277,227.539,o),
(255.859,226.074,qs),
(199.707,205.078,o),
(148.926,164.062,qs),
(123.047,142.578,o),
(105.225,124.756,o),
(87.402,106.934,o),
(77.637,91.309,q),
(77.637,91.797,l),
(24.902,7.812,l),
(23.438,5.859,ls)
);
}
);
width = 452;
}
);
},
{
glyphname = "behDotless-ar.medi.heh";
layers = (
{
anchors = (
{
name = bottom;
pos = (413,-79);
},
{
name = bottom.mark;
pos = (466,-83);
},
{
name = entry;
pos = (475,132);
},
{
name = exit;
},
{
name = top;
pos = (404,514);
},
{
name = top.mark;
pos = (417,541);
}
);
layerId = "1467EB51-6BD4-4CFC-AEAA-3E4EB1A95CFA";
shapes = (
{
closed = 1;
nodes = (
(186,20,o),
(134,-44,o),
(111,-98,cs),
(96,-134,o),
(73,-190,o),
(44,-248,cs),
(25,-288,o),
(12,-299,o),
(6,-282,cs),
(0,-265,o),
(-1,-235,o),
(2,-194,cs),
(5,-156,l),
(5,-155,l),
(58,-90,l),
(58,-91,l),
(54,-121,l),
(62,-105,l),
(63,-103,l),
(102,-25,o),
(144,55,o),
(196,122,cs),
(211,141,o),
(231,165,o),
(256,194,cs),
(281,223,o),
(307,249,o),
(336,270,cs),
(365,291,o),
(395,303,o),
(425,307,cs),
(455,311,o),
(482,297,o),
(507,266,c),
(507,266,o),
(507,266,o),
(512,264,c),
(545,269,l),
(483,135,l),
(477,133,o),
(470,131,o),
(464,130,c),
(446,129,o),
(436,137,o),
(432,153,c),
(420,177,o),
(402,186,o),
(379,180,cs),
(325,165,o),
(273,115,o),
(237,76,cs)
);
}
);
width = 572;
},
{
anchors = (
{
name = bottom;
pos = (413,-79);
},
{
name = bottom.mark;
pos = (466,-83);
},
{
name = entry;
pos = (475,132);
},
{
name = exit;
},
{
name = top;
pos = (404,514);
},
{
name = top.mark;
pos = (417,541);
}
);
layerId = "EF321139-F770-433D-B2B6-C3EFA1B16465";
shapes = (
{
closed = 1;
nodes = (
(196,27,o),
(149,-25,o),
(122,-88,cs),
(103,-133,o),
(84,-177,o),
(61,-225,cs),
(60,-228,o),
(60,-230,o),
(58,-232,cs),
(43,-264,o),
(17,-308,o),
(0,-265,cs),
(-5,-251,o),
(-7,-232,o),
(-7,-212,cs),
(-7,-201,o),
(-6,-188,o),
(-5,-175,cs),
(-2,-133,l),
(52,-69,ls),
(55,-65,o),
(58,-63,o),
(63,-64,c),
(99,7,o),
(137,75,o),
(185,136,cs),
(214,172,o),
(245,215,o),
(281,247,cs),
(295,260,o),
(309,272,o),
(323,282,c),
(348,299,o),
(380,315,o),
(414,320,cs),
(447,324,o),
(475,310,o),
(501,279,c),
(530,284,ls),
(539,285,o),
(547,277,o),
(542,267,cs),
(482,137,ls),
(481,135,o),
(478,132,o),
(475,131,cs),
(463,127,l),
(437,122,o),
(418,133,o),
(411,154,c),
(405,168,o),
(395,175,o),
(384,175,cs),
(367,175,o),
(356,168,o),
(342,161,cs),
(304,141,o),
(270,108,o),
(242,77,cs)
);
}
);
width = 572;
},
{
associatedMasterId = "1467EB51-6BD4-4CFC-AEAA-3E4EB1A95CFA";
layerId = "23CC453C-AB0F-4965-88EC-709D3E898101";
name = Back;
shapes = (
{
closed = 1;
nodes = (
(133.301,-44.434,o),
(110.596,-98.389,o),
(87.891,-152.344,o),
(46.875,-240.723,q),
(46.387,-241.699,ls),
(45.898,-243.652,o),
(43.945,-247.559,qs),
(15.137,-308.105,o),
(6.348,-282.227,o),
(-2.441,-256.348,o),
(1.953,-194.336,qs),
(4.883,-155.762,l),
(4.883,-155.273,l),
(58.105,-89.844,l),
(58.105,-91.309,l),
(53.711,-120.605,l),
(61.523,-104.98,l),
(62.988,-102.539,l),
(91.309,-45.41,o),
(123.291,12.207,o),
(155.273,69.824,o),
(195.801,121.582,qs),
(218.262,150.391,o),
(255.615,194.336,o),
(292.969,238.281,o),
(336.426,269.775,o),
(379.883,301.27,o),
(424.805,306.885,o),
(469.727,312.5,o),
(506.836,265.625,q),
(504.883,266.113,o),
(512.207,263.672,q),
(545.41,269.043,l),
(483.398,134.766,l),
(478.516,133.301,o),
(473.633,132.324,o),
(468.75,131.348,o),
(464.355,130.371,q),
(437.988,129.395,o),
(431.641,152.832,q),
(414.062,189.453,o),
(379.15,179.932,o),
(344.238,170.41,o),
(306.885,141.113,o),
(269.531,111.816,o),
(237.305,76.416,o),
(205.078,41.016,o),
(192.871,26.367,qs)
);
}
);
width = 572;
},
{
associatedMasterId = "EF321139-F770-433D-B2B6-C3EFA1B16465";
layerId = "323213C8-62A3-48DD-81CB-0A84FE1BC239";
name = Back;
shapes = (
{
closed = 1;
nodes = (
(171.875,-3.418,o),
(152.344,-32.959,o),
(132.812,-62.5,o),
(122.07,-87.891,qs),
(110.84,-114.258,o),
(95.947,-148.438,o),
(81.055,-182.617,o),
(61.035,-225.098,qs),
(60.059,-227.051,o),
(59.57,-229.004,o),
(59.082,-230.957,o),
(57.617,-232.91,qs),
(58.105,-232.422,l),
(38.574,-273.438,o),
(23.438,-280.273,o),
(8.301,-287.109,o),
(-0.488,-264.648,qs),
(-3.906,-255.859,o),
(-5.371,-242.676,o),
(-6.836,-229.492,o),
(-6.836,-212.402,qs),
(-6.836,-195.312,o),
(-5.371,-175.293,qs),
(-1.953,-133.301,l),
(51.758,-68.848,ls),
(56.641,-62.5,o),
(63.477,-64.453,q),
(89.844,-12.207,o),
(118.896,38.818,o),
(147.949,89.844,o),
(184.57,136.23,qs),
(195.801,150.391,o),
(209.961,167.969,o),
(224.121,185.547,o),
(242.188,207.031,qs),
(260.742,228.516,o),
(281.494,247.314,o),
(302.246,266.113,o),
(322.754,281.738,q),
(344.238,296.875,o),
(367.92,306.885,o),
(391.602,316.895,o),
(413.574,319.824,qs),
(462.402,325.684,o),
(501.465,278.809,q),
(530.273,283.691,ls),
(537.598,284.668,o),
(541.748,279.297,o),
(545.898,273.926,o),
(542.48,267.09,qs),
(482.422,137.207,ls),
(481.445,135.254,o),
(479.004,133.301,o),
(476.562,131.348,o),
(474.609,130.859,qs),
(462.891,127.441,l),
(456.055,125.977,l),
(419.434,125,o),
(410.156,156.25,q),
(410.645,154.297,l),
(401.367,175.293,o),
(384.277,175.293,qs),
(381.836,175.293,o),
(379.395,175.049,o),
(376.953,174.805,o),
(374.023,174.316,qs),
(358.398,169.922,o),
(341.797,161.133,o),
(325.195,152.344,o),
(308.105,138.672,qs),
(272.461,110.84,o),
(242.188,77.148,qs),
(226.562,60.059,o),
(216.309,48.34,o),
(206.055,36.621,o),
(199.707,29.785,qs)
);
}
);
width = 572;
}
);
},
{
glyphname = "behDotless-ar.medi.high";
layers = (
{
anchors = (
{
name = bottom;
pos = (167,-123);
},
{
name = bottom.mark;
pos = (229,-158);
},
{
name = entry;
pos = (229,171);
},
{
name = exit;
},
{
name = top;
pos = (132,492);
},
{
name = top.mark;
pos = (224,628);
}
);
layerId = "1467EB51-6BD4-4CFC-AEAA-3E4EB1A95CFA";
shapes = (
{
closed = 1;
nodes = (
(223,254,o),
(216,283,o),
(198,352,c),
(274,465,ls),
(276,468,o),
(283,443,o),
(294,390,cs),
(305,337,o),
(303,280,o),
(286,218,c),
(261,116,o),
(188,49,o),
(82,21,cs),
(55,14,o),
(28,7,o),
(0,0,c),
(58,133,l),
(118,144,o),
(173,158,o),
(223,179,c)
);
}
);
width = 326;
},
{
anchors = (
{
name = bottom;
pos = (167,-123);
},
{
name = bottom.mark;
pos = (229,-158);
},
{
name = entry;
pos = (229,171);
},
{
name = exit;
},
{
name = top;
pos = (132,492);
},
{
name = top.mark;
pos = (224,628);
}
);
layerId = "EF321139-F770-433D-B2B6-C3EFA1B16465";
shapes = (
{
closed = 1;
nodes = (
(264,476,o),
(270,475,o),
(277,462,cs),
(289,441,o),
(306,370,o),
(306,326,cs),
(306,286,o),
(299,253,o),
(290,219,c),
(270,141,o),
(225,85,o),
(160,50,c),
(116,28,o),
(58,15,o),
(6,0,cs),
(-4,-3,o),
(-13,7,o),
(-8,17,cs),
(47,146,ls),
(48,148,o),
(53,151,o),
(56,152,cs),
(112,161,o),
(159,173,o),
(206,192,c),
(206,252,o),
(195,299,o),
(182,349,cs),
(181,351,o),
(183,357,o),
(184,358,cs),
(258,468,ls)
);
}
);
width = 326;
},
{
associatedMasterId = "1467EB51-6BD4-4CFC-AEAA-3E4EB1A95CFA";
layerId = "1118CA9D-2297-4F75-97D9-78185F5372B9";
name = Back;
shapes = (
{
closed = 1;
nodes = (
(274.414,465.332,ls),
(277.344,469.727,o),
(294.434,390.381,o),
(311.523,311.035,o),
(285.645,217.773,q),
(257.812,104.004,o),
(156.738,50.293,qs),
(122.07,31.738,o),
(81.787,21.24,o),
(41.504,10.742,o),
(0,0,q),
(57.617,133.301,l),
(102.051,141.113,o),
(143.555,151.855,o),
(185.059,162.598,o),
(222.656,178.711,q),
(222.656,223.145,o),
(217.529,258.789,o),
(212.402,294.434,o),
(197.754,352.051,q)
);
}
);
width = 326;
},
{
associatedMasterId = "EF321139-F770-433D-B2B6-C3EFA1B16465";
layerId = "2292CCE1-D111-43A0-8B04-C1CF9F534A87";
name = Back;
shapes = (
{
closed = 1;
nodes = (
(266.113,480.957,o),
(276.611,462.158,o),
(287.109,443.359,o),
(298.34,391.113,qs),
(305.664,358.887,o),
(305.664,326.172,qs),
(305.664,300.293,o),
(301.758,273.926,o),
(297.852,247.559,o),
(290.039,218.75,q),
(290.039,219.238,l),
(275.879,162.598,o),
(242.92,119.873,o),
(209.961,77.148,o),
(159.668,49.805,q),
(131.836,35.645,o),
(97.656,25.391,o),
(63.477,15.137,o),
(29.785,6.836,qs),
(18.066,3.906,o),
(5.859,0.488,qs),
(-1.953,-1.953,o),
(-6.836,3.662,o),
(-11.719,9.277,o),
(-8.301,16.602,qs),
(47.363,145.508,ls),
(48.34,147.461,o),
(51.27,149.658,o),
(54.199,151.855,o),
(56.152,152.344,qs),
(97.656,159.18,o),
(134.277,168.701,o),
(170.898,178.223,o),
(206.055,192.383,q),
(206.055,211.914,o),
(204.59,227.539,o),
(203.125,243.164,o),
(200.684,259.766,qs),
(198.242,278.32,o),
(193.604,300.537,o),
(188.965,322.754,o),
(182.129,349.121,qs),
(181.641,350.586,o),
(182.129,354.004,o),
(182.617,357.422,o),
(183.594,358.398,qs),
(257.812,468.262,ls)
);
}
);
width = 326;
}
);
},
{
glyphname = "behDotless-ar.medi.high2";
layers = (
{
anchors = (
{
name = bottom;
pos = (189,-158);
},
{
name = bottom.mark;
pos = (272,-171);
},
{
name = entry;
pos = (237,0);
},
{
name = exit;
},
{
name = top;
pos = (244,586);
},
{
name = top.mark;
pos = (250,545);
}
);
layerId = "1467EB51-6BD4-4CFC-AEAA-3E4EB1A95CFA";
shapes = (
{
closed = 1;
nodes = (
(289,411,l),
(311,117,l),
(237,0,l),
(229,107,l),
(209,85,o),
(185,66,o),
(156,50,c),
(0,0,l),
(65,137,l),
(121,147,o),
(177,159,o),
(224,179,c),
(215,293,l)
);
}
);
width = 236;
},
{
anchors = (
{
name = bottom;
pos = (189,-158);
},
{
name = bottom.mark;
pos = (272,-171);
},
{
name = entry;
pos = (237,0);
},
{
name = exit;
},
{
name = top;
pos = (244,586);
},
{
name = top.mark;
pos = (250,545);
}
);
layerId = "EF321139-F770-433D-B2B6-C3EFA1B16465";
shapes = (
{
closed = 1;
nodes = (
(272,415,ls),
(278,424,o),
(293,422,o),
(294,410,cs),
(315,122,l),
(241,6,ls),
(235,-3,o),
(221,-1,o),
(220,11,cs),
(214,88,l),
(197,72,o),
(179,61,o),
(158,49,c),
(6,0,l),
(-4,-4,o),
(-13,7,o),
(-8,17,cs),
(55,149,ls),
(56,151,o),
(61,155,o),
(64,156,cs),
(113,165,o),
(165,175,o),
(207,192,c),
(198,298,l)
);
}
);
width = 236;
},
{
associatedMasterId = "1467EB51-6BD4-4CFC-AEAA-3E4EB1A95CFA";
layerId = "0EEB818F-1AB5-43BF-BEC2-2C038932EA55";
name = Back;
shapes = (
{
closed = 1;
nodes = (
(289.062,410.645,l),
(310.547,117.188,l),
(236.816,0,l),
(229.004,107.422,l),
(199.707,73.73,o),
(156.25,50.293,q),
(0,0,l),
(0,0,l),
(65.43,136.719,l),
(104.98,143.555,o),
(145.508,153.076,o),
(186.035,162.598,o),
(223.633,178.711,q),
(215.332,293.457,l)
);
}
);
width = 236;
},
{
associatedMasterId = "EF321139-F770-433D-B2B6-C3EFA1B16465";
layerId = "0174A1DE-5DCD-46AD-9987-481BDC9DA28C";
name = Back;
shapes = (
{
closed = 1;
nodes = (
(271.973,414.551,ls),
(274.414,418.457,o),
(278.076,419.678,o),
(281.738,420.898,o),
(285.156,420.166,o),
(288.574,419.434,o),
(291.016,416.748,o),
(293.457,414.062,o),
(293.945,409.668,qs),
(314.941,122.07,l),
(241.211,5.859,ls),
(238.77,1.953,o),
(235.352,0.732,o),
(231.934,-0.488,o),
(228.516,0.244,o),
(225.098,0.977,o),
(222.656,3.662,o),
(220.215,6.348,o),
(219.727,10.742,qs),
(213.867,88.379,l),
(201.172,76.66,o),
(187.5,67.383,o),
(173.828,58.105,o),
(157.715,48.828,q),
(6.348,0.488,ls),
(2.441,-0.977,o),
(-0.977,0,o),
(-4.395,0.977,o),
(-6.592,3.662,o),
(-8.789,6.348,o),
(-9.521,9.766,o),
(-10.254,13.184,o),
(-8.301,17.09,qs),
(55.176,148.926,ls),
(56.152,150.879,o),
(58.838,153.076,o),
(61.523,155.273,o),
(63.965,155.762,qs),
(99.121,162.109,o),
(135.986,170.654,o),
(172.852,179.199,o),
(206.543,192.383,q),
(198.242,298.34,l)
);
}
);
width = 236;
}
);
},
{
glyphname = "behDotless-ar.medi.meem";
layers = (
{
anchors = (
{
name = bottom;
pos = (347,-88);
},
{
name = bottom.mark;
pos = (281,-114);
},
{
name = entry;
pos = (286,92);
},
{
name = exit;
pos = (-24,-49);
},
{
name = top;
pos = (224,461);
},
{
name = top.mark;
pos = (246,466);
}
);
layerId = "1467EB51-6BD4-4CFC-AEAA-3E4EB1A95CFA";
shapes = (
{
closed = 1;
nodes = (
(118,115,o),
(69,55,o),
(30,0,c),
(0,8,l),
(0,8,l),
(34,80,o),
(90,167,o),
(145,220,cs),
(164,238,o),
(183,251,o),
(203,260,cs),
(223,269,o),
(242,272,o),
(262,268,c),
(283,263,o),
(304,248,o),
(322,225,c),
(328,224,l),
(361,229,l),
(298,94,l),
(292,92,o),
(285,91,o),
(279,90,c),
(261,89,o),
(251,96,o),
(247,112,c),
(233,141,o),
(212,151,o),
(185,141,cs)
);
}
);
width = 287;
},
{
anchors = (
{
name = bottom;
pos = (347,-88);
},
{
name = bottom.mark;
pos = (281,-114);
},
{
name = entry;
pos = (286,92);
},
{
name = exit;
pos = (-24,-49);
},
{
name = top;
pos = (224,461);
},
{
name = top.mark;
pos = (246,466);
}
);
layerId = "EF321139-F770-433D-B2B6-C3EFA1B16465";
shapes = (
{
closed = 1;
nodes = (
(277,284,o),
(302,263,o),
(321,240,c),
(350,245,ls),
(359,246,o),
(367,238,o),
(363,228,cs),
(302,98,ls),
(301,96,o),
(297,92,o),
(294,91,cs),
(282,88,l),
(276,87,l),
(251,86,o),
(236,96,o),
(230,115,c),
(222,131,o),
(213,140,o),
(201,140,cs),
(195,140,o),
(191,138,o),
(186,136,c),
(186,137,l),
(157,127,o),
(131,108,o),
(107,83,c),
(81,57,o),
(59,31,o),
(41,5,cs),
(39,2,o),
(34,-1,o),
(29,0,cs),
(0,8,ls),
(-19,13,o),
(-1,40,o),
(6,52,cs),
(40,115,o),
(85,185,o),
(135,232,cs),
(161,257,o),
(195,284,o),
(239,284,cs)
);
}
);
width = 287;
},
{
associatedMasterId = "1467EB51-6BD4-4CFC-AEAA-3E4EB1A95CFA";
layerId = "79FD3F1B-0A6B-4381-B9D1-EBE547731F86";
name = Back;
shapes = (
{
closed = 1;
nodes = (
(136.719,122.07,o),
(98.633,83.008,o),
(60.547,43.945,o),
(29.785,0,q),
(29.785,0,l),
(0,7.812,l),
(0,8.301,l),
(11.719,33.203,o),
(33.691,71.289,o),
(55.664,109.375,o),
(83.496,147.949,qs),
(113.77,189.941,o),
(145.02,219.727,qs),
(172.852,246.094,o),
(202.881,260.01,o),
(232.91,273.926,o),
(262.207,267.578,q),
(294.434,259.766,o),
(321.777,225.098,q),
(327.637,223.633,o),
(327.637,223.633,q),
(360.84,228.516,l),
(298.34,94.238,l),
(293.457,92.773,o),
(288.574,91.797,o),
(283.691,90.82,o),
(279.297,89.844,q),
(252.93,88.867,o),
(246.582,112.305,q),
(225.586,156.25,o),
(185.059,140.625,qs)
);
}
);
width = 287;
},
{
associatedMasterId = "EF321139-F770-433D-B2B6-C3EFA1B16465";
layerId = "781F9B4A-048C-4AE3-8FF5-9DB1B914BD36";
name = Back;
shapes = (
{
closed = 1;
nodes = (
(142.578,121.094,o),
(106.934,83.496,q),
(68.359,43.945,o),
(41.016,5.371,qs),
(39.551,2.93,o),
(35.889,1.221,o),
(32.227,-0.488,o),
(28.809,0.488,qs),
(0,8.301,ls),
(-5.371,9.766,o),
(-7.812,14.648,o),
(-10.254,19.531,o),
(-7.812,24.902,qs),
(-2.441,36.133,o),
(5.859,51.514,o),
(14.16,66.895,o),
(25.391,86.426,qs),
(46.875,124.023,o),
(74.219,161.621,qs),
(104.004,203.125,o),
(135.254,232.422,qs),
(159.668,255.859,o),
(186.035,270.02,o),
(212.402,284.18,o),
(239.258,284.18,qs),
(244.141,284.18,o),
(249.023,283.691,o),
(253.906,283.203,o),
(259.277,281.738,qs),
(275.391,277.344,o),
(291.016,267.09,o),
(306.641,256.836,o),
(320.801,239.746,q),
(350.098,244.629,ls),
(357.91,245.605,o),
(361.816,240.234,o),
(365.723,234.863,o),
(362.793,228.027,qs),
(302.246,98.145,ls),
(301.27,96.191,o),
(298.584,93.994,o),
(295.898,91.797,o),
(293.945,91.309,qs),
(282.227,88.379,l),
(275.879,86.914,l),
(257.324,86.426,o),
(246.094,93.75,o),
(234.863,101.074,o),
(229.98,117.188,q),
(230.469,115.234,l),
(218.75,139.648,o),
(201.172,139.648,qs),
(197.754,139.648,o),
(194.092,138.672,o),
(190.43,137.695,o),
(185.547,136.23,q),
(186.035,136.719,l)
);
}
);
width = 287;
}
);
},
{
glyphname = "behDotless-ar.medi.noon";
layers = (
{
anchors = (
{
name = bottom;
pos = (88,-101);
},
{
name = bottom.mark;
pos = (136,-176);
},
{
name = entry;
pos = (242,0);
},
{
name = exit;
pos = (0,44);
},
{
name = top;
pos = (158,457);
},
{
name = top.mark;
pos = (224,497);
}
);
layerId = "1467EB51-6BD4-4CFC-AEAA-3E4EB1A95CFA";
shapes = (
{
closed = 1;
nodes = (
(302,276,o),
(309,202,o),
(315,128,c),
(242,0,l),
(229,195,l),
(192,152,o),
(144,124,o),
(82,108,cs),
(55,101,o),
(28,94,o),
(0,87,c),
(18,220,l),
(59,214,o),
(110,224,o),
(172,251,cs),
(236,279,o),
(275,311,o),
(289,345,cs),
(292,352,o),
(295,355,o),
(299,357,cs),
(302,358,o),
(304,357,o),
(304,354,cs)
);
}
);
width = 241;
},
{
anchors = (
{
name = bottom;
pos = (88,-101);
},
{
name = bottom.mark;
pos = (136,-176);
},
{
name = entry;
pos = (234,0);
},
{
name = exit;
pos = (0,44);
},
{
name = top;
pos = (158,457);
},
{
name = top.mark;
pos = (224,497);
}
);
layerId = "EF321139-F770-433D-B2B6-C3EFA1B16465";
shapes = (
{
closed = 1;
nodes = (
(308,345,o),
(308,338,o),
(308,329,cs),
(308,273,o),
(311,227,o),
(315,174,cs),
(318,142,l),
(247,6,ls),
(241,-4,o),
(226,-1,o),
(225,11,c),
(213,173,l),
(196,157,o),
(180,146,o),
(160,134,c),
(121,114,o),
(70,100,o),
(23,89,cs),
(5,84,l),
(-4,81,o),
(-10,88,o),
(-9,97,cs),
(8,226,l),
(11,241,o),
(27,234,o),
(43,234,cs),
(76,234,o),
(116,245,o),
(164,266,cs),
(220,290,o),
(256,318,o),
(271,350,c),
(271,349,l),
(274,357,o),
(279,364,o),
(286,368,c),
(301,375,o),
(308,370,o),
(308,354,cs)
);
}
);
width = 241;
},
{
associatedMasterId = "1467EB51-6BD4-4CFC-AEAA-3E4EB1A95CFA";
layerId = "EB8D480D-FD73-4681-8A4C-944D4D917665";
name = Back;
shapes = (
{
closed = 1;
nodes = (
(302.246,297.852,o),
(306.396,241.455,o),
(310.547,185.059,o),
(314.941,127.93,q),
(241.699,0,l),
(228.516,194.824,l),
(197.266,158.691,o),
(156.738,137.207,qs),
(122.07,118.652,o),
(81.787,107.91,o),
(41.504,97.168,o),
(0,86.914,q),
(17.578,220.215,l),
(79.59,210.938,o),
(171.875,251.465,qs),
(267.471,293.446,o),
(289.062,344.727,qs),
(293.278,354.738,o),
(299.316,357.422,qs),
(303.711,359.375,o),
(303.711,354.492,qs)
);
}
);
width = 241;
},
{
associatedMasterId = "EF321139-F770-433D-B2B6-C3EFA1B16465";
layerId = "F3EAEA8F-66A9-486E-91BE-03B782064664";
name = Back;
shapes = (
{
closed = 1;
nodes = (
(308.105,347.656,o),
(307.861,341.553,o),
(307.617,335.449,o),
(307.617,329.102,qs),
(307.617,288.574,o),
(309.814,251.465,o),
(312.012,214.355,o),
(315.43,173.828,qs),
(317.871,142.09,l),
(246.582,6.348,ls),
(244.141,1.953,o),
(240.723,0.488,o),
(237.305,-0.977,o),
(233.887,-0.244,o),
(230.469,0.488,o),
(227.783,3.418,o),
(225.098,6.348,o),
(224.609,10.742,qs),
(213.379,172.852,l),
(200.684,160.645,o),
(187.5,151.367,o),
(174.316,142.09,o),
(159.668,133.789,q),
(129.883,118.652,o),
(94.238,107.91,o),
(58.594,97.168,o),
(23.438,88.867,qs),
(5.371,84.473,ls),
(-0.977,82.52,o),
(-5.615,86.426,o),
(-10.254,90.332,o),
(-9.277,97.168,qs),
(7.812,226.074,ls),
(8.789,230.957,o),
(12.451,234.131,o),
(16.113,237.305,o),
(20.996,236.328,qs),
(26.855,235.352,o),
(32.471,234.863,o),
(38.086,234.375,o),
(43.457,234.375,qs),
(92.773,234.375,o),
(164.062,265.625,qs),
(248.047,302.246,o),
(270.996,350.098,q),
(270.996,349.121,l),
(275.879,361.328,o),
(286.133,367.676,q),
(308.105,378.418,o),
(308.105,354.492,qs)
);
}
);
width = 241;
}
);
},
{
glyphname = "behDotless-ar.medi.ragaa";
layers = (
{
anchors = (
{
name = bottom;
pos = (206,-255);
},
{
name = bottom.mark;
pos = (206,-255);
},
{
name = entry;
pos = (285,91);
},
{
name = exit;
},
{
name = top;
pos = (247,494);
},
{
name = top.mark;
pos = (247,537);
}
);
layerId = "1467EB51-6BD4-4CFC-AEAA-3E4EB1A95CFA";
shapes = (
{
closed = 1;
nodes = (
(231,132,o),
(209,153,o),
(179,141,cs),
(153,131,o),
(130,112,o),
(107,82,cs),
(84,52,o),
(64,25,o),
(47,1,c),
(47,0,l),
(0,32,l),
(5,46,o),
(19,71,o),
(42,105,cs),
(65,139,o),
(83,163,o),
(94,176,cs),
(116,201,o),
(141,223,o),
(169,241,cs),
(197,259,o),
(230,269,o),
(267,269,cs),
(294,269,o),
(303,242,o),
(315,227,c),
(316,227,o),
(318,226,o),
(321,225,c),
(354,230,l),
(292,96,l),
(282,93,o),
(274,92,o),
(272,91,c),
(254,90,o),
(244,98,o),
(240,114,c)
);
}
);
width = 259;
},
{
anchors = (
{
name = bottom;
pos = (206,-255);
},
{
name = bottom.mark;
pos = (206,-255);
},
{
name = entry;
pos = (285,91);
},
{
name = exit;
},
{
name = top;
pos = (247,494);
},
{
name = top.mark;
pos = (247,537);
}
);
layerId = "EF321139-F770-433D-B2B6-C3EFA1B16465";
shapes = (
{
closed = 1;
nodes = (
(243,87,o),
(228,97,o),
(223,118,c),
(219,125,o),
(207,139,o),
(193,139,cs),
(188,139,o),
(185,139,o),
(181,137,cs),
(159,128,o),
(137,110,o),
(116,84,c),
(116,84,l),
(96,57,o),
(78,33,o),
(59,6,cs),
(56,1,o),
(48,-2,o),
(42,2,cs),
(-4,33,ls),
(-7,35,o),
(-12,42,o),
(-9,48,cs),
(-5,61,o),
(9,86,o),
(33,121,cs),
(70,177,o),
(105,222,o),
(160,256,cs),
(187,274,o),
(219,284,o),
(261,285,cs),
(278,285,o),
(291,278,o),
(300,264,c),
(304,256,o),
(308,250,o),
(314,243,c),
(342,247,ls),
(352,248,o),
(362,240,o),
(356,229,cs),
(296,100,ls),
(295,98,o),
(290,94,o),
(287,93,cs),
(267,88,l)
);
}
);
width = 259;
},
{
associatedMasterId = "1467EB51-6BD4-4CFC-AEAA-3E4EB1A95CFA";
layerId = "02EC1695-E446-47E1-9DF5-A240B2D8D11C";
name = Back;
shapes = (
{
closed = 1;
nodes = (
(232.91,128.418,o),
(216.797,138.916,o),
(200.684,149.414,o),
(179.199,141.113,qs),
(140.625,126.465,o),
(106.689,82.031,o),
(72.754,37.598,o),
(47.363,0.977,q),
(46.875,0,l),
(0,32.227,l),
(7.324,53.711,o),
(42.236,105.225,o),
(77.148,156.738,o),
(93.75,175.781,qs),
(127.441,213.867,o),
(169.434,241.211,o),
(211.426,268.555,o),
(267.09,269.043,qs),
(287.109,269.043,o),
(296.631,253.662,o),
(306.152,238.281,o),
(315.43,226.562,q),
(316.895,226.074,o),
(320.801,225.098,q),
(354.004,229.98,l),
(291.504,96.191,l),
(275.879,92.285,o),
(272.461,91.309,q),
(245.605,90.332,o),
(240.234,113.77,q)
);
}
);
width = 259;
},
{
associatedMasterId = "EF321139-F770-433D-B2B6-C3EFA1B16465";
layerId = "A3CCB06F-3A1C-4D10-9C61-E30AA4ED39F6";
name = Back;
shapes = (
{
closed = 1;
nodes = (
(229.98,86.914,o),
(222.656,118.164,q),
(217.773,126.953,o),
(205.078,135.742,qs),
(202.148,137.207,o),
(199.463,138.184,o),
(196.777,139.16,o),
(193.359,139.16,qs),
(186.035,139.16,o),
(180.664,136.719,qs),
(146.973,123.535,o),
(115.723,84.473,q),
(116.211,84.473,l),
(100.098,62.5,o),
(85.693,43.457,o),
(71.289,24.414,o),
(58.594,5.859,qs),
(56.152,1.465,o),
(50.781,0.488,o),
(45.41,-0.488,o),
(41.504,2.441,qs),
(-3.906,33.203,ls),
(-7.324,35.645,o),
(-8.789,40.039,o),
(-10.254,44.434,o),
(-8.789,47.852,qs),
(-2.441,67.871,o),
(33.203,121.094,qs),
(50.293,146.973,o),
(62.988,164.062,o),
(75.684,181.152,o),
(83.984,190.43,qs),
(101.562,209.961,o),
(120.361,226.562,o),
(139.16,243.164,o),
(159.668,255.859,q),
(181.152,270.02,o),
(206.299,277.1,o),
(231.445,284.18,o),
(260.742,284.668,qs),
(286.133,284.668,o),
(299.805,263.672,q),
(303.223,257.324,o),
(306.641,252.441,o),
(310.059,247.559,o),
(313.965,242.676,q),
(342.285,247.07,ls),
(350.586,248.047,o),
(355.225,242.432,o),
(359.863,236.816,o),
(355.957,229.004,qs),
(295.898,100.098,ls),
(294.922,98.145,o),
(291.992,95.947,o),
(289.062,93.75,o),
(287.109,93.262,qs),
(266.602,87.891,l)
);
}
);
width = 259;
}
);
},
{
glyphname = "behDotless-ar.medi.reh";
layers = (
{
anchors = (
{
name = bottom;
pos = (198,-158);
},
{
name = bottom.mark;
pos = (242,-167);
},
{
name = entry;
pos = (264,22);
},
{
name = exit;
},
{
name = top;
pos = (198,453);
},
{
name = top.mark;
pos = (229,426);
}
);
layerId = "1467EB51-6BD4-4CFC-AEAA-3E4EB1A95CFA";
shapes = (
{
closed = 1;
nodes = (
(280,26,o),
(252,22,o),
(225,18,cs),
(198,14,o),
(186,27,o),
(191,58,c),
(192,69,o),
(178,70,o),
(148,63,cs),
(118,56,o),
(91,49,o),
(70,41,c),
(58,34,o),
(45,24,o),
(34,13,c),
(16,-13,o),
(-6,4,o),
(1,32,c),
(0,34,o),
(10,51,o),
(11,52,cs),
(21,76,o),
(28,103,o),
(40,126,cs),
(51,147,o),
(82,165,o),
(134,181,cs),
(177,194,o),
(260,218,o),
(259,190,c),
(255,159,o),
(279,150,o),
(309,154,c),
(307,31,l)
);
}
);
width = 324;
},
{
anchors = (
{
name = bottom;
pos = (198,-158);
},
{
name = bottom.mark;
pos = (242,-167);
},
{
name = entry;
pos = (264,22);
},
{
name = exit;
},
{
name = top;
pos = (198,453);
},
{
name = top.mark;
pos = (229,426);
}
);
layerId = "EF321139-F770-433D-B2B6-C3EFA1B16465";
shapes = (
{
closed = 1;
nodes = (
(34,3,o),
(21,-9,o),
(3,5,cs),
(-7,13,o),
(-12,23,o),
(-8,42,c),
(-10,51,o),
(-2,58,o),
(1,66,cs),
(11,90,o),
(19,116,o),
(31,139,cs),
(42,162,o),
(74,181,o),
(128,198,cs),
(180,214,o),
(218,222,o),
(242,219,cs),
(258,217,o),
(266,209,o),
(265,194,c),
(262,174,o),
(280,170,o),
(300,173,cs),
(308,174,o),
(313,168,o),
(313,161,cs),
(311,42,ls),
(311,36,o),
(306,31,o),
(301,30,cs),
(222,17,ls),
(186,12,o),
(169,30,o),
(175,67,c),
(175,65,o),
(174,65,o),
(172,65,cs),
(164,65,o),
(156,63,o),
(148,62,c),
(122,55,o),
(97,50,o),
(75,41,c),
(64,34,o),
(54,26,o),
(43,16,c),
(45,18,l)
);
}
);
width = 324;
},
{
associatedMasterId = "1467EB51-6BD4-4CFC-AEAA-3E4EB1A95CFA";
layerId = "325C090F-A401-41EF-942B-5BCE9423AD7C";
name = Back;
shapes = (
{
closed = 1;
nodes = (
(266.113,23.926,o),
(225.098,17.578,o),
(184.082,11.23,o),
(191.406,57.617,q),
(192.871,73.73,o),
(147.705,63.477,o),
(102.539,53.223,o),
(70.312,40.527,q),
(52.734,29.785,o),
(34.668,13.672,q),
(34.18,13.184,l),
(20.508,-6.836,o),
(8.545,2.441,o),
(-3.418,11.719,o),
(1.465,32.227,q),
(0.488,33.691,o),
(4.883,41.016,o),
(9.277,48.34,o),
(10.742,51.758,qs),
(18.066,68.848,o),
(24.414,88.379,o),
(30.762,107.91,o),
(40.039,125.977,qs),
(56.152,157.227,o),
(133.789,181.396,o),
(211.426,205.566,o),
(246.582,202.148,qs),
(259.766,200.684,o),
(259.277,189.941,q),
(256.348,166.992,o),
(271.484,159.18,o),
(286.621,151.367,o),
(309.082,154.297,q),
(307.129,30.762,l)
);
}
);
width = 324;
},
{
associatedMasterId = "EF321139-F770-433D-B2B6-C3EFA1B16465";
layerId = "32352993-7E75-4866-9FAC-58BEEC5F290A";
name = Back;
shapes = (
{
closed = 1;
nodes = (
(311.035,37.598,o),
(308.105,34.18,o),
(305.176,30.762,o),
(301.27,29.785,qs),
(222.168,17.09,ls),
(195.801,13.184,o),
(183.35,26.123,o),
(170.898,39.062,o),
(175.293,67.383,q),
(174.805,64.941,o),
(172.363,64.941,qs),
(167.969,64.941,o),
(161.377,63.965,o),
(154.785,62.988,o),
(147.461,62.012,q),
(147.949,62.012,l),
(126.953,56.641,o),
(108.643,51.514,o),
(90.332,46.387,o),
(75.195,40.527,q),
(68.359,36.133,o),
(60.791,30.029,o),
(53.223,23.926,o),
(43.457,15.625,q),
(44.922,18.066,l),
(34.668,3.418,o),
(24.414,-0.244,o),
(14.16,-3.906,o),
(2.93,4.883,qs),
(-5.371,11.23,o),
(-8.301,20.02,o),
(-11.23,28.809,o),
(-8.301,41.992,q),
(-9.277,47.363,o),
(-6.104,51.758,o),
(-2.93,56.152,o),
(-0.488,61.523,qs),
(0,62.5,o),
(0.488,63.477,o),
(0.977,64.453,o),
(1.465,65.918,qs),
(6.836,78.613,o),
(12.207,93.262,qs),
(16.113,103.516,o),
(20.264,114.746,o),
(24.414,125.977,o),
(30.762,138.672,qs),
(47.852,173.34,o),
(128.418,198.242,qs),
(206.055,222.656,o),
(242.188,218.75,qs),
(266.602,216.309,o),
(265.137,193.848,q),
(263.184,179.688,o),
(273.682,175.049,o),
(284.18,170.41,o),
(299.805,172.852,qs),
(305.664,173.828,o),
(309.326,170.166,o),
(312.988,166.504,o),
(312.988,161.133,qs),
(311.035,41.504,ls)
);
}
);
width = 324;
}
);
},
{
glyphname = "behDotless-ar.medi.sad";
layers = (
{
anchors = (
{
name = bottom;
pos = (435,-149);
},
{
name = bottom.mark;
pos = (448,-167);
},
{
name = entry;
pos = (489,48);
},
{
name = exit;
},
{
name = top;
pos = (532,483);
},
{
name = top.mark;
pos = (541,457);
}
);
layerId = "1467EB51-6BD4-4CFC-AEAA-3E4EB1A95CFA";
shapes = (
{
closed = 1;
nodes = (
(108,333,o),
(111,332,o),
(111,329,cs),
(111,328,o),
(111,327,o),
(110,325,cs),
(83,273,o),
(70,232,o),
(70,203,cs),
(70,191,o),
(73,180,o),
(78,172,cs),
(99,137,o),
(137,129,o),
(194,129,cs),
(314,129,o),
(443,160,o),
(535,192,c),
(555,203,o),
(569,220,o),
(578,241,c),
(580,243,o),
(581,245,o),
(582,245,cs),
(583,245,o),
(583,243,o),
(583,239,cs),
(583,233,o),
(583,230,o),
(582,228,cs),
(575,205,o),
(564,175,o),
(549,140,cs),
(534,105,o),
(514,75,o),
(489,48,c),
(489,48,ls),
(486,48,o),
(485,50,o),
(485,54,cs),
(485,57,o),
(486,60,o),
(487,65,c),
(438,44,o),
(353,28,o),
(287,17,cs),
(230,8,o),
(178,0,o),
(118,0,cs),
(58,0,o),
(14,15,o),
(5,56,cs),
(3,67,o),
(1,78,o),
(1,90,cs),
(1,110,o),
(5,132,o),
(12,154,cs),
(23,190,o),
(37,224,o),
(57,258,cs),
(77,292,o),
(92,315,o),
(102,330,cs),
(103,332,o),
(104,333,o),
(106,333,cs)
);
}
);
width = 488;
},
{
anchors = (
{
name = bottom;
pos = (435,-149);
},
{
name = bottom.mark;
pos = (448,-167);
},
{
name = entry;
pos = (477,46);
},
{
name = exit;
},
{
name = top;
pos = (532,483);
},
{
name = top.mark;
pos = (541,457);
}
);
layerId = "EF321139-F770-433D-B2B6-C3EFA1B16465";
shapes = (
{
closed = 1;
nodes = (
(118,345,o),
(124,340,o),
(124,330,cs),
(124,327,o),
(124,326,o),
(123,324,cs),
(97,273,o),
(84,234,o),
(84,208,cs),
(84,198,o),
(86,191,o),
(90,185,cs),
(105,160,o),
(136,148,o),
(180,148,cs),
(186,148,o),
(186,148,o),
(193,148,cs),
(245,148,o),
(296,156,o),
(344,164,c),
(403,176,o),
(464,190,o),
(517,208,c),
(533,218,o),
(545,232,o),
(553,250,c),
(556,255,o),
(560,260,o),
(567,260,cs),
(576,260,o),
(580,254,o),
(580,243,cs),
(580,221,o),
(572,208,o),
(565,189,cs),
(545,137,o),
(522,87,o),
(486,50,cs),
(485,49,o),
(479,46,o),
(477,46,cs),
(469,46,o),
(464,50,o),
(462,57,c),
(376,27,o),
(273,11,o),
(168,2,cs),
(151,1,o),
(136,0,o),
(119,0,cs),
(37,0,o),
(-5,24,o),
(-5,99,cs),
(-5,147,o),
(9,182,o),
(24,217,cs),
(31,235,o),
(41,251,o),
(50,267,cs),
(65,293,o),
(81,318,o),
(97,341,cs),
(99,344,o),
(102,345,o),
(108,345,cs)
);
}
);
width = 488;
},
{
associatedMasterId = "1467EB51-6BD4-4CFC-AEAA-3E4EB1A95CFA";
layerId = "1FD10A37-0816-4168-BCEB-1CAD50666263";
name = Back;
shapes = (
{
closed = 1;
nodes = (
(564.453,208.984,o),
(577.637,241.211,q),
(580.078,244.629,o),
(581.543,244.629,qs),
(583.008,244.629,o),
(583.008,239.258,qs),
(583.008,229.98,o),
(582.031,227.539,qs),
(570.801,192.383,o),
(548.828,140.137,o),
(526.855,87.891,o),
(489.258,47.852,q),
(488.77,47.852,ls),
(484.863,47.852,o),
(484.863,53.711,qs),
(484.863,58.105,o),
(486.816,65.43,q),
(458.008,53.223,o),
(403.076,40.039,o),
(348.145,26.855,o),
(286.865,16.846,o),
(225.586,6.836,o),
(168.457,2.441,qs),
(140.137,0.488,o),
(117.676,0.488,qs),
(95.215,0.488,o),
(78.613,2.441,qs),
(14.648,11.719,o),
(4.883,56.152,qs),
(1.465,72.266,o),
(1.465,90.332,qs),
(1.465,120.117,o),
(11.719,153.809,qs),
(27.832,207.52,o),
(57.129,257.812,o),
(86.426,308.105,o),
(102.051,330.078,qs),
(104.004,332.52,o),
(106.445,332.52,qs),
(107.422,332.52,o),
(108.887,332.031,qs),
(110.84,331.543,o),
(110.84,329.102,qs),
(110.84,327.637,o),
(109.863,325.195,qs),
(69.824,246.582,o),
(69.824,203.125,qs),
(69.824,184.57,o),
(77.637,172.363,qs),
(102.051,131.836,o),
(166.504,129.883,qs),
(180.176,129.395,o),
(194.336,129.395,qs),
(269.531,129.395,o),
(353.027,145.02,qs),
(451.66,163.574,o),
(535.156,192.383,q)
);
}
);
width = 488;
},
{
associatedMasterId = "EF321139-F770-433D-B2B6-C3EFA1B16465";
layerId = "FFEBF932-CBAB-41E5-A93D-1AEEEF8BE25C";
name = Back;
shapes = (
{
closed = 1;
nodes = (
(364.746,167.969,o),
(387.695,173.096,o),
(410.645,178.223,o),
(433.594,184.082,o),
(456.543,189.941,o),
(478.027,196.289,o),
(499.512,202.637,o),
(517.09,208.496,q),
(541.016,223.145,o),
(552.734,250,q),
(556.152,255.371,o),
(559.814,257.568,o),
(563.477,259.766,o),
(566.895,259.766,qs),
(580.078,259.766,o),
(580.078,243.164,qs),
(580.078,236.816,o),
(579.59,233.154,o),
(579.102,229.492,o),
(578.613,228.027,q),
(578.613,228.516,l),
(573.242,210.449,o),
(564.941,188.965,o),
(556.641,167.48,o),
(545.898,142.578,qs),
(534.668,116.211,o),
(520.02,93.262,o),
(505.371,70.312,o),
(485.84,49.805,qs),
(484.863,48.828,o),
(481.689,47.607,o),
(478.516,46.387,o),
(477.051,46.387,qs),
(464.355,46.387,o),
(461.914,57.129,q),
(449.219,52.734,o),
(433.105,48.34,o),
(416.992,43.945,o),
(396.973,39.062,qs),
(370.605,32.715,o),
(342.041,26.855,o),
(313.477,20.996,o),
(283.691,16.113,qs),
(254.395,11.23,o),
(225.342,8.057,o),
(196.289,4.883,o),
(168.457,2.441,qs),
(154.785,1.465,o),
(142.334,0.977,o),
(129.883,0.488,o),
(118.652,0.488,qs),
(106.445,0.488,o),
(96.924,0.977,o),
(87.402,1.465,o),
(79.102,2.441,qs),
(9.766,11.719,o),
(-1.465,63.477,q),
(-1.465,62.988,l),
(-3.906,72.266,o),
(-4.639,81.055,o),
(-5.371,89.844,o),
(-5.371,99.121,qs),
(-5.371,105.957,o),
(-4.639,114.258,o),
(-3.906,122.559,o),
(-2.441,131.104,o),
(-0.977,139.648,o),
(0.977,147.949,o),
(2.93,156.25,o),
(4.883,163.574,qs),
(13.184,189.941,o),
(24.414,216.797,o),
(35.645,243.652,o),
(49.805,267.09,q),
(62.5,289.062,o),
(74.463,307.617,o),
(86.426,326.172,o),
(96.68,340.82,qs),
(99.609,344.727,o),
(107.91,344.727,qs),
(108.887,344.727,o),
(110.596,344.482,o),
(112.305,344.238,o),
(115.234,343.262,qs),
(113.77,343.75,ls),
(119.629,342.285,o),
(121.826,338.623,o),
(124.023,334.961,o),
(124.023,329.59,qs),
(124.023,327.148,o),
(123.779,325.928,o),
(123.535,324.707,o),
(123.047,323.73,qs),
(83.984,247.07,o),
(83.984,208.008,qs),
(83.984,193.359,o),
(89.844,184.57,qs),
(109.863,151.367,o),
(166.504,148.926,qs),
(173.34,148.438,o),
(179.688,148.438,o),
(186.035,148.438,o),
(192.871,148.438,qs),
(228.027,148.438,o),
(266.113,152.588,o),
(304.199,156.738,o),
(343.75,163.574,q)
);
}
);
width = 488;
}
);
},
{
glyphname = "behDotless-ar.medi.yeh";
layers = (
{
anchors = (
{
name = bottom;
pos = (321,-110);
},
{
name = bottom.mark;
pos = (294,-123);
},
{
name = entry;
pos = (286,92);
},
{
name = exit;
pos = (10,0);
},
{
name = top;
pos = (242,470);
},
{
name = top.mark;
pos = (242,483);
}
);
layerId = "1467EB51-6BD4-4CFC-AEAA-3E4EB1A95CFA";
shapes = (
{
closed = 1;
nodes = (
(282,264,l),
(297,256,o),
(304,237,o),
(314,225,c),
(318,224,o),
(319,224,o),
(319,224,c),
(353,229,l),
(291,94,l),
(283,92,o),
(276,91,o),
(271,90,c),
(254,89,o),
(243,96,o),
(239,112,c),
(232,127,o),
(221,137,o),
(208,141,c),
(208,141,l),
(208,142,l),
(198,146,o),
(188,145,o),
(177,141,cs),
(110,115,o),
(60,55,o),
(21,0,c),
(0,7,l),
(28,91,o),
(73,158,o),
(131,213,cs),
(164,245,o),
(204,263,o),
(249,268,cs),
(263,270,o),
(274,269,o),
(282,265,c),
(281,264,l)
);
}
);
width = 258;
},
{
anchors = (
{
name = bottom;
pos = (321,-110);
},
{
name = bottom.mark;
pos = (294,-123);
},
{
name = entry;
pos = (286,92);
},
{
name = exit;
pos = (10,0);
},
{
name = top;
pos = (242,470);
},
{
name = top.mark;
pos = (242,483);
}
);
layerId = "EF321139-F770-433D-B2B6-C3EFA1B16465";
shapes = (
{
closed = 1;
nodes = (
(185,139,o),
(182,139,o),
(179,137,cs),
(151,127,o),
(124,108,o),
(99,83,cs),
(74,58,o),
(53,33,o),
(33,5,cs),
(30,2,o),
(26,-1,o),
(20,0,cs),
(0,7,ls),
(-5,9,o),
(-10,15,o),
(-8,22,cs),
(7,68,o),
(27,109,o),
(54,146,cs),
(74,173,o),
(98,203,o),
(122,226,cs),
(156,259,o),
(196,278,o),
(242,282,cs),
(258,284,o),
(271,282,o),
(281,277,c),
(296,268,o),
(304,254,o),
(313,240,c),
(342,245,ls),
(350,246,o),
(358,238,o),
(355,229,c),
(377,222,o),
(381,218,o),
(350,217,c),
(295,98,ls),
(294,96,o),
(290,92,o),
(287,91,cs),
(266,87,l),
(244,87,o),
(230,96,o),
(223,117,c),
(217,127,o),
(205,139,o),
(190,139,cs)
);
}
);
width = 258;
},
{
associatedMasterId = "1467EB51-6BD4-4CFC-AEAA-3E4EB1A95CFA";
layerId = "34145D71-C743-4234-AFE3-AAB780D7449C";
name = Back;
shapes = (
{
closed = 1;
nodes = (
(193.359,146.973,o),
(177.246,140.625,qs),
(128.906,122.07,o),
(90.576,83.008,o),
(52.246,43.945,o),
(21.484,0,q),
(21.484,0,l),
(0,7.324,l),
(0,7.324,l),
(8.301,32.227,o),
(18.555,56.641,o),
(28.809,81.055,o),
(44.434,105.957,qs),
(81.055,165.527,o),
(131.104,213.135,o),
(181.152,260.742,o),
(248.535,267.578,qs),
(269.531,270.02,o),
(281.738,264.648,q),
(281.25,263.672,l),
(281.25,263.672,o),
(281.494,263.672,o),
(281.738,263.672,o),
(281.738,263.672,q),
(292.969,257.324,o),
(299.805,245.605,o),
(306.641,233.887,o),
(313.965,225.098,q),
(319.824,223.633,o),
(319.336,223.633,qs),
(352.539,228.516,l),
(290.527,94.238,l),
(277.832,91.309,o),
(270.996,89.844,q),
(245.117,88.867,o),
(238.77,112.305,q),
(228.027,134.277,o),
(208.008,140.625,q),
(207.52,141.113,l),
(208.008,141.602,l)
);
}
);
width = 258;
},
{
associatedMasterId = "EF321139-F770-433D-B2B6-C3EFA1B16465";
layerId = "CA259560-C970-49BD-BDA5-EB709C11FC05";
name = Back;
shapes = (
{
closed = 1;
nodes = (
(197.266,137.695,o),
(196.777,138.184,qs),
(194.824,138.672,o),
(193.359,138.916,o),
(191.895,139.16,o),
(190.43,139.16,qs),
(183.594,139.16,o),
(178.711,136.719,q),
(136.719,121.094,o),
(99.121,83.496,qs),
(79.59,63.965,o),
(63.477,44.678,o),
(47.363,25.391,o),
(33.203,5.371,qs),
(30.762,2.441,o),
(27.344,0.977,o),
(23.926,-0.488,o),
(20.02,0.488,qs),
(-0.488,7.324,ls),
(-5.371,9.277,o),
(-7.568,13.672,o),
(-9.766,18.066,o),
(-8.301,22.461,qs),
(-0.488,45.898,o),
(10.01,70.557,o),
(20.508,95.215,o),
(36.133,120.117,qs),
(43.945,132.324,o),
(54.443,146.484,o),
(64.941,160.645,o),
(76.172,175.049,o),
(87.402,189.453,o),
(99.121,202.637,o),
(110.84,215.82,o),
(121.582,226.074,qs),
(173.34,275.879,o),
(242.188,282.227,q),
(241.699,282.227,l),
(266.113,284.668,o),
(281.25,276.855,q),
(290.527,271.484,o),
(296.631,263.916,o),
(302.734,256.348,o),
(308.105,248.047,qs),
(312.988,240.234,l),
(342.285,244.629,ls),
(349.121,245.605,o),
(353.271,240.479,o),
(357.422,235.352,o),
(354.98,229.004,q),
(371.582,223.633,o),
(372.07,220.459,o),
(372.559,217.285,o),
(349.609,216.797,q),
(294.922,98.145,ls),
(293.945,96.191,o),
(291.26,93.994,o),
(288.574,91.797,o),
(286.621,91.309,qs),
(266.113,86.914,l),
(232.422,86.426,o),
(222.656,117.188,q),
(218.262,124.023,o),
(212.646,129.15,o),
(207.031,134.277,o),
(199.707,136.719,qs)
);
}
);
width = 258;
}
);
},
{
glyphname = "behDotless-ar.init";
layers = (
{
anchors = (
{
name = bottom;
pos = (189,-136);
},
{
name = bottom.mark;
pos = (149,-171);
},
{
name = exit;
},
{
name = top;
pos = (218,496);
},
{
name = top.mark;
pos = (193,527);
}
);
layerId = "1467EB51-6BD4-4CFC-AEAA-3E4EB1A95CFA";
shapes = (
{
closed = 1;
nodes = (
(282,310,o),
(286,209,o),
(244,140,cs),
(210,83,o),
(169,37,o),
(103,18,cs),
(75,10,o),
(40,4,o),
(0,0,c),
(22,125,l),
(23,125,l),
(75,131,o),
(113,138,o),
(137,144,cs),
(161,150,o),
(182,159,o),
(201,172,c),
(201,186,o),
(192,222,o),
(175,280,c),
(252,393,l)
);
}
);
width = 294;
},
{
anchors = (
{
name = bottom;
pos = (189,-136);
},
{
name = bottom.mark;
pos = (149,-171);
},
{
name = exit;
},
{
name = top;
pos = (218,496);
},
{
name = top.mark;
pos = (193,527);
}
);
layerId = "EF321139-F770-433D-B2B6-C3EFA1B16465";
shapes = (
{
closed = 1;
nodes = (
(139,22,o),
(78,7,o),
(3,0,cs),
(-5,-1,o),
(-10,6,o),
(-9,14,cs),
(13,134,ls),
(14,139,o),
(18,144,o),
(23,145,cs),
(106,155,o),
(138,155,o),
(185,184,c),
(180,215,o),
(170,243,o),
(160,279,cs),
(159,282,o),
(161,288,o),
(162,289,cs),
(236,398,ls),
(242,407,o),
(254,406,o),
(257,396,cs),
(273,351,o),
(281,305,o),
(280,260,cs),
(279,214,o),
(269,174,o),
(248,141,cs),
(229,110,o),
(208,82,o),
(182,60,cs)
);
}
);
width = 294;
},
{
associatedMasterId = "1467EB51-6BD4-4CFC-AEAA-3E4EB1A95CFA";
layerId = "FF4770E9-5C2F-4FF2-9BA4-B137CE62969F";
name = Back;
shapes = (
{
closed = 1;
nodes = (
(214.355,90.82,o),
(177.734,59.082,qs),
(145.508,30.762,o),
(102.783,18.311,o),
(60.059,5.859,o),
(0,0,q),
(21.973,125,l),
(22.949,125,l),
(101.562,134.277,o),
(137.451,143.555,o),
(173.34,152.832,o),
(201.172,171.875,q),
(200.684,192.383,o),
(175.293,279.785,q),
(251.953,393.066,l),
(276.367,325.684,o),
(275.146,257.568,o),
(273.926,189.453,o),
(244.141,140.137,o)
);
}
);
width = 294;
},
{
associatedMasterId = "EF321139-F770-433D-B2B6-C3EFA1B16465";
layerId = "43E97B70-EC7C-4463-B449-ACAA905898FA";
name = Back;
shapes = (
{
closed = 1;
nodes = (
(165.039,45.41,o),
(146.484,35.4,o),
(127.93,25.391,o),
(105.957,18.555,o),
(83.984,11.719,o),
(58.594,7.324,o),
(33.203,2.93,o),
(3.418,0,qs),
(-2.93,-0.977,o),
(-6.592,3.418,o),
(-10.254,7.812,o),
(-9.277,13.672,qs),
(12.695,134.277,ls),
(13.672,138.184,o),
(16.602,141.113,o),
(19.531,144.043,o),
(22.949,144.531,qs),
(99.609,153.32,o),
(131.836,161.621,qs),
(145.508,165.527,o),
(159.424,171.387,o),
(173.34,177.246,o),
(184.57,184.082,q),
(182.617,195.801,o),
(176.514,219.238,o),
(170.41,242.676,o),
(160.156,278.809,qs),
(159.668,280.762,o),
(160.156,284.18,o),
(160.645,287.598,o),
(161.621,288.574,qs),
(235.84,398.438,ls),
(240.234,404.785,o),
(247.559,403.809,o),
(254.883,402.832,o),
(257.324,395.508,qs),
(281.25,327.637,o),
(279.785,259.766,q),
(278.809,190.918,o),
(248.047,141.113,qs),
(232.91,116.211,o),
(216.553,95.947,o),
(200.195,75.684,o),
(181.641,60.059,q)
);
}
);
width = 294;
}
);
},
{
glyphname = "behDotless-ar.init.ain";
layers = (
{
anchors = (
{
name = bottom;
pos = (303,-163);
},
{
name = bottom.mark;
pos = (334,-171);
},
{
name = exit;
},
{
name = top;
pos = (360,519);
},
{
name = top.mark;
pos = (299,527);
}
);
layerId = "1467EB51-6BD4-4CFC-AEAA-3E4EB1A95CFA";
shapes = (
{
closed = 1;
nodes = (
(446,379,ls),
(449,383,o),
(452,370,o),
(459,340,cs),
(466,310,o),
(469,288,o),
(467,272,cs),
(455,172,o),
(401,86,o),
(323,46,c),
(286,26,o),
(242,12,o),
(191,6,cs),
(140,0,o),
(95,-2,o),
(56,2,cs),
(28,5,o),
(1,20,o),
(0,49,c),
(13,99,o),
(26,141,o),
(39,176,c),
(52,129,o),
(127,124,o),
(191,129,cs),
(257,134,o),
(342,154,o),
(389,174,c),
(390,195,o),
(383,226,o),
(369,266,c)
);
}
);
width = 492;
},
{
anchors = (
{
name = bottom;
pos = (303,-163);
},
{
name = bottom.mark;
pos = (334,-171);
},
{
name = exit;
},
{
name = top;
pos = (360,519);
},
{
name = top.mark;
pos = (299,527);
}
);
layerId = "EF321139-F770-433D-B2B6-C3EFA1B16465";
shapes = (
{
closed = 1;
nodes = (
(441,409,o),
(454,364,o),
(459,343,cs),
(466,312,o),
(469,289,o),
(467,273,cs),
(456,175,o),
(400,85,o),
(322,46,cs),
(265,17,o),
(190,0,o),
(105,0,cs),
(49,0,o),
(-6,6,o),
(-8,60,c),
(4,105,o),
(16,148,o),
(31,187,cs),
(33,191,o),
(36,194,o),
(42,194,cs),
(48,194,o),
(51,191,o),
(53,186,cs),
(62,153,o),
(114,147,o),
(160,147,cs),
(167,147,o),
(167,147,o),
(174,147,cs),
(216,147,o),
(257,155,o),
(292,165,c),
(323,173,o),
(348,180,o),
(368,188,c),
(366,215,o),
(359,239,o),
(349,265,cs),
(348,268,o),
(350,273,o),
(351,275,cs),
(425,385,ls)
);
}
);
width = 492;
},
{
associatedMasterId = "1467EB51-6BD4-4CFC-AEAA-3E4EB1A95CFA";
layerId = "8A7C40D7-89D7-4D4D-BDA4-063E0C9C6FBA";
name = Back;
shapes = (
{
closed = 1;
nodes = (
(445.801,379.395,ls),
(449.707,384.766,o),
(459.473,340.088,o),
(469.238,295.41,o),
(466.797,271.973,qs),
(455.566,175.293,o),
(397.949,106.445,qs),
(365.234,67.383,o),
(323.242,45.898,q),
(267.09,15.625,o),
(190.918,6.104,o),
(114.746,-3.418,o),
(56.152,2.441,qs),
(35.156,4.395,o),
(18.066,15.625,o),
(0.977,26.855,o),
(0,48.828,q),
(19.043,123.535,o),
(39.062,176.27,q),
(48.34,144.043,o),
(92.041,134.277,o),
(135.742,124.512,o),
(190.918,128.662,o),
(246.094,132.812,o),
(301.514,146.484,o),
(356.934,160.156,o),
(389.648,174.316,q),
(389.16,174.316,l),
(390.137,206.055,o),
(369.141,266.113,q)
);
}
);
width = 492;
},
{
associatedMasterId = "EF321139-F770-433D-B2B6-C3EFA1B16465";
layerId = "AAA99DF0-84D3-49D0-9311-82FCF89AB5D7";
name = Back;
shapes = (
{
closed = 1;
nodes = (
(433.105,397.461,o),
(442.383,387.207,o),
(451.66,376.953,o),
(459.473,342.773,q),
(469.238,296.387,o),
(466.797,272.949,qs),
(456.543,177.246,o),
(397.461,106.934,qs),
(364.746,67.383,o),
(321.289,45.898,q),
(321.777,45.898,l),
(294.434,31.738,o),
(260.254,21.484,o),
(226.074,11.23,o),
(189.941,5.859,qs),
(167.969,2.93,o),
(146.484,1.465,o),
(125,0,o),
(105.469,0,qs),
(92.285,0,o),
(80.078,0.732,o),
(67.871,1.465,o),
(56.641,2.441,qs),
(33.691,4.883,o),
(14.648,17.09,qs),
(-6.836,30.762,o),
(-7.812,60.059,q),
(1.953,97.168,o),
(11.475,128.662,o),
(20.996,160.156,o),
(30.762,186.523,qs),
(32.227,190.43,o),
(35.645,192.383,o),
(39.062,194.336,o),
(42.48,194.336,o),
(45.898,194.336,o),
(48.828,192.139,o),
(51.758,189.941,o),
(53.223,185.547,qs),
(59.57,161.133,o),
(95.215,152.832,qs),
(109.375,149.902,o),
(125.732,148.438,o),
(142.09,146.973,o),
(159.668,146.973,qs),
(166.504,146.973,o),
(173.584,146.973,o),
(180.664,146.973,o),
(187.988,147.461,qs),
(214.355,149.902,o),
(240.723,153.809,o),
(267.09,157.715,o),
(291.992,164.551,q),
(338.379,176.27,o),
(368.164,188.477,q),
(367.188,202.148,o),
(362.793,221.191,o),
(358.398,240.234,o),
(349.121,265.137,qs),
(348.145,267.09,o),
(348.877,270.264,o),
(349.609,273.438,o),
(350.586,275.391,qs),
(424.805,385.254,ls)
);
}
);
width = 492;
}
);
},
{
glyphname = "behDotless-ar.init.ascend";
layers = (
{
anchors = (
{
name = bottom;
pos = (163,-136);
},
{
name = bottom.mark;
pos = (145,-145);
},
{
name = exit;
},
{
name = top;
pos = (211,422);
},
{
name = top.mark;
pos = (198,422);
}
);
layerId = "1467EB51-6BD4-4CFC-AEAA-3E4EB1A95CFA";
shapes = (
{
closed = 1;
nodes = (
(301,215,o),
(291,179,o),
(274,136,cs),
(257,93,o),
(233,61,o),
(201,43,cs),
(161,20,o),
(94,6,o),
(0,0,c),
(18,134,l),
(120,139,o),
(187,148,o),
(221,160,cs),
(255,172,o),
(281,201,o),
(298,247,c),
(301,245,l)
);
}
);
width = 313;
},
{
anchors = (
{
name = bottom;
pos = (163,-136);
},
{
name = bottom.mark;
pos = (145,-145);
},
{
name = exit;
},
{
name = top;
pos = (211,422);
},
{
name = top.mark;
pos = (198,422);
}
);
layerId = "EF321139-F770-433D-B2B6-C3EFA1B16465";
shapes = (
{
closed = 1;
nodes = (
(284,267,o),
(305,260,o),
(305,249,cs),
(304,208,o),
(292,174,o),
(278,139,cs),
(260,94,o),
(235,62,o),
(202,43,c),
(203,43,l),
(164,21,o),
(97,7,o),
(3,0,cs),
(-4,-1,o),
(-10,6,o),
(-9,13,c),
(5,143,ls),
(6,148,o),
(12,152,o),
(17,153,cs),
(66,156,o),
(106,159,o),
(139,163,cs),
(172,167,o),
(196,171,o),
(212,177,c),
(244,190,o),
(266,219,o),
(279,254,cs)
);
}
);
width = 313;
},
{
associatedMasterId = "1467EB51-6BD4-4CFC-AEAA-3E4EB1A95CFA";
layerId = "5DB3620D-6914-4A26-A106-95643619917E";
name = Back;
shapes = (
{
closed = 1;
nodes = (
(300.293,200.684,o),
(274.17,135.742,o),
(248.047,70.801,o),
(200.684,43.457,qs),
(141.113,9.277,o),
(0,0,q),
(0,0,l),
(18.343,134.44,l),
(170.938,142.274,o),
(221.436,159.912,qs),
(272.461,177.734,o),
(297.852,246.582,q),
(300.781,245.117,l)
);
}
);
width = 313;
},
{
associatedMasterId = "EF321139-F770-433D-B2B6-C3EFA1B16465";
layerId = "5FD277FB-07E6-4D65-989C-62E4A3B9F024";
name = Back;
shapes = (
{
closed = 1;
nodes = (
(300.781,257.812,o),
(302.979,254.639,o),
(305.176,251.465,o),
(305.176,248.535,qs),
(304.688,225.586,o),
(297.852,198.486,o),
(291.016,171.387,o),
(277.832,138.672,qs),
(251.465,71.777,o),
(202.148,43.457,q),
(202.637,43.457,l),
(144.043,9.766,o),
(3.418,0,qs),
(-1.953,-0.488,o),
(-6.104,3.662,o),
(-10.254,7.812,o),
(-9.277,13.184,qs),
(5.371,143.066,ls),
(5.859,146.973,o),
(9.277,149.902,o),
(12.695,152.832,o),
(16.602,153.32,qs),
(89.844,157.227,o),
(138.916,163.086,o),
(187.988,168.945,o),
(212.402,177.246,q),
(233.398,185.547,o),
(250.732,205.078,o),
(268.066,224.609,o),
(279.297,254.395,qs),
(281.25,259.277,o),
(285.889,260.986,o),
(290.527,262.695,o),
(295.41,260.254,q),
(298.34,259.277,l)
);
}
);
width = 313;
}
);
},
{
glyphname = "behDotless-ar.init.dal";
layers = (
{
anchors = (
{
name = bottom;
pos = (171,-154);
},
{
name = bottom.mark;
pos = (220,-145);
},
{
name = exit;
},
{
name = top;
pos = (213,409);
},
{
name = top.mark;
pos = (316,409);
}
);
layerId = "1467EB51-6BD4-4CFC-AEAA-3E4EB1A95CFA";
shapes = (
{
closed = 1;
nodes = (
(352,90,o),
(164,-46,o),
(38,15,cs),
(-30,48,o),
(5,159,o),
(48,215,cs),
(50,218,o),
(51,216,o),
(51,215,cs),
(45,184,o),
(57,148,o),
(84,141,cs),
(177,117,o),
(321,170,o),
(352,255,cs),
(353,257,o),
(355,256,o),
(355,253,cs)
);
}
);
width = 373;
},
{
anchors = (
{
name = bottom;
pos = (171,-154);
},
{
name = bottom.mark;
pos = (220,-145);
},
{
name = exit;
},
{
name = top;
pos = (213,409);
},
{
name = top.mark;
pos = (316,409);
}
);
layerId = "EF321139-F770-433D-B2B6-C3EFA1B16465";
shapes = (
{
closed = 1;
nodes = (
(354,273,o),
(358,265,o),
(358,256,cs),
(358,256,l),
(357,214,o),
(346,174,o),
(324,139,c),
(324,139,l),
(303,104,o),
(278,74,o),
(245,50,c),
(208,24,o),
(164,0,o),
(104,0,cs),
(80,0,o),
(57,5,o),
(35,16,cs),
(5,31,o),
(-10,55,o),
(-10,89,cs),
(-10,100,o),
(-9,108,o),
(-6,117,c),
(3,162,o),
(19,199,o),
(40,227,c),
(40,226,l),
(42,230,o),
(47,233,o),
(52,233,cs),
(64,233,o),
(64,228,o),
(64,217,c),
(63,212,o),
(62,209,o),
(62,205,cs),
(62,185,o),
(71,162,o),
(87,160,c),
(101,156,o),
(117,154,o),
(134,154,cs),
(165,154,o),
(197,161,o),
(232,175,cs),
(285,195,o),
(319,224,o),
(333,262,cs),
(335,267,o),
(340,273,o),
(346,273,cs)
);
}
);
width = 373;
},
{
associatedMasterId = "1467EB51-6BD4-4CFC-AEAA-3E4EB1A95CFA";
layerId = "2D77083B-B9E8-405F-A8ED-973CF3D29264";
name = Back;
shapes = (
{
closed = 1;
nodes = (
(354.004,191.406,o),
(322.021,138.184,o),
(290.039,84.961,o),
(242.676,49.805,o),
(195.312,14.648,o),
(140.137,3.906,qs),
(122.07,0,o),
(104.98,0,qs),
(69.336,0,o),
(38.086,15.137,qs),
(-1.465,34.668,o),
(-1.465,79.59,qs),
(-1.465,91.797,o),
(1.953,106.445,qs),
(15.625,172.363,o),
(47.852,214.844,qs),
(49.316,217.285,o),
(50.293,217.285,qs),
(50.781,217.285,o),
(50.781,214.844,qs),
(49.316,207.031,o),
(49.316,199.707,qs),
(49.316,184.082,o),
(55.664,168.945,q),
(64.453,145.996,o),
(84.473,141.602,q),
(108.887,135.254,o),
(135.254,135.254,qs),
(184.57,135.254,o),
(241.211,157.227,qs),
(328.613,190.43,o),
(352.051,254.395,qs),
(353.516,258.301,o),
(354.492,258.301,qs),
(355.469,258.301,o),
(355.469,252.93,qs)
);
}
);
width = 373;
},
{
associatedMasterId = "EF321139-F770-433D-B2B6-C3EFA1B16465";
layerId = "E52B9AA8-4691-4C21-92D8-15BC3E14B5DD";
name = Back;
shapes = (
{
closed = 1;
nodes = (
(356.934,192.383,o),
(323.73,139.16,q),
(324.219,139.16,l),
(293.457,86.426,o),
(244.629,50.293,q),
(219.727,32.715,o),
(194.092,20.996,o),
(168.457,9.277,o),
(140.625,3.906,qs),
(131.836,1.953,o),
(123.047,0.977,o),
(114.258,0,o),
(104.492,0,qs),
(68.359,0,o),
(34.668,16.113,qs),
(-10.254,38.086,o),
(-10.254,88.867,qs),
(-10.254,95.215,o),
(-9.521,102.295,o),
(-8.789,109.375,o),
(-6.348,117.676,q),
(-6.348,117.188,l),
(7.812,184.082,o),
(39.551,226.562,q),
(39.551,226.074,l),
(41.992,229.98,o),
(45.41,231.689,o),
(48.828,233.398,o),
(51.758,233.398,qs),
(61.035,233.398,o),
(62.5,229.004,o),
(63.965,224.609,o),
(63.965,217.285,q),
(62.5,209.961,o),
(62.5,204.59,qs),
(62.5,191.895,o),
(67.383,179.199,qs),
(74.219,162.109,o),
(87.402,160.156,q),
(108.398,154.297,o),
(133.789,154.297,qs),
(179.688,154.297,o),
(231.934,174.805,qs),
(311.035,205.078,o),
(332.52,261.719,qs),
(334.473,267.09,o),
(338.379,270.02,o),
(342.285,272.949,o),
(345.703,272.949,qs),
(350.098,272.949,o),
(354.248,268.799,o),
(358.398,264.648,o),
(358.398,256.348,qs),
(358.398,255.859,l)
);
}
);
width = 373;
}
);
},
{
glyphname = "behDotless-ar.init.feh";
layers = (
{
anchors = (
{
name = bottom;
pos = (356,-141);
},
{
name = bottom.mark;
pos = (413,-114);
},
{
name = exit;
},
{
name = top;
pos = (448,541);
},
{
name = top.mark;
pos = (404,510);
}
);
layerId = "1467EB51-6BD4-4CFC-AEAA-3E4EB1A95CFA";
shapes = (
{
closed = 1;
nodes = (
(509,392,ls),
(512,396,o),
(516,383,o),
(523,353,cs),
(530,323,o),
(532,301,o),
(530,285,cs),
(523,221,o),
(500,165,o),
(461,119,c),
(404,53,o),
(333,26,o),
(219,10,cs),
(150,0,o),
(95,-2,o),
(56,2,cs),
(28,5,o),
(1,19,o),
(0,48,c),
(13,98,o),
(26,140,o),
(39,175,c),
(54,123,o),
(149,124,o),
(223,132,cs),
(296,140,o),
(400,164,o),
(452,187,c),
(453,209,o),
(447,240,o),
(433,279,c)
);
}
);
width = 559;
},
{
anchors = (
{
name = bottom;
pos = (356,-141);
},
{
name = bottom.mark;
pos = (413,-114);
},
{
name = exit;
},
{
name = top;
pos = (448,541);
},
{
name = top.mark;
pos = (404,510);
}
);
layerId = "EF321139-F770-433D-B2B6-C3EFA1B16465";
shapes = (
{
closed = 1;
nodes = (
(507,428,o),
(525,341,o),
(528,315,cs),
(529,303,o),
(529,294,o),
(528,286,cs),
(511,148,o),
(433,64,o),
(311,29,cs),
(283,21,o),
(253,15,o),
(218,10,c),
(177,4,o),
(138,0,o),
(96,0,cs),
(43,0,o),
(-5,9,o),
(-7,60,c),
(5,105,o),
(16,147,o),
(31,186,cs),
(33,190,o),
(37,193,o),
(43,193,cs),
(49,193,o),
(52,190,o),
(54,185,cs),
(63,151,o),
(116,147,o),
(160,147,cs),
(248,147,o),
(325,167,o),
(393,188,cs),
(408,193,o),
(420,197,o),
(430,201,c),
(428,228,o),
(420,251,o),
(411,277,cs),
(410,280,o),
(412,286,o),
(413,288,cs),
(486,397,ls)
);
}
);
width = 559;
},
{
associatedMasterId = "1467EB51-6BD4-4CFC-AEAA-3E4EB1A95CFA";
layerId = "B1655022-E34F-4B62-95C5-DA9D8B3A7E0A";
name = Back;
shapes = (
{
closed = 1;
nodes = (
(508.789,392.09,ls),
(512.695,397.461,o),
(522.705,352.783,o),
(532.715,308.105,o),
(529.785,284.668,qs),
(519.531,188.477,o),
(461.426,119.141,q),
(428.711,81.543,o),
(386.719,58.594,qs),
(323.73,24.902,o),
(219.482,10.498,o),
(115.234,-3.906,o),
(56.152,1.953,qs),
(35.156,3.906,o),
(18.066,15.137,o),
(0.977,26.367,o),
(0,48.34,q),
(19.043,123.047,o),
(39.062,175.293,q),
(48.828,140.137,o),
(102.539,132.324,o),
(156.25,124.512,o),
(223.389,131.836,o),
(290.527,139.16,o),
(355.469,156.006,o),
(420.41,172.852,o),
(452.637,187.012,q),
(452.148,187.012,l),
(453.125,219.727,o),
(432.617,278.809,q)
);
}
);
width = 559;
},
{
associatedMasterId = "EF321139-F770-433D-B2B6-C3EFA1B16465";
layerId = "4203375D-DE44-489C-A43B-7E61E8CA54BB";
name = Back;
shapes = (
{
closed = 1;
nodes = (
(494.629,409.668,o),
(503.906,399.414,o),
(513.184,389.16,o),
(520.508,354.98,q),
(520.508,355.469,l),
(525.879,333.008,o),
(527.588,315.186,o),
(529.297,297.363,o),
(528.32,285.645,qs),
(522.461,237.793,o),
(505.371,195.801,o),
(488.281,153.809,o),
(459.473,119.141,q),
(442.871,100.098,o),
(424.072,84.961,o),
(405.273,69.824,o),
(383.789,58.105,qs),
(352.051,41.016,o),
(310.791,29.297,o),
(269.531,17.578,o),
(217.773,9.766,q),
(181.641,4.883,o),
(151.367,2.686,o),
(121.094,0.488,o),
(95.703,0.488,qs),
(73.73,0.488,o),
(57.129,1.953,qs),
(34.18,4.395,o),
(15.137,16.602,qs),
(-6.348,30.273,o),
(-7.324,59.57,q),
(2.441,96.68,o),
(11.963,128.174,o),
(21.484,159.668,o),
(31.25,185.547,qs),
(32.715,189.453,o),
(36.133,191.406,o),
(39.551,193.359,o),
(42.969,193.359,o),
(46.387,193.359,o),
(49.316,191.162,o),
(52.246,188.965,o),
(53.711,184.57,qs),
(57.129,170.898,o),
(70.312,162.842,o),
(83.496,154.785,o),
(105.469,151.367,qs),
(118.652,148.926,o),
(132.324,148.193,o),
(145.996,147.461,o),
(160.156,147.461,qs),
(173.828,147.461,o),
(188.477,148.193,o),
(203.125,148.926,o),
(218.75,150.879,qs),
(251.465,154.785,o),
(283.203,160.156,o),
(314.941,165.527,o),
(345.215,173.828,qs),
(370.605,180.664,o),
(392.822,187.5,o),
(415.039,194.336,o),
(429.688,200.684,q),
(428.711,214.844,o),
(424.072,233.887,o),
(419.434,252.93,o),
(411.133,277.344,qs),
(410.156,279.297,o),
(410.889,282.715,o),
(411.621,286.133,o),
(412.598,287.598,qs),
(486.328,397.461,ls)
);
}
);
width = 559;
}
);
},
{
glyphname = "behDotless-ar.init.hah";
layers = (
{
anchors = (
{
name = bottom;
pos = (378,-29);
},
{
name = bottom.mark;
pos = (286,-66);
},
{
name = exit;
pos = (-44,-107);
},
{
name = top;
pos = (308,412);
},
{
name = top.mark;
pos = (308,472);
}
);
layerId = "1467EB51-6BD4-4CFC-AEAA-3E4EB1A95CFA";
shapes = (
{
closed = 1;
nodes = (
(3,5,o),
(13,20,o),
(31,44,cs),
(49,68,o),
(77,98,o),
(116,135,cs),
(155,172,o),
(201,202,o),
(255,224,cs),
(257,224,o),
(259,225,o),
(262,226,c),
(262,226,l),
(263,226,ls),
(302,244,o),
(336,247,o),
(366,235,c),
(371,229,l),
(356,192,o),
(342,153,o),
(324,119,cs),
(319,110,o),
(307,111,o),
(296,113,cs),
(273,115,o),
(253,114,o),
(234,109,c),
(234,109,l),
(189,94,o),
(151,72,o),
(119,44,cs),
(103,30,o),
(88,15,o),
(74,0,c),
(1,0,l)
);
}
);
width = 423;
},
{
anchors = (
{
name = bottom;
pos = (378,-29);
},
{
name = bottom.mark;
pos = (286,-66);
},
{
name = exit;
pos = (-44,-107);
},
{
name = top;
pos = (308,412);
},
{
name = top.mark;
pos = (308,472);
}
);
layerId = "EF321139-F770-433D-B2B6-C3EFA1B16465";
shapes = (
{
closed = 1;
nodes = (
(-17,0,o),
(-4,21,o),
(3,32,cs),
(31,75,o),
(66,113,o),
(107,151,cs),
(146,188,o),
(192,217,o),
(247,239,c),
(247,240,l),
(271,248,o),
(290,258,o),
(320,258,cs),
(334,258,o),
(349,255,o),
(365,248,c),
(371,240,ls),
(372,238,o),
(375,232,o),
(373,229,cs),
(358,192,o),
(345,154,o),
(326,120,cs),
(319,108,o),
(305,105,o),
(288,109,cs),
(284,110,o),
(281,110,o),
(278,110,cs),
(273,110,o),
(273,110,o),
(268,110,cs),
(255,110,o),
(243,108,o),
(232,105,c),
(233,105,l),
(192,91,o),
(155,70,o),
(126,45,cs),
(112,32,o),
(95,17,o),
(83,4,cs),
(82,3,o),
(77,0,o),
(75,0,cs),
(4,0,ls)
);
}
);
width = 423;
},
{
associatedMasterId = "1467EB51-6BD4-4CFC-AEAA-3E4EB1A95CFA";
layerId = "47C5E6BC-EA62-45ED-902E-60CB70FD79C8";
name = Back;
shapes = (
{
closed = 1;
nodes = (
(4.395,7.812,o),
(30.762,43.945,o),
(57.129,80.078,o),
(115.967,135.254,o),
(174.805,190.43,o),
(255.371,223.633,qs),
(257.812,224.121,o),
(261.719,226.074,q),
(261.719,225.586,l),
(262.207,226.074,o),
(262.695,226.074,qs),
(321.289,253.418,o),
(366.211,234.863,q),
(371.094,229.004,l),
(359.863,201.66,o),
(348.877,173.096,o),
(337.891,144.531,o),
(324.219,118.652,qs),
(319.824,111.328,o),
(310.791,111.572,o),
(301.758,111.816,o),
(295.898,112.793,qs),
(261.719,116.211,o),
(233.887,109.375,q),
(233.887,108.887,l),
(166.504,86.426,o),
(119.141,43.945,qs),
(95.703,22.949,o),
(74.219,0.488,q),
(1.465,0.488,l)
);
}
);
width = 423;
},
{
associatedMasterId = "EF321139-F770-433D-B2B6-C3EFA1B16465";
layerId = "6C3DFCAC-AA65-43DD-AF55-CAB0BBA1E5EA";
name = Back;
shapes = (
{
closed = 1;
nodes = (
(-2.441,0.488,o),
(-5.615,5.127,o),
(-8.789,9.766,o),
(-6.348,16.602,qs),
(-4.395,20.996,o),
(2.93,32.227,o),
(10.254,43.457,o),
(23.438,61.523,qs),
(36.133,78.613,o),
(56.885,101.074,o),
(77.637,123.535,o),
(106.934,150.879,qs),
(136.23,178.711,o),
(170.654,200.684,o),
(205.078,222.656,o),
(246.582,239.258,q),
(247.07,239.746,l),
(253.418,241.699,l),
(271.484,250,o),
(287.598,253.906,o),
(303.711,257.812,o),
(319.824,257.812,qs),
(340.82,257.812,o),
(364.746,248.047,q),
(371.094,240.234,ls),
(372.559,237.793,o),
(373.047,234.131,o),
(373.535,230.469,o),
(372.559,228.516,qs),
(360.352,198.242,ls),
(352.539,178.711,o),
(344.727,159.18,o),
(336.914,139.648,o),
(326.172,120.117,qs),
(322.754,114.258,o),
(317.627,111.328,o),
(312.5,108.398,o),
(306.885,107.666,o),
(301.27,106.934,o),
(295.898,107.422,o),
(290.527,107.91,o),
(286.621,108.887,q),
(287.598,108.887,l),
(282.227,109.863,o),
(277.588,109.863,o),
(272.949,109.863,o),
(268.066,109.863,qs),
(248.047,109.863,o),
(231.934,105.469,q),
(232.91,105.469,l),
(202.148,95.215,o),
(175.293,79.834,o),
(148.438,64.453,o),
(126.465,45.41,q),
(114.258,34.18,o),
(102.783,23.438,o),
(91.309,12.695,o),
(83.496,4.395,qs),
(82.52,3.418,o),
(79.346,1.953,o),
(76.172,0.488,o),
(74.707,0.488,qs),
(4.395,0.488,ls)
);
}
);
width = 423;
}
);
},
{
glyphname = "behDotless-ar.init.heh";
layers = (
{
anchors = (
{
name = bottom;
pos = (387,-62);
},
{
name = bottom.mark;
pos = (409,-79);
},
{
name = exit;
},
{
name = top;
pos = (417,514);
},
{
name = top.mark;
pos = (470,501);
}
);
layerId = "1467EB51-6BD4-4CFC-AEAA-3E4EB1A95CFA";
shapes = (
{
closed = 1;
nodes = (
(300,146,o),
(243,85,o),
(193,26,cs),
(153,-21,o),
(126,-62,o),
(111,-98,cs),
(96,-134,o),
(73,-190,o),
(44,-248,cs),
(25,-288,o),
(12,-299,o),
(6,-282,cs),
(0,-265,o),
(-1,-235,o),
(2,-194,cs),
(5,-156,l),
(5,-155,l),
(58,-90,l),
(58,-91,l),
(54,-121,l),
(62,-105,l),
(63,-103,l),
(102,-25,o),
(144,55,o),
(196,122,cs),
(232,168,o),
(295,225,o),
(348,260,cs),
(380,281,o),
(411,296,o),
(443,307,cs),
(475,318,o),
(504,318,o),
(528,308,c),
(528,308,o),
(528,308,o),
(533,302,c),
(518,265,o),
(505,226,o),
(486,192,cs),
(481,183,o),
(469,184,o),
(458,186,cs),
(429,189,o),
(401,186,o),
(377,176,cs)
);
}
);
width = 559;
},
{
anchors = (
{
name = bottom;
pos = (387,-62);
},
{
name = bottom.mark;
pos = (409,-79);
},
{
name = exit;
},
{
name = top;
pos = (417,514);
},
{
name = top.mark;
pos = (470,501);
}
);
layerId = "EF321139-F770-433D-B2B6-C3EFA1B16465";
shapes = (
{
closed = 1;
nodes = (
(375,181,o),
(340,158,o),
(306,133,cs),
(266,104,o),
(232,68,o),
(200,30,cs),
(171,-6,o),
(139,-47,o),
(122,-88,cs),
(103,-132,o),
(83,-177,o),
(61,-225,cs),
(60,-228,o),
(60,-230,o),
(58,-232,c),
(43,-264,o),
(17,-308,o),
(0,-265,cs),
(-5,-251,o),
(-7,-232,o),
(-7,-212,cs),
(-7,-201,o),
(-6,-188,o),
(-5,-175,cs),
(-2,-133,l),
(52,-69,ls),
(55,-65,o),
(58,-63,o),
(63,-64,c),
(97,4,o),
(139,78,o),
(184,136,cs),
(201,159,o),
(226,182,o),
(248,203,cs),
(288,241,o),
(331,274,o),
(382,300,cs),
(407,313,o),
(426,320,o),
(454,326,cs),
(462,328,o),
(471,329,o),
(478,329,cs),
(493,329,o),
(508,325,o),
(522,319,c),
(526,315,o),
(533,308,o),
(530,300,cs),
(518,268,ls),
(508,242,o),
(497,215,o),
(484,191,cs),
(473,173,o),
(452,181,o),
(428,181,cs)
);
}
);
width = 559;
},
{
associatedMasterId = "1467EB51-6BD4-4CFC-AEAA-3E4EB1A95CFA";
layerId = "6D1232F6-C65F-496C-89A0-CA2EAFCA4E9A";
name = Back;
shapes = (
{
closed = 1;
nodes = (
(272.949,112.793,o),
(245.85,84.961,o),
(218.75,57.129,o),
(192.871,26.367,qs),
(133.301,-44.434,o),
(110.596,-98.389,o),
(87.891,-152.344,o),
(46.875,-240.723,q),
(46.387,-241.699,ls),
(45.898,-243.652,o),
(43.945,-247.559,qs),
(15.137,-308.105,o),
(6.348,-282.227,o),
(-2.441,-256.348,o),
(1.953,-194.336,qs),
(4.883,-155.762,l),
(4.883,-155.273,l),
(58.105,-89.844,l),
(58.105,-91.309,l),
(53.711,-120.605,l),
(61.523,-104.98,l),
(62.988,-102.539,l),
(91.309,-45.41,o),
(123.291,12.207,o),
(155.273,69.824,o),
(195.801,121.582,qs),
(218.75,150.879,o),
(259.766,189.697,o),
(300.781,228.516,o),
(348.145,260.01,o),
(395.508,291.504,o),
(443.359,307.373,o),
(491.211,323.242,o),
(527.832,308.105,q),
(527.832,308.105,o),
(532.715,302.246,q),
(521.484,274.902,o),
(510.742,246.338,o),
(500,217.773,o),
(485.84,191.895,qs),
(481.445,184.57,o),
(472.412,184.814,o),
(463.379,185.059,o),
(457.52,186.035,qs),
(413.574,190.43,o),
(377.197,176.025,o),
(340.82,161.621,o),
(304.688,135.742,qs)
);
}
);
width = 559;
},
{
associatedMasterId = "EF321139-F770-433D-B2B6-C3EFA1B16465";
layerId = "5401F9B4-BF49-4CE7-B3E7-959B0B4532DA";
name = Back;
shapes = (
{
closed = 1;
nodes = (
(275.879,111.816,o),
(249.756,84.961,o),
(223.633,58.105,o),
(199.707,29.785,q),
(173.34,-2.441,o),
(152.832,-32.715,o),
(132.324,-62.988,o),
(122.07,-87.891,qs),
(110.84,-114.258,o),
(95.703,-148.438,o),
(80.566,-182.617,o),
(61.035,-225.098,qs),
(60.059,-227.051,o),
(59.326,-229.004,o),
(58.594,-230.957,o),
(57.129,-232.91,qs),
(57.617,-232.422,l),
(38.574,-273.438,o),
(23.438,-280.273,o),
(8.301,-287.109,o),
(-0.488,-264.648,qs),
(-3.906,-255.859,o),
(-5.371,-242.676,o),
(-6.836,-229.492,o),
(-6.836,-212.402,qs),
(-6.836,-195.312,o),
(-5.371,-175.293,qs),
(-1.953,-133.301,l),
(51.758,-68.848,ls),
(56.641,-62.988,o),
(63.477,-64.453,q),
(89.355,-13.672,o),
(119.629,39.062,o),
(149.902,91.797,o),
(184.082,136.23,qs),
(194.824,150.391,o),
(211.426,167.48,o),
(228.027,184.57,o),
(247.559,203.125,qs),
(267.578,222.168,o),
(290.039,240.234,o),
(312.5,258.301,o),
(334.473,272.949,q),
(357.422,287.598,o),
(382.324,300.293,o),
(407.227,312.988,o),
(429.199,319.824,qs),
(441.895,323.73,o),
(454.102,326.172,o),
(466.309,328.613,o),
(477.539,328.613,qs),
(500.488,328.613,o),
(521.973,319.336,q),
(522.949,318.359,o),
(523.926,316.895,qs),
(524.902,315.918,o),
(525.879,314.209,o),
(526.855,312.5,o),
(528.32,311.523,q),
(530.273,309.082,o),
(530.762,305.664,o),
(531.25,302.246,o),
(530.273,299.805,qs),
(517.578,267.578,ls),
(510.254,248.535,o),
(501.953,229.004,o),
(493.652,209.473,o),
(483.887,190.918,qs),
(480.469,185.059,o),
(475.342,182.129,o),
(470.215,179.199,o),
(464.6,178.467,o),
(458.984,177.734,o),
(453.613,178.223,o),
(448.242,178.711,o),
(444.336,179.688,q),
(439.941,180.176,o),
(436.279,180.42,o),
(432.617,180.664,o),
(428.223,180.664,qs),
(394.043,180.664,o),
(364.99,167.725,o),
(335.938,154.785,o),
(306.152,133.301,qs)
);
}
);
width = 559;
}
);
},
{
glyphname = "behDotless-ar.init.meem";
layers = (
{
anchors = (
{
name = bottom;
pos = (356,-9);
},
{
name = bottom.mark;
pos = (264,-35);
},
{
name = exit;
},
{
name = top;
pos = (286,545);
},
{
name = top.mark;
pos = (272,479);
}
);
layerId = "1467EB51-6BD4-4CFC-AEAA-3E4EB1A95CFA";
shapes = (
{
closed = 1;
nodes = (
(270,187,o),
(249,205,o),
(224,203,cs),
(199,201,o),
(173,189,o),
(147,166,cs),
(121,143,o),
(96,116,o),
(73,83,cs),
(50,50,o),
(32,22,o),
(18,0,c),
(0,0,l),
(1,1,o),
(3,6,o),
(5,13,cs),
(7,20,o),
(13,32,o),
(21,50,cs),
(31,71,o),
(46,101,o),
(66,138,cs),
(103,207,o),
(157,280,o),
(223,316,cs),
(254,333,o),
(287,332,o),
(320,313,c),
(341,301,o),
(342,276,o),
(325,238,cs),
(308,200,o),
(296,170,o),
(288,149,c)
);
}
);
width = 367;
},
{
anchors = (
{
name = bottom;
pos = (356,-9);
},
{
name = bottom.mark;
pos = (264,-35);
},
{
name = exit;
},
{
name = top;
pos = (286,545);
},
{
name = top.mark;
pos = (272,479);
}
);
layerId = "EF321139-F770-433D-B2B6-C3EFA1B16465";
shapes = (
{
closed = 1;
nodes = (
(249,198,o),
(227,205,o),
(187,186,cs),
(176,181,o),
(163,173,o),
(152,163,cs),
(128,142,o),
(105,115,o),
(83,84,c),
(83,85,l),
(64,57,o),
(47,31,o),
(30,5,cs),
(29,3,o),
(23,0,o),
(20,0,cs),
(3,0,ls),
(-23,0,o),
(7,54,o),
(12,65,cs),
(25,92,o),
(40,122,o),
(56,151,cs),
(93,222,o),
(144,290,o),
(213,328,cs),
(227,335,o),
(243,341,o),
(262,341,cs),
(281,341,o),
(300,336,o),
(318,325,cs),
(333,316,o),
(340,302,o),
(340,284,cs),
(340,266,o),
(334,251,o),
(328,236,c),
(314,205,o),
(303,180,o),
(292,152,c),
(271,151,l)
);
}
);
width = 367;
},
{
associatedMasterId = "1467EB51-6BD4-4CFC-AEAA-3E4EB1A95CFA";
layerId = "A5E99247-A443-4F1C-ABC2-B9701F45CF28";
name = Back;
shapes = (
{
closed = 1;
nodes = (
(261.719,207.031,o),
(223.877,203.369,o),
(186.035,199.707,o),
(147.217,165.771,o),
(108.398,131.836,o),
(73.486,82.52,o),
(38.574,33.203,o),
(17.578,0,q),
(0,0,l),
(1.465,1.953,o),
(4.639,12.939,o),
(7.812,23.926,o),
(20.508,50.293,qs),
(35.645,82.52,o),
(65.918,138.428,o),
(96.191,194.336,o),
(136.23,242.676,o),
(176.27,291.016,o),
(223.389,316.406,o),
(270.508,341.797,o),
(319.824,313.477,q),
(350.586,294.922,o),
(325.195,237.549,o),
(299.805,180.176,o),
(288.086,149.414,q)
);
}
);
width = 367;
},
{
associatedMasterId = "EF321139-F770-433D-B2B6-C3EFA1B16465";
layerId = "C1F85662-1CAD-434E-8EB8-57667C1A656A";
name = Back;
shapes = (
{
closed = 1;
nodes = (
(248.535,199.219,o),
(219.727,196.289,qs),
(203.613,194.336,o),
(186.523,186.279,o),
(169.434,178.223,o),
(152.344,162.598,q),
(116.211,131.348,o),
(83.008,84.473,q),
(83.008,84.961,l),
(66.406,61.035,o),
(53.223,41.016,o),
(40.039,20.996,o),
(29.785,5.371,qs),
(28.809,3.418,o),
(25.391,1.709,o),
(21.973,0,o),
(20.02,0,qs),
(2.93,0,ls),
(-3.906,0,o),
(-7.324,4.639,o),
(-10.742,9.277,o),
(-8.301,15.625,q),
(-6.836,20.996,l),
(-4.883,25.879,o),
(-0.244,37.842,o),
(4.395,49.805,o),
(11.719,65.43,qs),
(19.043,81.055,o),
(30.518,102.783,o),
(41.992,124.512,o),
(56.152,150.879,qs),
(70.312,178.223,o),
(87.891,204.346,o),
(105.469,230.469,o),
(125.488,253.906,qs),
(145.02,277.344,o),
(167.48,296.387,o),
(189.941,315.43,o),
(212.891,328.125,qs),
(224.609,334.473,o),
(237.061,337.891,o),
(249.512,341.309,o),
(262.207,341.309,qs),
(291.016,341.309,o),
(317.871,324.707,qs),
(340.332,310.547,o),
(340.332,283.691,qs),
(340.332,273.438,o),
(337.158,261.963,o),
(333.984,250.488,o),
(328.125,236.328,q),
(315.43,208.496,o),
(306.641,187.744,o),
(297.852,166.992,o),
(291.992,151.855,q),
(270.508,151.367,l)
);
}
);
width = 367;
}
);
},
{
glyphname = "behDotless-ar.init.ragaa";
layers = (
{
anchors = (
{
name = bottom;
pos = (419,145);
},
{
name = bottom.mark;
pos = (274,-102);
},
{
name = exit;
},
{
name = top;
pos = (199,623);
},
{
name = top.mark;
pos = (242,639);
}
);
layerId = "1467EB51-6BD4-4CFC-AEAA-3E4EB1A95CFA";
shapes = (
{
closed = 1;
nodes = (
(233,228,o),
(225,258,o),
(220,273,c),
(220,274,l),
(220,274,l),
(212,297,o),
(198,323,o),
(179,352,c),
(242,463,l),
(280,426,o),
(299,377,o),
(298,316,c),
(298,317,l),
(298,316,ls),
(298,282,o),
(293,251,o),
(281,221,c),
(273,197,o),
(260,170,o),
(241,141,cs),
(224,116,o),
(204,97,o),
(179,83,cs),
(134,58,o),
(91,32,o),
(51,3,cs),
(49,2,o),
(47,1,o),
(46,-1,c),
(0,31,l),
(22,87,o),
(91,146,o),
(151,165,cs),
(182,175,o),
(210,189,o),
(235,209,c),
(235,210,o),
(235,212,o),
(235,214,cs)
);
}
);
width = 678;
},
{
anchors = (
{
name = bottom;
pos = (419,145);
},
{
name = bottom.mark;
pos = (274,-102);
},
{
name = exit;
},
{
name = top;
pos = (199,623);
},
{
name = top.mark;
pos = (242,639);
}
);
layerId = "EF321139-F770-433D-B2B6-C3EFA1B16465";
shapes = (
{
closed = 1;
nodes = (
(56,1,o),
(48,-5,o),
(40,1,cs),
(-5,32,ls),
(-9,35,o),
(-11,41,o),
(-9,47,c),
(11,96,o),
(53,136,o),
(97,163,cs),
(113,172,o),
(128,179,o),
(144,184,cs),
(171,192,o),
(195,203,o),
(216,220,c),
(212,238,l),
(202,280,o),
(186,311,o),
(164,344,cs),
(163,346,o),
(163,348,o),
(163,351,cs),
(163,354,o),
(163,355,o),
(164,357,cs),
(225,465,ls),
(229,472,o),
(238,474,o),
(245,468,cs),
(284,430,o),
(303,380,o),
(303,318,cs),
(303,284,o),
(297,252,o),
(286,222,c),
(266,165,o),
(232,109,o),
(181,81,cs),
(158,68,o),
(136,56,o),
(114,42,c),
(103,35,l),
(88,25,o),
(74,16,o),
(60,6,c)
);
}
);
width = 678;
},
{
associatedMasterId = "1467EB51-6BD4-4CFC-AEAA-3E4EB1A95CFA";
layerId = "91837474-113A-4913-8EF4-D6234415C188";
name = Back;
shapes = (
{
closed = 1;
nodes = (
(48.34,1.465,o),
(46.387,-1.465,q),
(46.387,-1.465,l),
(0,31.25,l),
(0,31.25,l),
(16.113,73.242,o),
(59.57,111.328,qs),
(103.516,149.902,o),
(150.635,164.551,o),
(197.754,179.199,o),
(234.863,208.984,q),
(235.352,210.938,o),
(235.352,213.867,qs),
(234.863,217.773,o),
(230.469,236.816,o),
(226.074,255.859,o),
(220.215,273.438,q),
(220.215,273.926,l),
(219.727,273.926,l),
(207.52,308.594,o),
(178.711,351.562,q),
(178.711,351.562,l),
(242.188,462.891,l),
(299.316,407.227,o),
(297.852,316.406,q),
(298.34,316.895,l),
(298.34,316.406,ls),
(298.34,266.113,o),
(280.762,220.703,q),
(280.762,220.703,l),
(269.043,184.57,o),
(240.723,141.113,qs),
(215.82,103.027,o),
(178.711,82.764,o),
(141.602,62.5,o),
(107.91,41.504,qs),
(92.285,31.25,o),
(77.637,21.729,o),
(62.988,12.207,o),
(50.781,3.418,qs)
);
}
);
width = 678;
},
{
associatedMasterId = "EF321139-F770-433D-B2B6-C3EFA1B16465";
layerId = "F05A2F5E-114D-4287-8018-EB3A51293668";
name = Back;
shapes = (
{
closed = 1;
nodes = (
(53.223,-0.977,o),
(48.34,-1.221,o),
(43.457,-1.465,o),
(40.039,0.977,qs),
(-4.883,32.227,ls),
(-8.301,34.668,o),
(-9.277,39.062,o),
(-10.254,43.457,o),
(-9.277,47.363,q),
(-0.977,68.359,o),
(14.404,89.355,o),
(29.785,110.352,o),
(51.758,129.395,o),
(73.73,148.438,o),
(97.168,162.598,o),
(120.605,176.758,o),
(144.043,183.594,qs),
(184.57,195.312,o),
(216.309,220.215,q),
(212.402,238.281,ls),
(210.449,246.582,o),
(208.008,255.859,o),
(205.566,265.137,o),
(202.637,272.461,qs),
(197.266,287.109,o),
(187.5,305.42,o),
(177.734,323.73,o),
(164.062,344.238,qs),
(162.598,346.68,o),
(162.598,350.83,o),
(162.598,354.98,o),
(164.062,357.422,qs),
(225.098,464.844,ls),
(228.516,470.703,o),
(234.375,471.436,o),
(240.234,472.168,o),
(245.117,467.773,qs),
(303.223,410.645,o),
(302.734,317.871,qs),
(302.734,266.602,o),
(285.156,220.703,q),
(285.645,221.68,l),
(279.297,203.613,o),
(269.287,183.105,o),
(259.277,162.598,o),
(245.605,141.602,q),
(232.91,123.047,o),
(216.309,107.178,o),
(199.707,91.309,o),
(181.152,81.055,qs),
(163.086,71.289,o),
(146.24,61.768,o),
(129.395,52.246,o),
(113.281,41.992,q),
(114.258,42.48,l),
(103.027,34.668,l),
(90.82,26.855,o),
(80.078,20.02,o),
(69.336,13.184,o),
(59.57,6.348,q),
(56.152,2.441,ls)
);
}
);
width = 678;
}
);
},
{
glyphname = "behDotless-ar.init.reh";
layers = (
{
anchors = (
{
name = bottom;
pos = (202,-127);
},
{
name = bottom.mark;
pos = (211,-123);
},
{
name = exit;
},
{
name = top;
pos = (229,422);
},
{
name = top.mark;
pos = (250,400);
}
);
layerId = "1467EB51-6BD4-4CFC-AEAA-3E4EB1A95CFA";
shapes = (
{
closed = 1;
nodes = (
(301,142,o),
(267,88,o),
(191,69,cs),
(156,60,o),
(126,53,o),
(102,49,cs),
(79,45,o),
(54,33,o),
(34,13,c),
(23,-4,o),
(13,-6,o),
(4,7,cs),
(-5,20,o),
(-1,36,o),
(14,54,c),
(14,55,l),
(20,68,o),
(26,80,o),
(33,91,c),
(54,144,o),
(93,177,o),
(154,186,cs),
(179,190,o),
(207,194,o),
(235,200,c),
(262,204,o),
(291,213,o),
(308,229,c)
);
}
);
width = 323;
},
{
anchors = (
{
name = bottom;
pos = (202,-127);
},
{
name = bottom.mark;
pos = (211,-123);
},
{
name = exit;
},
{
name = top;
pos = (229,422);
},
{
name = top.mark;
pos = (250,400);
}
);
layerId = "EF321139-F770-433D-B2B6-C3EFA1B16465";
shapes = (
{
closed = 1;
nodes = (
(2,-1,o),
(-10,18,o),
(-10,34,cs),
(-10,50,o),
(-2,60,o),
(6,71,c),
(11,83,o),
(17,94,o),
(24,105,c),
(37,138,o),
(56,162,o),
(81,177,c),
(80,177,l),
(100,190,o),
(123,198,o),
(150,203,c),
(177,207,o),
(201,211,o),
(227,217,c),
(251,221,o),
(277,228,o),
(292,242,cs),
(300,250,o),
(313,243,o),
(312,232,cs),
(305,142,o),
(267,87,o),
(190,67,cs),
(160,60,o),
(133,53,o),
(104,48,cs),
(82,44,o),
(60,31,o),
(45,18,c),
(39,9,o),
(31,-1,o),
(18,-1,cs)
);
}
);
width = 323;
},
{
associatedMasterId = "1467EB51-6BD4-4CFC-AEAA-3E4EB1A95CFA";
layerId = "1B2843CC-5A01-49E3-B537-AF3A4E00EFAD";
name = Back;
shapes = (
{
closed = 1;
nodes = (
(138.184,55.664,o),
(102.295,49.316,o),
(66.406,42.969,o),
(34.668,13.672,q),
(34.18,13.184,l),
(17.09,-11.719,o),
(3.906,7.324,o),
(-9.277,26.367,o),
(13.672,53.711,q),
(13.672,54.688,l),
(22.461,74.707,o),
(32.715,90.82,q),
(50.781,137.695,o),
(86.914,160.645,qs),
(116.211,179.688,o),
(154.297,185.547,o),
(192.383,191.406,o),
(234.863,200.195,q),
(252.441,203.125,o),
(273.193,209.229,o),
(293.945,215.332,o),
(308.105,229.004,q),
(303.223,166.016,o),
(276.611,124.756,o),
(250,83.496,o),
(191.406,68.848,qs)
);
}
);
width = 323;
},
{
associatedMasterId = "EF321139-F770-433D-B2B6-C3EFA1B16465";
layerId = "2CCF42A1-D1B8-4B7E-B0F8-747A92627D51";
name = Back;
shapes = (
{
closed = 1;
nodes = (
(164.062,60.547,o),
(142.334,55.664,o),
(120.605,50.781,o),
(103.516,47.852,qs),
(88.867,44.922,o),
(73.486,37.109,o),
(58.105,29.297,o),
(45.41,18.066,q),
(39.551,9.277,o),
(32.471,4.15,o),
(25.391,-0.977,o),
(18.066,-0.977,qs),
(12.695,-0.977,o),
(6.836,2.686,o),
(0.977,6.348,o),
(-2.93,11.719,qs),
(-10.254,21.484,o),
(-10.254,33.691,qs),
(-10.254,42.48,o),
(-6.104,51.514,o),
(-1.953,60.547,o),
(5.859,71.289,q),
(9.766,79.59,o),
(14.16,88.135,o),
(18.555,96.68,o),
(23.926,104.98,q),
(43.457,153.809,o),
(80.566,176.758,q),
(80.078,176.758,l),
(109.863,196.289,o),
(149.902,203.125,q),
(168.457,205.566,o),
(187.5,208.984,o),
(206.543,212.402,o),
(227.051,216.797,q),
(243.164,219.238,o),
(261.719,224.609,o),
(280.273,229.98,o),
(292.48,241.699,qs),
(298.34,247.559,o),
(305.42,244.141,o),
(312.5,240.723,o),
(312.012,231.934,qs),
(309.57,199.707,o),
(301.758,172.852,o),
(293.945,145.996,o),
(279.297,125,o),
(264.648,104.004,o),
(242.92,89.355,o),
(221.191,74.707,o),
(190.43,66.895,qs)
);
}
);
width = 323;
}
);
},
{
glyphname = "behDotless-ar.init.sad";
layers = (
{
anchors = (
{
name = bottom;
pos = (426,-105);
},
{
name = bottom.mark;
pos = (483,-92);
},
{
name = exit;
},
{
name = top;
pos = (567,602);
},
{
name = top.mark;
pos = (497,637);
}
);
layerId = "1467EB51-6BD4-4CFC-AEAA-3E4EB1A95CFA";
shapes = (
{
closed = 1;
nodes = (
(520,268,o),
(499,325,o),
(489,354,c),
(565,467,l),
(589,393,ls),
(595,376,o),
(598,358,o),
(598,339,cs),
(598,304,o),
(588,267,o),
(568,226,cs),
(532,151,o),
(441,92,o),
(359,55,cs),
(312,34,o),
(264,18,o),
(214,9,cs),
(183,3,o),
(153,0,o),
(126,0,cs),
(65,0,o),
(14,14,o),
(5,57,cs),
(3,68,o),
(1,79,o),
(1,91,cs),
(1,111,o),
(5,133,o),
(12,155,cs),
(23,191,o),
(37,225,o),
(57,259,cs),
(77,293,o),
(92,316,o),
(102,331,cs),
(103,333,o),
(104,333,o),
(106,333,cs),
(108,333,o),
(111,333,o),
(111,330,cs),
(111,329,o),
(111,328,o),
(110,326,cs),
(81,269,o),
(67,227,o),
(67,197,cs),
(67,144,o),
(104,124,o),
(157,124,cs),
(173,124,o),
(190,126,o),
(209,130,cs),
(300,147,o),
(383,166,o),
(457,202,cs),
(520,232,l),
(520,234,ls)
);
}
);
width = 643;
},
{
anchors = (
{
name = bottom;
pos = (426,-105);
},
{
name = bottom.mark;
pos = (483,-92);
},
{
name = exit;
},
{
name = top;
pos = (567,602);
},
{
name = top.mark;
pos = (497,637);
}
);
layerId = "EF321139-F770-433D-B2B6-C3EFA1B16465";
shapes = (
{
closed = 1;
nodes = (
(82,159,o),
(114,144,o),
(157,144,cs),
(195,144,o),
(228,152,o),
(260,159,cs),
(278,163,o),
(295,167,o),
(313,172,cs),
(359,183,o),
(402,198,o),
(441,217,cs),
(495,244,l),
(495,254,o),
(491,268,o),
(486,287,c),
(479,309,o),
(474,330,o),
(466,350,cs),
(465,353,o),
(466,358,o),
(467,360,cs),
(542,469,ls),
(548,478,o),
(560,477,o),
(563,467,cs),
(586,395,ls),
(591,378,o),
(594,361,o),
(594,340,cs),
(594,283,o),
(565,214,o),
(532,176,cs),
(472,107,o),
(383,58,o),
(286,27,cs),
(262,19,o),
(238,14,o),
(214,9,c),
(214,9,l),
(183,3,o),
(154,0,o),
(127,0,cs),
(47,0,o),
(-5,20,o),
(-5,100,cs),
(-5,120,o),
(1,149,o),
(5,165,c),
(26,233,o),
(61,290,o),
(97,342,c),
(100,344,o),
(103,346,o),
(108,346,cs),
(111,346,o),
(113,345,o),
(115,344,c),
(114,345,l),
(121,343,o),
(124,339,o),
(124,331,cs),
(124,328,o),
(124,327,o),
(123,325,cs),
(95,271,o),
(82,229,o),
(82,202,cs)
);
}
);
width = 643;
},
{
associatedMasterId = "1467EB51-6BD4-4CFC-AEAA-3E4EB1A95CFA";
layerId = "3487C4A7-D218-451A-B139-F56C3A333E70";
name = Back;
shapes = (
{
closed = 1;
nodes = (
(543.945,175.293,o),
(486.816,130.859,o),
(429.688,86.426,o),
(359.131,54.932,o),
(288.574,23.438,o),
(213.867,9.277,qs),
(166.992,0,o),
(126.465,0,qs),
(101.562,0,o),
(78.613,3.418,qs),
(14.648,12.695,o),
(4.883,57.129,qs),
(1.465,73.242,o),
(1.465,91.309,qs),
(1.465,121.094,o),
(11.719,154.785,qs),
(27.832,208.496,o),
(57.129,258.789,o),
(86.426,309.082,o),
(102.051,331.055,qs),
(104.004,333.496,o),
(106.445,333.496,qs),
(107.422,333.496,o),
(108.887,333.008,qs),
(110.84,332.52,o),
(110.84,330.078,qs),
(110.84,328.613,o),
(109.863,326.172,qs),
(66.895,241.211,o),
(66.895,196.777,qs),
(66.895,190.918,o),
(67.871,185.547,qs),
(74.219,141.602,o),
(112.793,130.371,q),
(132.324,124.023,o),
(157.227,124.023,qs),
(181.152,124.023,o),
(209.473,129.883,q),
(267.578,140.625,o),
(322.266,153.809,qs),
(393.555,170.898,o),
(456.543,201.66,qs),
(519.531,232.422,l),
(519.531,234.375,ls),
(519.531,252.93,o),
(509.766,287.598,q),
(499.023,323.242,o),
(488.77,353.516,q),
(565.43,466.797,l),
(589.355,393.066,ls),
(597.656,367.676,o),
(597.656,339.355,qs),
(597.656,287.109,o),
(568.359,226.074,qs)
);
}
);
width = 643;
},
{
associatedMasterId = "EF321139-F770-433D-B2B6-C3EFA1B16465";
layerId = "DF433529-4563-4AE1-9B66-11E188E3987F";
name = Back;
shapes = (
{
closed = 1;
nodes = (
(552.734,199.219,o),
(532.227,175.537,o),
(511.719,151.855,o),
(482.422,128.906,qs),
(454.59,106.934,o),
(423.096,88.135,o),
(391.602,69.336,o),
(356.445,53.711,q),
(321.777,39.062,o),
(285.645,27.344,o),
(249.512,15.625,o),
(213.867,8.789,q),
(213.867,9.277,l),
(167.969,0,o),
(127.441,0,qs),
(114.746,0,o),
(102.295,0.732,o),
(89.844,1.465,o),
(79.102,3.418,qs),
(45.41,8.789,o),
(24.658,24.17,o),
(3.906,39.551,o),
(-1.465,64.453,q),
(-1.465,63.965,l),
(-3.906,73.242,o),
(-4.639,82.031,o),
(-5.371,90.82,o),
(-5.371,100.098,qs),
(-5.371,113.77,o),
(-2.197,132.08,o),
(0.977,150.391,o),
(4.883,164.551,q),
(13.184,190.918,o),
(24.414,217.773,o),
(35.645,244.629,o),
(49.805,268.066,q),
(62.5,290.039,o),
(74.463,308.594,o),
(86.426,327.148,o),
(96.68,341.797,q),
(98.633,343.262,o),
(101.318,344.482,o),
(104.004,345.703,o),
(107.91,345.703,qs),
(108.887,345.703,o),
(110.84,345.459,o),
(112.793,345.215,o),
(115.234,343.75,q),
(114.258,344.727,l),
(119.629,343.262,o),
(121.826,339.6,o),
(124.023,335.938,o),
(124.023,330.566,qs),
(124.023,328.125,o),
(123.779,326.904,o),
(123.535,325.684,o),
(123.047,324.707,qs),
(81.543,243.164,o),
(81.543,202.148,qs),
(81.543,200.684,o),
(81.787,197.998,o),
(82.031,195.312,o),
(82.52,192.871,qs),
(85.449,176.27,o),
(93.994,164.795,o),
(102.539,153.32,o),
(117.188,148.926,qs),
(135.742,143.555,o),
(156.738,143.555,qs),
(167.969,143.555,o),
(180.176,144.775,o),
(192.383,145.996,o),
(205.078,148.438,qs),
(232.91,153.809,o),
(260.01,159.424,o),
(287.109,165.039,o),
(313.477,171.875,q),
(382.812,188.477,o),
(440.918,217.285,qs),
(494.629,243.652,l),
(494.141,258.301,o),
(486.328,286.621,q),
(480.957,303.711,o),
(476.074,319.58,o),
(471.191,335.449,o),
(465.82,349.609,qs),
(464.844,351.562,o),
(465.576,354.736,o),
(466.309,357.91,o),
(467.285,359.863,qs),
(541.504,469.238,ls),
(546.387,476.074,o),
(553.467,475.098,o),
(560.547,474.121,o),
(562.988,466.797,qs),
(585.938,395.02,ls),
(589.844,381.836,o),
(592.041,368.164,o),
(594.238,354.492,o),
(594.238,339.844,qs),
(594.238,285.645,o),
(564.941,225.098,qs)
);
}
);
width = 643;
}
);
},
{
glyphname = "behDotless-ar.init.yeh";
layers = (
{
anchors = (
{
name = bottom;
pos = (325,88);
},
{
name = bottom.mark;
pos = (145,-457);
},
{
name = exit;
},
{
name = top;
pos = (92,470);
},
{
name = top.mark;
pos = (101,497);
}
);
layerId = "1467EB51-6BD4-4CFC-AEAA-3E4EB1A95CFA";
shapes = (
{
closed = 1;
nodes = (
(105,89,o),
(105,90,o),
(106,92,cs),
(104,106,o),
(96,137,o),
(91,151,c),
(91,151,l),
(84,173,o),
(69,199,o),
(49,229,c),
(113,341,l),
(150,304,o),
(169,254,o),
(169,194,cs),
(169,160,o),
(163,129,o),
(151,99,c),
(141,66,o),
(117,25,o),
(98,0,c),
(0,25,l),
(7,42,l),
(36,52,o),
(83,69,o),
(105,87,c)
);
}
);
width = 177;
},
{
anchors = (
{
name = bottom;
pos = (325,88);
},
{
name = bottom.mark;
pos = (145,-457);
},
{
name = exit;
},
{
name = top;
pos = (92,470);
},
{
name = top.mark;
pos = (101,497);
}
);
layerId = "EF321139-F770-433D-B2B6-C3EFA1B16465";
shapes = (
{
closed = 1;
nodes = (
(35,74,o),
(69,84,o),
(92,103,c),
(88,120,l),
(88,120,l),
(86,130,o),
(83,141,o),
(78,154,c),
(71,175,o),
(58,199,o),
(39,227,cs),
(37,230,o),
(37,236,o),
(39,239,cs),
(101,347,ls),
(105,353,o),
(113,357,o),
(119,350,cs),
(158,312,o),
(177,262,o),
(176,200,cs),
(176,166,o),
(170,133,o),
(159,104,c),
(148,70,o),
(124,31,o),
(105,5,cs),
(103,2,o),
(98,-2,o),
(93,0,cs),
(-1,24,ls),
(-7,26,o),
(-13,33,o),
(-9,41,cs),
(-2,57,ls),
(-1,58,o),
(3,63,o),
(5,63,cs)
);
}
);
width = 177;
},
{
associatedMasterId = "1467EB51-6BD4-4CFC-AEAA-3E4EB1A95CFA";
layerId = "238F8B2B-CFDF-4C99-B64E-993D110CAB07";
name = Back;
shapes = (
{
closed = 1;
nodes = (
(105.957,95.215,o),
(101.562,114.502,o),
(97.168,133.789,o),
(91.309,151.367,q),
(90.82,151.367,l),
(90.82,151.367,l),
(79.59,184.082,o),
(49.316,229.004,q),
(49.316,229.004,l),
(113.281,340.82,l),
(169.434,284.668,o),
(168.945,194.336,q),
(168.945,194.336,l),
(168.945,194.336,l),
(168.945,143.066,o),
(151.367,98.633,q),
(151.367,98.633,l),
(143.555,74.219,o),
(128.418,47.119,o),
(113.281,20.02,o),
(98.145,0,q),
(0,24.902,l),
(7.324,41.504,l),
(29.297,48.828,o),
(58.35,60.547,o),
(87.402,72.266,o),
(105.469,86.914,q),
(105.469,87.891,o),
(105.713,89.111,o),
(105.957,90.332,o),
(106.445,91.797,q)
);
}
);
width = 177;
},
{
associatedMasterId = "EF321139-F770-433D-B2B6-C3EFA1B16465";
layerId = "0A5982EA-D0A1-473F-A79E-22BAD5AF5617";
name = Back;
shapes = (
{
closed = 1;
nodes = (
(64.453,85.449,o),
(73.975,90.576,o),
(83.496,95.703,o),
(91.797,102.539,q),
(87.891,119.629,l),
(88.379,119.629,l),
(85.449,134.277,o),
(77.637,153.809,q),
(67.383,185.059,o),
(39.062,226.562,qs),
(37.598,229.004,o),
(37.354,232.666,o),
(37.109,236.328,o),
(38.574,238.77,qs),
(100.586,346.68,ls),
(104.004,352.051,o),
(109.619,353.027,o),
(115.234,354.004,o),
(119.141,349.609,qs),
(177.246,292.48,o),
(176.27,199.707,q),
(176.27,147.461,o),
(158.691,103.027,q),
(159.18,104.004,l),
(150.879,78.613,o),
(135.742,52.002,o),
(120.605,25.391,o),
(105.469,4.883,qs),
(104.004,2.441,o),
(100.098,0.977,o),
(96.191,-0.488,o),
(93.262,0.488,qs),
(-1.465,24.414,ls),
(-6.836,25.879,o),
(-9.277,30.518,o),
(-11.719,35.156,o),
(-9.277,40.527,qs),
(-2.441,56.641,ls),
(-1.465,58.105,o),
(0.977,60.547,o),
(3.418,62.988,o),
(4.883,62.988,q),
(15.625,66.895,o),
(27.588,71.289,o),
(39.551,75.684,o),
(53.223,81.055,qs)
);
}
);
width = 177;
}
);
},
{
glyphname = "hah-ar";
layers = (
{
anchors = (
{
name = bottom.mark;
pos = (294,-545);
},
{
name = center;
pos = (382,73);
},
{
name = top;
pos = (308,739);
},
{
name = top.mark;
pos = (325,738);
}
);
layerId = "1467EB51-6BD4-4CFC-AEAA-3E4EB1A95CFA";
shapes = (
{
closed = 1;
nodes = (
(387,398,l),
(367,457,o),
(231,433,o),
(202,408,c),
(217,370,o),
(244,340,o),
(260,304,c),
(301,334,o),
(353,366,o),
(387,398,c)
);
},
{
closed = 1;
nodes = (
(485,-384,o),
(59,-451,o),
(4,-190,cs),
(-26,-49,o),
(92,160,o),
(182,242,c),
(107,325,o),
(146,478,o),
(212,525,cs),
(256,556,o),
(364,576,o),
(428,549,cs),
(494,522,o),
(430,384,o),
(403,346,cs),
(371,300,o),
(328,264,o),
(288,229,cs),
(233,181,o),
(-14,-30,o),
(64,-118,cs),
(200,-271,o),
(460,-232,o),
(635,-186,cs),
(640,-185,o),
(652,-182,o),
(648,-186,cs),
(648,-186,l)
);
}
);
width = 683;
},
{
anchors = (
{
name = bottom;
pos = (382,24);
},
{
name = bottom.mark;
pos = (294,-545);
},
{
name = center;
pos = (382,73);
},
{
name = top;
pos = (308,739);
},
{
name = top.mark;
pos = (325,738);
}
);
layerId = "EF321139-F770-433D-B2B6-C3EFA1B16465";
shapes = (
{
closed = 1;
nodes = (
(246,350,o),
(255,337,o),
(262,324,c),
(313,360,l),
(332,372,o),
(349,385,o),
(365,399,c),
(357,414,o),
(340,421,o),
(314,421,cs),
(290,421,o),
(264,416,o),
(247,412,cs),
(234,409,o),
(222,406,o),
(215,402,c),
(222,386,o),
(228,374,o),
(238,361,c),
(238,362,l)
);
},
{
closed = 1;
nodes = (
(639,-153,o),
(644,-158,o),
(644,-166,cs),
(644,-171,o),
(643,-172,o),
(640,-175,c),
(600,-223,o),
(546,-263,o),
(480,-294,c),
(414,-325,o),
(344,-348,o),
(253,-348,cs),
(193,-348,o),
(145,-334,o),
(102,-314,c),
(37,-281,o),
(-7,-217,o),
(-7,-119,cs),
(-7,12,o),
(102,186,o),
(165,247,c),
(141,278,o),
(128,313,o),
(128,353,cs),
(128,370,o),
(131,383,o),
(134,398,c),
(133,398,l),
(145,460,o),
(169,503,o),
(204,528,cs),
(233,548,o),
(291,567,o),
(350,567,cs),
(377,567,o),
(402,562,o),
(424,553,c),
(449,542,o),
(462,522,o),
(462,494,cs),
(462,479,o),
(459,463,o),
(452,444,c),
(438,404,o),
(425,366,o),
(405,339,cs),
(375,298,o),
(336,264,o),
(299,231,c),
(286,218,o),
(270,206,o),
(255,192,cs),
(225,164,l),
(225,165,l),
(167,113,o),
(108,51,o),
(73,-24,cs),
(67,-37,o),
(64,-50,o),
(64,-61,cs),
(64,-75,o),
(70,-85,o),
(77,-93,c),
(136,-159,o),
(225,-194,o),
(342,-194,cs),
(348,-194,o),
(348,-194,o),
(354,-194,cs),
(446,-194,o),
(541,-175,o),
(616,-156,cs),
(622,-154,o),
(626,-153,o),
(630,-153,cs)
);
}
);
width = 683;
},
{
associatedMasterId = "1467EB51-6BD4-4CFC-AEAA-3E4EB1A95CFA";
layerId = "65702946-9252-48E5-83D0-92231847C970";
name = Back;
shapes = (
{
closed = 1;
nodes = (
(374.023,435.547,o),
(319.336,435.547,qs),
(309.57,435.547,o),
(298.34,434.57,qs),
(224.609,426.27,o),
(202.637,408.203,q),
(213.379,379.883,o),
(230.957,355.225,o),
(248.535,330.566,o),
(260.254,304.199,q),
(290.527,326.172,o),
(325.684,350.098,o),
(360.84,374.023,o),
(386.719,397.949,q)
);
},
{
closed = 1;
nodes = (
(586.914,-258.789,o),
(486.572,-305.42,o),
(386.23,-352.051,o),
(286.133,-358.887,qs),
(270.996,-359.863,o),
(256.836,-359.863,qs),
(173.828,-359.863,o),
(105.469,-326.172,qs),
(25.391,-287.109,o),
(4.883,-189.453,qs),
(-0.488,-162.598,o),
(-0.488,-134.766,qs),
(-0.488,-49.805,o),
(48.828,48.828,qs),
(114.258,180.664,o),
(181.641,242.676,q),
(139.648,289.551,o),
(139.648,353.027,qs),
(139.648,374.023,o),
(144.531,396.973,qs),
(162.598,489.258,o),
(212.402,524.902,qs),
(245.117,547.852,o),
(312.5,558.594,qs),
(335.449,562.012,o),
(356.445,562.012,qs),
(396.484,562.012,o),
(428.223,548.828,qs),
(459.961,535.645,o),
(459.961,499.023,qs),
(459.961,479.004,o),
(450.195,451.66,qs),
(422.852,374.512,o),
(403.32,346.191,q),
(378.418,312.012,o),
(348.145,283.691,o),
(317.871,255.371,o),
(288.574,229.492,qs),
(267.578,210.938,o),
(218.994,166.992,o),
(170.41,123.047,o),
(126.465,71.045,o),
(82.52,19.043,o),
(59.082,-32.227,qs),
(48.34,-55.176,o),
(48.34,-74.707,qs),
(48.34,-98.145,o),
(64.453,-116.699,qs),
(115.234,-173.828,o),
(186.279,-198.242,o),
(257.324,-222.656,o),
(334.961,-225.098,qs),
(348.145,-225.586,o),
(361.328,-225.586,qs),
(425.781,-225.586,o),
(490.723,-214.844,qs),
(568.848,-201.66,o),
(634.277,-185.059,qs),
(643.066,-182.617,o),
(646.484,-182.617,qs),
(648.438,-182.617,o),
(648.438,-183.594,qs),
(648.438,-184.082,o),
(647.949,-185.059,qs)
);
}
);
width = 683;
},
{
associatedMasterId = "EF321139-F770-433D-B2B6-C3EFA1B16465";
layerId = "27E784D8-1463-4AAD-B51E-46A1ED9AB964";
name = Back;
shapes = (
{
closed = 1;
nodes = (
(328.613,369.629,o),
(341.309,379.395,o),
(354.004,389.16,o),
(364.746,398.926,q),
(352.539,420.898,o),
(313.965,420.898,qs),
(309.57,420.898,o),
(304.932,420.654,o),
(300.293,420.41,o),
(294.922,419.922,qs),
(266.602,416.504,o),
(246.582,412.109,o),
(226.562,407.715,o),
(215.332,401.855,q),
(220.215,390.625,o),
(225.586,380.859,o),
(230.957,371.094,o),
(238.281,361.328,q),
(238.281,361.816,l),
(244.629,353.027,o),
(250.488,343.262,o),
(256.348,333.496,o),
(261.719,323.73,q),
(313.477,359.863,l)
);
},
{
closed = 1;
nodes = (
(580.078,-247.559,o),
(479.98,-293.945,q),
(480.469,-293.945,l),
(431.152,-317.383,o),
(382.08,-330.566,o),
(333.008,-343.75,o),
(282.227,-346.68,qs),
(274.902,-347.168,o),
(267.578,-347.412,o),
(260.254,-347.656,o),
(253.418,-347.656,qs),
(212.402,-347.656,o),
(174.561,-339.111,o),
(136.719,-330.566,o),
(102.051,-313.965,q),
(61.523,-293.457,o),
(35.4,-258.301,o),
(9.277,-223.145,o),
(-1.465,-173.828,qs),
(-3.906,-160.645,o),
(-5.371,-146.973,o),
(-6.836,-133.301,o),
(-6.836,-118.652,qs),
(-6.836,-34.668,o),
(42.48,63.965,q),
(103.027,186.523,o),
(165.039,247.07,q),
(128.418,293.457,o),
(128.418,353.027,qs),
(128.418,363.77,o),
(129.639,374.756,o),
(130.859,385.742,o),
(133.789,398.438,q),
(133.301,397.949,l),
(151.367,490.723,o),
(203.613,528.32,q),
(237.793,552.246,o),
(305.664,563.477,qs),
(316.895,565.43,o),
(327.881,566.162,o),
(338.867,566.895,o),
(350.098,566.895,qs),
(390.625,566.895,o),
(423.828,553.223,q),
(461.914,536.621,o),
(461.914,494.141,qs),
(461.914,472.168,o),
(451.66,444.336,q),
(438.965,406.738,o),
(427.246,380.371,o),
(415.527,354.004,o),
(404.785,339.355,qs),
(381.348,307.129,o),
(353.516,280.762,o),
(325.684,254.395,o),
(298.828,230.957,q),
(292.48,224.609,l),
(285.645,219.238,o),
(276.367,210.938,o),
(267.09,202.637,o),
(255.371,191.895,qs),
(225.098,164.062,l),
(225.098,164.551,l),
(201.66,143.555,o),
(179.688,120.605,o),
(157.715,97.656,o),
(136.719,72.754,qs),
(116.211,48.34,o),
(100.342,24.17,o),
(84.473,0,o),
(73.242,-24.414,qs),
(63.965,-43.457,o),
(63.965,-60.547,qs),
(63.965,-69.336,o),
(67.383,-77.393,o),
(70.801,-85.449,o),
(76.66,-92.773,q),
(124.512,-146.484,o),
(188.965,-168.457,qs),
(255.371,-191.406,o),
(329.59,-193.848,qs),
(335.938,-194.336,o),
(342.041,-194.336,o),
(348.145,-194.336,o),
(354.492,-194.336,qs),
(414.551,-194.336,o),
(477.539,-184.082,qs),
(517.09,-177.246,o),
(551.27,-170.41,o),
(585.449,-163.574,o),
(615.723,-155.762,q),
(625,-152.832,o),
(630.371,-152.832,qs),
(638.184,-152.832,o),
(641.113,-156.982,o),
(644.043,-161.133,o),
(644.043,-165.527,qs),
(644.043,-167.969,o),
(643.555,-170.41,o),
(643.066,-172.852,o),
(640.137,-175.293,qs),
(640.625,-174.805,l)
);
}
);
width = 683;
}
);
unicode = 1581;
},
{
glyphname = "hah-ar.fina";
layers = (
{
anchors = (
{
name = bottom.mark;
pos = (294,-545);
},
{
name = center;
pos = (382,73);
},
{
name = entry;
pos = (147,424);
},
{
name = top;
pos = (158,760);
},
{
name = top.mark;
pos = (141,773);
}
);
layerId = "1467EB51-6BD4-4CFC-AEAA-3E4EB1A95CFA";
shapes = (
{
closed = 1;
nodes = (
(384,404,o),
(381,408,o),
(379,409,cs),
(348,416,o),
(310,419,o),
(264,419,cs),
(218,419,o),
(184,417,o),
(161,413,cs),
(149,410,o),
(145,417,o),
(148,432,cs),
(157,474,o),
(191,530,o),
(207,554,c),
(223,558,o),
(259,560,o),
(312,560,cs),
(365,560,o),
(404,556,o),
(429,546,cs),
(462,532,o),
(469,499,o),
(451,448,cs),
(433,397,o),
(417,362,o),
(404,343,cs),
(372,299,o),
(329,262,o),
(289,227,cs),
(275,215,o),
(251,193,o),
(219,164,cs),
(160,111,o),
(93,38,o),
(59,-35,cs),
(43,-69,o),
(45,-98,o),
(65,-120,cs),
(126,-189,o),
(218,-224,o),
(335,-228,cs),
(387,-230,o),
(439,-227,o),
(491,-218,cs),
(569,-205,o),
(617,-195,o),
(635,-188,cs),
(638,-187,o),
(641,-187,o),
(645,-186,cs),
(649,-185,o),
(650,-186,o),
(648,-188,cs),
(607,-237,o),
(554,-277,o),
(487,-308,cs),
(371,-362,o),
(227,-388,o),
(106,-329,cs),
(53,-303,o),
(19,-257,o),
(5,-192,cs),
(-10,-121,o),
(5,-42,o),
(49,46,cs),
(93,134,o),
(137,199,o),
(182,240,c),
(261,301,l),
(300,329,o),
(353,363,o),
(387,395,c)
);
}
);
width = 188;
},
{
anchors = (
{
name = bottom;
pos = (382,24);
},
{
name = bottom.mark;
pos = (294,-545);
},
{
name = center;
pos = (382,73);
},
{
name = entry;
pos = (147,424);
},
{
name = top;
pos = (158,760);
},
{
name = top.mark;
pos = (141,773);
}
);
layerId = "EF321139-F770-433D-B2B6-C3EFA1B16465";
shapes = (
{
closed = 1;
nodes = (
(566,-269,o),
(414,-351,o),
(254,-351,cs),
(199,-351,o),
(150,-339,o),
(103,-316,cs),
(50,-289,o),
(15,-241,o),
(0,-176,cs),
(-4,-159,o),
(-6,-141,o),
(-6,-121,cs),
(-6,-66,o),
(9,-4,o),
(42,62,c),
(85,148,o),
(129,211,o),
(173,252,c),
(250,312,l),
(287,340,o),
(331,367,o),
(366,397,c),
(337,403,o),
(306,405,o),
(271,405,c),
(239,406,o),
(209,404,o),
(183,400,c),
(184,400,l),
(143,392,o),
(147,442,o),
(157,475,c),
(163,493,o),
(171,509,o),
(179,525,cs),
(187,539,o),
(191,548,o),
(191,549,cs),
(192,553,o),
(197,557,o),
(200,558,cs),
(218,562,o),
(253,565,o),
(305,565,cs),
(359,565,o),
(399,560,o),
(424,550,c),
(450,539,o),
(462,519,o),
(462,491,cs),
(462,476,o),
(459,460,o),
(452,441,cs),
(438,400,o),
(424,365,o),
(405,336,c),
(375,295,o),
(336,261,o),
(299,228,c),
(286,215,o),
(271,203,o),
(256,189,cs),
(226,161,l),
(226,162,l),
(169,111,o),
(106,43,o),
(73,-27,cs),
(67,-40,o),
(64,-52,o),
(64,-63,cs),
(64,-77,o),
(70,-88,o),
(77,-96,c),
(124,-149,o),
(179,-175,o),
(258,-189,cs),
(286,-194,o),
(314,-197,o),
(344,-197,cs),
(351,-197,o),
(350,-197,o),
(357,-197,cs),
(396,-197,o),
(437,-194,o),
(479,-187,c),
(519,-180,o),
(571,-171,o),
(604,-162,cs),
(618,-158,o),
(646,-147,o),
(649,-164,cs),
(649,-167,o),
(647,-172,o),
(641,-178,c),
(641,-177,l)
);
}
);
width = 188;
},
{
associatedMasterId = "1467EB51-6BD4-4CFC-AEAA-3E4EB1A95CFA";
layerId = "E2EFFA43-7456-4526-99BB-AB84A515EE0D";
name = Back;
shapes = (
{
closed = 1;
nodes = (
(382.324,408.203,o),
(379.395,409.18,qs),
(332.52,419.434,o),
(263.672,419.434,o),
(194.824,419.434,o),
(160.645,413.086,q),
(143.066,409.18,o),
(148.193,432.129,o),
(153.32,455.078,o),
(165.039,478.516,qs),
(189.453,526.855,o),
(207.031,553.711,q),
(231.445,559.57,o),
(311.523,560.059,o),
(391.602,560.547,o),
(428.711,545.898,q),
(478.027,525.391,o),
(450.928,448.486,o),
(423.828,371.582,o),
(403.809,343.262,q),
(378.906,309.082,o),
(348.633,280.762,o),
(318.359,252.441,o),
(289.062,226.562,qs),
(268.066,208.008,o),
(219.482,164.062,o),
(170.898,120.117,o),
(126.953,68.115,o),
(83.008,16.113,o),
(59.326,-35.156,o),
(35.645,-86.426,o),
(64.941,-119.629,qs),
(115.723,-176.758,o),
(186.768,-201.172,o),
(257.812,-225.586,o),
(335.449,-228.271,o),
(413.086,-230.957,o),
(491.211,-217.773,qs),
(607.91,-198.242,o),
(634.766,-187.988,qs),
(638.672,-186.523,o),
(645.02,-185.547,o),
(651.367,-184.57,o),
(648.438,-187.988,qs),
(587.402,-261.719,o),
(487.061,-308.35,o),
(386.719,-354.98,o),
(286.377,-361.816,o),
(186.035,-368.652,o),
(105.957,-329.346,o),
(25.879,-290.039,o),
(5.371,-191.895,qs),
(-16.602,-85.938,o),
(49.072,45.898,o),
(114.746,177.734,o),
(182.129,239.746,q),
(260.742,301.27,l),
(291.016,323.242,o),
(326.172,347.168,o),
(361.328,371.094,o),
(387.207,395.02,q)
);
}
);
width = 188;
},
{
associatedMasterId = "EF321139-F770-433D-B2B6-C3EFA1B16465";
layerId = "75F6211A-2A74-4412-8E85-38748CDA8CDA";
name = Back;
shapes = (
{
closed = 1;
nodes = (
(329.102,367.676,o),
(342.041,377.441,o),
(354.98,387.207,o),
(366.211,396.973,q),
(323.242,405.273,o),
(271.484,405.273,q),
(245.117,405.762,o),
(222.9,404.297,o),
(200.684,402.832,o),
(183.105,399.902,q),
(183.594,400.391,l),
(152.832,394.531,o),
(150.879,426.27,qs),
(149.414,447.754,o),
(157.227,475.098,q),
(166.016,501.465,o),
(178.711,525.391,qs),
(190.43,546.875,o),
(190.918,548.828,qs),
(191.406,551.758,o),
(194.336,554.443,o),
(197.266,557.129,o),
(199.707,558.105,qs),
(226.562,564.453,o),
(305.176,564.941,qs),
(385.742,565.43,o),
(423.828,550.293,q),
(462.402,533.691,o),
(462.402,491.211,qs),
(462.402,468.75,o),
(452.148,440.918,q),
(438.965,402.832,o),
(427.246,377.197,o),
(415.527,351.562,o),
(405.273,336.426,q),
(381.836,304.199,o),
(354.004,277.832,o),
(326.172,251.465,o),
(299.316,228.027,q),
(292.969,221.68,l),
(286.133,216.309,o),
(276.855,208.008,o),
(267.578,199.707,o),
(255.859,188.965,qs),
(225.586,161.133,l),
(225.586,161.621,l),
(202.148,140.625,o),
(180.176,117.676,o),
(158.203,94.727,o),
(137.207,69.824,qs),
(96.191,21.484,o),
(73.242,-27.344,q),
(73.242,-26.855,l),
(64.453,-46.875,o),
(64.453,-62.988,qs),
(64.453,-72.266,o),
(67.871,-80.322,o),
(71.289,-88.379,o),
(77.148,-95.703,q),
(125,-149.414,o),
(189.453,-171.387,qs),
(223.145,-183.105,o),
(258.301,-189.453,o),
(293.457,-195.801,o),
(330.078,-196.777,qs),
(336.914,-197.266,o),
(343.506,-197.266,o),
(350.098,-197.266,o),
(356.934,-197.266,qs),
(415.527,-197.266,o),
(478.516,-187.012,q),
(517.09,-180.176,o),
(551.514,-173.34,o),
(585.938,-166.504,o),
(604.004,-161.621,o),
(622.07,-156.738,o),
(629.883,-155.762,o),
(637.695,-154.785,o),
(642.822,-156.738,o),
(647.949,-158.691,o),
(648.682,-163.574,o),
(649.414,-168.457,o),
(641.113,-177.734,q),
(641.113,-177.246,l),
(581.055,-250.488,o),
(480.469,-296.875,q),
(480.957,-296.875,l),
(382.812,-343.262,o),
(282.227,-349.609,qs),
(275.391,-350.098,o),
(268.311,-350.342,o),
(261.23,-350.586,o),
(254.395,-350.586,qs),
(172.363,-350.586,o),
(102.539,-316.406,qs),
(62.5,-296.387,o),
(36.621,-260.498,o),
(10.742,-224.609,o),
(-0.488,-175.781,qs),
(-3.906,-162.109,o),
(-5.127,-148.438,o),
(-6.348,-134.766,o),
(-6.348,-120.605,qs),
(-6.348,-37.598,o),
(42.48,61.523,q),
(107.422,190.918,o),
(173.34,252.441,q),
(250,312.5,ls),
(264.16,323.242,o),
(280.518,334.473,o),
(296.875,345.703,o),
(313.965,356.934,q)
);
}
);
width = 188;
}
);
},
{
glyphname = "hah-ar.medi";
layers = (
{
anchors = (
{
name = bottom;
pos = (316,-88);
},
{
name = bottom.mark;
pos = (312,-145);
},
{
name = entry;
pos = (225,284);
},
{
name = exit;
},
{
name = top;
pos = (180,620);
},
{
name = top.mark;
pos = (176,580);
}
);
layerId = "1467EB51-6BD4-4CFC-AEAA-3E4EB1A95CFA";
shapes = (
{
closed = 1;
nodes = (
(399,241,o),
(402,244,o),
(404,247,c),
(397,271,o),
(329,274,o),
(293,275,cs),
(263,276,o),
(242,278,o),
(229,281,cs),
(223,282,o),
(223,288,o),
(228,300,cs),
(245,339,o),
(264,374,o),
(282,412,c),
(282,412,l),
(303,413,o),
(337,410,o),
(383,403,cs),
(429,396,o),
(461,386,o),
(479,372,cs),
(491,363,o),
(494,349,o),
(486,331,cs),
(463,277,o),
(442,242,o),
(413,197,cs),
(364,123,o),
(234,59,o),
(23,5,c),
(12,3,o),
(4,1,o),
(0,0,c),
(24,129,l),
(25,129,l),
(27,129,l),
(27,130,l),
(181,150,o),
(303,186,o),
(393,238,c)
);
}
);
width = 281;
},
{
anchors = (
{
name = bottom;
pos = (316,-88);
},
{
name = bottom.mark;
pos = (312,-145);
},
{
name = entry;
pos = (225,284);
},
{
name = exit;
},
{
name = top;
pos = (180,620);
},
{
name = top.mark;
pos = (176,580);
}
);
layerId = "EF321139-F770-433D-B2B6-C3EFA1B16465";
shapes = (
{
closed = 1;
nodes = (
(167,167,o),
(284,198,o),
(377,252,c),
(373,254,o),
(369,256,o),
(361,258,cs),
(330,264,o),
(286,265,o),
(250,268,cs),
(240,269,o),
(231,269,o),
(224,271,c),
(191,275,o),
(224,330,o),
(230,343,cs),
(239,361,o),
(240,360,o),
(249,379,c),
(248,379,l),
(254,391,o),
(260,403,o),
(266,415,cs),
(267,418,o),
(272,421,o),
(276,421,cs),
(309,423,o),
(341,418,o),
(376,413,cs),
(420,406,o),
(469,398,o),
(486,367,cs),
(489,362,o),
(490,356,o),
(490,350,cs),
(490,334,o),
(481,318,o),
(476,306,cs),
(460,270,o),
(441,240,o),
(421,208,c),
(413,195,l),
(388,159,o),
(343,125,o),
(279,93,cs),
(215,61,o),
(132,31,o),
(29,5,c),
(6,0,ls),
(-3,-2,o),
(-10,5,o),
(-8,14,cs),
(17,139,ls),
(18,144,o),
(24,148,o),
(29,148,c),
(31,149,l)
);
}
);
width = 281;
},
{
associatedMasterId = "1467EB51-6BD4-4CFC-AEAA-3E4EB1A95CFA";
layerId = "18C26FA8-AD75-4A59-B5CB-7945B2413C31";
name = Back;
shapes = (
{
closed = 1;
nodes = (
(401.367,242.188,o),
(403.809,247.07,q),
(400.391,259.277,o),
(371.582,266.113,qs),
(338.867,273.438,o),
(293.457,274.902,o),
(248.047,276.367,o),
(229.004,280.762,q),
(220.215,282.227,o),
(227.539,299.805,qs),
(239.746,328.125,o),
(253.662,355.225,o),
(267.578,382.324,o),
(281.738,411.621,q),
(282.227,411.621,l),
(313.477,413.086,o),
(382.812,402.832,o),
(452.148,392.578,o),
(479.492,371.582,q),
(497.07,357.422,o),
(485.596,330.566,o),
(474.121,303.711,o),
(467.285,289.062,qs),
(455.078,264.16,o),
(441.162,241.943,o),
(427.246,219.727,o),
(412.598,196.777,qs),
(339.355,85.449,o),
(22.949,4.883,q),
(22.949,4.883,l),
(5.859,1.465,o),
(0,0,q),
(0,0,l),
(24.414,128.906,l),
(25.391,128.906,l),
(26.855,129.395,l),
(27.344,129.883,l),
(258.789,159.668,o),
(393.066,238.281,q)
);
}
);
width = 281;
},
{
associatedMasterId = "EF321139-F770-433D-B2B6-C3EFA1B16465";
layerId = "1A3605EA-8D81-4554-B8E8-C279B71E524E";
name = Back;
shapes = (
{
closed = 1;
nodes = (
(139.648,163.574,o),
(226.318,188.965,o),
(312.988,214.355,o),
(377.441,251.953,q),
(372.07,254.883,o),
(360.352,257.812,q),
(360.84,257.812,l),
(345.703,260.742,o),
(327.637,262.695,o),
(309.57,264.648,o),
(287.109,265.625,qs),
(265.137,266.602,o),
(249.512,267.822,o),
(233.887,269.043,o),
(223.633,271.484,q),
(212.402,272.949,o),
(209.473,281.982,o),
(206.543,291.016,o),
(213.379,306.152,qs),
(221.191,324.707,o),
(230.225,342.773,o),
(239.258,360.84,o),
(248.535,379.395,q),
(248.047,379.395,l),
(252.441,388.184,o),
(257.08,396.973,o),
(261.719,405.762,o),
(266.113,414.551,qs),
(267.09,416.992,o),
(270.508,419.189,o),
(273.926,421.387,o),
(276.367,421.387,qs),
(292.48,422.363,o),
(317.139,420.166,o),
(341.797,417.969,o),
(375.977,413.086,qs),
(411.133,407.715,o),
(435.791,399.658,o),
(460.449,391.602,o),
(474.609,380.371,qs),
(481.445,374.512,o),
(485.596,366.943,o),
(489.746,359.375,o),
(489.746,350.098,qs),
(489.746,344.727,o),
(488.037,338.867,o),
(486.328,333.008,o),
(483.887,326.66,qs),
(479.492,315.43,o),
(475.586,306.396,o),
(471.68,297.363,o),
(468.262,290.527,qs),
(467.285,289.551,o),
(467.041,288.33,o),
(466.797,287.109,o),
(466.309,286.133,qs),
(456.543,265.625,o),
(445.068,246.826,o),
(433.594,228.027,o),
(421.387,208.496,q),
(412.598,195.312,l),
(375,140.625,o),
(279.053,92.529,o),
(183.105,44.434,o),
(28.809,4.883,q),
(6.348,0,ls),
(-0.488,-1.465,o),
(-4.883,2.93,o),
(-9.277,7.324,o),
(-7.812,14.16,qs),
(17.09,138.672,ls),
(17.578,142.578,o),
(21.24,145.264,o),
(24.902,147.949,o),
(28.809,147.949,q),
(30.762,148.926,l),
(29.297,148.926,l)
);
}
);
width = 281;
}
);
},
{
glyphname = "hah-ar.medi.ain";
layers = (
{
anchors = (
{
name = bottom;
pos = (422,-105);
},
{
name = bottom.mark;
pos = (413,-127);
},
{
name = entry;
pos = (339,278);
},
{
name = exit;
},
{
name = top;
pos = (422,628);
},
{
name = top.mark;
pos = (237,497);
}
);
layerId = "1467EB51-6BD4-4CFC-AEAA-3E4EB1A95CFA";
shapes = (
{
closed = 1;
nodes = (
(513,234,o),
(516,237,o),
(518,240,c),
(516,248,o),
(505,254,o),
(485,259,cs),
(464,264,o),
(438,267,o),
(408,268,cs),
(378,269,o),
(356,270,o),
(343,273,cs),
(337,274,o),
(337,280,o),
(342,292,cs),
(359,331,o),
(378,366,o),
(396,404,c),
(396,404,l),
(419,398,o),
(454,395,o),
(499,391,cs),
(544,387,o),
(575,378,o),
(593,364,cs),
(605,355,o),
(607,341,o),
(600,323,cs),
(577,269,o),
(556,234,o),
(527,189,cs),
(464,94,o),
(353,32,o),
(221,9,cs),
(166,0,o),
(111,-2,o),
(56,3,cs),
(28,6,o),
(1,20,o),
(0,49,c),
(13,99,o),
(26,142,o),
(39,177,c),
(45,156,o),
(60,142,o),
(84,134,c),
(111,124,o),
(150,122,o),
(202,129,cs),
(319,144,o),
(413,181,o),
(507,231,cs)
);
}
);
width = 395;
},
{
anchors = (
{
name = bottom;
pos = (422,-105);
},
{
name = bottom.mark;
pos = (413,-127);
},
{
name = entry;
pos = (339,278);
},
{
name = exit;
},
{
name = top;
pos = (422,628);
},
{
name = top.mark;
pos = (237,497);
}
);
layerId = "EF321139-F770-433D-B2B6-C3EFA1B16465";
shapes = (
{
closed = 1;
nodes = (
(263,153,o),
(340,178,o),
(412,208,cs),
(438,219,o),
(463,231,o),
(489,245,c),
(463,254,o),
(436,258,o),
(398,259,cs),
(374,260,o),
(353,260,o),
(335,264,c),
(303,269,o),
(334,321,o),
(342,336,cs),
(348,348,o),
(354,360,o),
(360,372,c),
(359,372,l),
(365,384,o),
(371,396,o),
(377,408,cs),
(379,412,o),
(385,416,o),
(391,414,cs),
(419,408,o),
(451,404,o),
(488,401,cs),
(529,398,o),
(563,391,o),
(585,373,cs),
(595,365,o),
(601,355,o),
(601,343,cs),
(601,336,o),
(598,329,o),
(595,320,cs),
(591,311,o),
(588,303,o),
(585,296,cs),
(581,286,o),
(581,286,o),
(578,279,cs),
(562,247,o),
(543,217,o),
(523,188,cs),
(470,107,o),
(384,54,o),
(281,23,cs),
(232,8,o),
(180,0,o),
(118,0,cs),
(80,0,o),
(39,2,o),
(16,18,c),
(1,27,o),
(-7,41,o),
(-7,61,c),
(5,106,o),
(17,148,o),
(32,187,cs),
(34,191,o),
(37,195,o),
(43,195,cs),
(49,195,o),
(52,191,o),
(54,186,cs),
(62,155,o),
(101,145,o),
(145,145,cs),
(153,145,o),
(161,145,o),
(170,146,cs)
);
}
);
width = 395;
},
{
associatedMasterId = "1467EB51-6BD4-4CFC-AEAA-3E4EB1A95CFA";
layerId = "4F0FB157-39A8-4604-A48A-E8755CC393AB";
name = Back;
shapes = (
{
closed = 1;
nodes = (
(515.625,234.863,o),
(518.066,239.746,q),
(514.648,251.953,o),
(485.352,258.789,qs),
(453.125,266.113,o),
(407.715,267.578,o),
(362.305,269.043,o),
(343.262,273.438,q),
(334.473,274.902,o),
(341.797,292.48,qs),
(354.004,320.801,o),
(367.92,347.9,o),
(381.836,375,o),
(395.996,404.297,q),
(396.484,404.297,l),
(430.664,395.996,o),
(498.535,390.625,o),
(566.406,385.254,o),
(593.262,364.258,qs),
(610.84,350.098,o),
(599.609,323.242,o),
(588.379,296.387,o),
(581.543,282.227,qs),
(569.336,256.836,o),
(555.42,234.619,o),
(541.504,212.402,o),
(526.855,189.453,qs),
(497.07,144.531,o),
(454.59,110.352,qs),
(404.785,69.824,o),
(343.994,44.922,o),
(283.203,20.02,o),
(221.191,9.277,q),
(138.184,-4.395,o),
(56.152,3.418,qs),
(35.156,5.371,o),
(18.066,16.357,o),
(0.977,27.344,o),
(0,49.316,q),
(19.043,124.023,o),
(39.062,176.758,q),
(47.852,145.996,o),
(84.473,133.789,q),
(124.512,119.141,o),
(202.148,129.395,qs),
(273.438,138.672,o),
(347.168,162.109,qs),
(424.805,187.012,o),
(507.324,230.957,qs)
);
}
);
width = 395;
},
{
associatedMasterId = "EF321139-F770-433D-B2B6-C3EFA1B16465";
layerId = "BD9E1A58-DEC5-4497-AF68-4703758AFAA8";
name = Back;
shapes = (
{
closed = 1;
nodes = (
(373.047,191.895,o),
(411.865,208.008,o),
(450.684,224.121,o),
(489.258,245.117,q),
(486.328,246.094,o),
(481.934,247.559,o),
(477.539,249.023,o),
(471.191,250.488,qs),
(441.406,257.324,o),
(398.438,258.789,qs),
(376.465,259.277,o),
(360.84,260.498,o),
(345.215,261.719,o),
(334.961,264.16,q),
(311.035,268.066,o),
(324.707,299.316,qs),
(332.52,317.871,o),
(341.553,335.693,o),
(350.586,353.516,o),
(359.863,372.07,q),
(359.375,372.07,l),
(363.77,381.348,o),
(368.408,390.137,o),
(373.047,398.926,o),
(377.441,407.715,qs),
(379.395,411.621,o),
(383.301,413.086,o),
(387.207,414.551,o),
(391.113,413.574,qs),
(406.738,410.156,o),
(430.664,406.738,o),
(454.59,403.32,o),
(487.793,400.879,qs),
(522.949,398.438,o),
(547.119,391.357,o),
(571.289,384.277,o),
(585.449,373.047,qs),
(600.586,360.84,o),
(600.586,342.773,qs),
(600.586,332.52,o),
(595.215,319.336,q),
(595.215,319.824,l),
(589.844,306.641,o),
(585.449,296.387,o),
(581.055,286.133,o),
(578.125,279.297,qs),
(568.359,259.766,o),
(556.641,240.723,o),
(544.922,221.68,o),
(532.227,201.66,q),
(532.715,202.148,l),
(530.762,198.73,o),
(528.076,194.824,o),
(525.391,190.918,o),
(523.438,187.988,qs),
(509.277,166.504,o),
(491.211,146.484,o),
(473.145,126.465,o),
(452.148,109.375,q),
(427.734,90.332,o),
(399.658,73.975,o),
(371.582,57.617,o),
(341.797,44.922,o),
(312.012,32.227,o),
(281.25,22.949,o),
(250.488,13.672,o),
(220.703,8.789,qs),
(194.824,4.883,o),
(169.434,2.686,o),
(144.043,0.488,o),
(117.676,0.488,qs),
(87.402,0.488,o),
(58.105,3.418,qs),
(46.387,4.395,o),
(36.133,7.568,o),
(25.879,10.742,o),
(16.113,17.578,q),
(-6.348,31.25,o),
(-6.836,60.547,q),
(2.93,97.656,o),
(12.451,129.15,o),
(21.973,160.645,o),
(31.738,187.012,qs),
(33.203,190.918,o),
(36.621,192.871,o),
(40.039,194.824,o),
(43.457,194.824,o),
(46.875,194.824,o),
(49.805,192.627,o),
(52.734,190.43,o),
(54.199,186.035,qs),
(60.547,162.109,o),
(90.332,151.855,qs),
(110.84,144.531,o),
(144.531,144.531,qs),
(156.25,144.531,o),
(169.922,145.508,o),
(183.594,146.484,o),
(199.219,148.438,qs),
(231.934,152.832,o),
(267.09,160.645,o),
(302.246,168.457,o),
(336.914,179.688,qs)
);
}
);
width = 395;
}
);
},
{
glyphname = "hah-ar.medi.dal";
layers = (
{
anchors = (
{
name = bottom;
pos = (308,-123);
},
{
name = bottom.mark;
pos = (334,-119);
},
{
name = entry;
pos = (237,261);
},
{
name = exit;
},
{
name = top;
pos = (229,602);
},
{
name = top.mark;
pos = (264,615);
}
);
layerId = "1467EB51-6BD4-4CFC-AEAA-3E4EB1A95CFA";
shapes = (
{
closed = 1;
nodes = (
(-24,48,o),
(28,157,o),
(60,200,cs),
(65,208,o),
(67,208,o),
(67,200,c),
(52,89,o),
(215,113,o),
(402,212,cs),
(422.791,224.994,o),
(420.015,234.996,o),
(384,244,cs),
(363,249,o),
(336,252,o),
(306,253,cs),
(276,254,o),
(254,256,o),
(241,259,c),
(235,260,o),
(235,266,o),
(240,278,cs),
(256,317,o),
(276,352,o),
(294,390,c),
(295,390,l),
(317,384,o),
(351,380,o),
(396,376,cs),
(441,372,o),
(474,364,o),
(492,350,cs),
(502,342,o),
(505,327,o),
(498,306,cs),
(482,257,o),
(446.769,200.198,o),
(409,156,cs),
(315,46,o),
(112,-27,o),
(47,9,cs)
);
}
);
width = 291;
},
{
anchors = (
{
name = bottom;
pos = (308,-123);
},
{
name = bottom.mark;
pos = (334,-119);
},
{
name = entry;
pos = (237,261);
},
{
name = exit;
},
{
name = top;
pos = (229,602);
},
{
name = top.mark;
pos = (264,615);
}
);
layerId = "EF321139-F770-433D-B2B6-C3EFA1B16465";
shapes = (
{
closed = 1;
nodes = (
(37,0,o),
(3,33,o),
(3,80,cs),
(3,90,o),
(4,98,o),
(6,107,cs),
(15,149,o),
(31,184,o),
(52,212,c),
(70,237,o),
(81,244,o),
(81,203,c),
(78,180,o),
(87,157,o),
(104,152,cs),
(116,148,o),
(128,146,o),
(143,146,cs),
(169,146,o),
(194,152,o),
(215,157,cs),
(264,169,o),
(314,191,o),
(356,211,cs),
(369,217,o),
(380,222,o),
(387,227,cs),
(389,229,o),
(390,228,o),
(392,230,c),
(366,239,o),
(335,243,o),
(300,245,cs),
(275,246,o),
(255,246,o),
(236,250,c),
(204,253,o),
(235,309,o),
(242,323,cs),
(248,336,o),
(254,347,o),
(261,360,cs),
(279,394,ls),
(281,398,o),
(286,401,o),
(292,399,cs),
(320,393,o),
(352,390,o),
(388,387,cs),
(434,384,o),
(466,374,o),
(486,358,cs),
(495,351,o),
(500,341,o),
(500,328,cs),
(500,321,o),
(499,313,o),
(497,304,c),
(485,269,o),
(465,232,o),
(438,193,c),
(438,193,l),
(387,120,o),
(324,73,o),
(244,38,cs),
(195,17,o),
(150,0,o),
(91,0,cs)
);
}
);
width = 291;
},
{
associatedMasterId = "1467EB51-6BD4-4CFC-AEAA-3E4EB1A95CFA";
layerId = "4E3AAEE9-C8AC-4428-8BD1-695EFBC17FF8";
name = Back;
shapes = (
{
closed = 1;
nodes = (
(245.605,22.949,o),
(128.418,3.906,qs),
(108.887,0.977,o),
(86.67,0.488,o),
(64.453,0,o),
(46.875,9.277,qs),
(0,35.156,o),
(13.672,96.436,o),
(27.344,157.715,o),
(59.57,200.195,q),
(67.383,211.914,o),
(67.383,199.707,q),
(64.453,177.734,o),
(72.754,158.203,o),
(81.055,138.672,o),
(99.121,133.301,qs),
(127.441,124.512,o),
(159.424,127.686,o),
(191.406,130.859,o),
(220.703,138.672,q),
(247.07,145.02,o),
(273.438,154.785,o),
(299.805,164.551,o),
(323.73,174.805,qs),
(348.633,185.059,o),
(368.896,195.068,o),
(389.16,205.078,o),
(401.855,211.914,q),
(413.574,219.727,o),
(416.016,225.098,q),
(413.086,237.305,o),
(383.789,244.141,qs),
(351.562,251.465,o),
(306.152,252.93,o),
(260.742,254.395,o),
(241.211,258.789,q),
(232.91,259.766,o),
(240.234,277.832,qs),
(251.953,306.152,o),
(265.869,333.252,o),
(279.785,360.352,o),
(293.945,389.648,q),
(294.922,389.648,l),
(328.613,381.348,o),
(396.484,375.977,o),
(464.355,370.605,o),
(491.699,349.609,q),
(507.324,336.914,o),
(497.559,306.152,qs),
(479.98,252.441,o),
(439.209,194.336,o),
(398.438,136.23,o),
(354.492,103.516,qs)
);
}
);
width = 291;
},
{
associatedMasterId = "EF321139-F770-433D-B2B6-C3EFA1B16465";
layerId = "60EA2536-E9EB-4FF9-8A64-85D051A87E7B";
name = Back;
shapes = (
{
closed = 1;
nodes = (
(301.27,62.988,o),
(244.141,38.33,o),
(187.012,13.672,o),
(130.371,3.906,qs),
(122.07,2.441,o),
(111.816,1.465,o),
(101.562,0.488,o),
(91.309,0.488,qs),
(78.613,0.488,o),
(66.65,2.686,o),
(54.688,4.883,o),
(43.945,10.254,qs),
(2.93,32.715,o),
(2.93,79.59,qs),
(2.93,85.449,o),
(3.662,92.285,o),
(4.395,99.121,o),
(6.348,106.934,qs),
(20.508,170.41,o),
(52.246,212.402,q),
(51.758,211.914,l),
(67.383,233.887,o),
(74.219,232.178,o),
(81.055,230.469,o),
(81.055,203.125,q),
(79.102,186.035,o),
(84.961,170.898,o),
(90.82,155.762,o),
(103.516,151.855,qs),
(113.281,148.926,o),
(123.291,147.705,o),
(133.301,146.484,o),
(143.066,146.484,qs),
(161.133,146.484,o),
(179.443,149.658,o),
(197.754,152.832,o),
(214.844,157.227,qs),
(239.258,163.086,o),
(264.16,172.363,o),
(289.062,181.641,o),
(312.5,191.406,qs),
(337.402,201.66,o),
(356.445,210.693,o),
(375.488,219.727,o),
(386.719,226.562,q),
(388.184,228.027,ls),
(389.16,229.004,o),
(389.893,229.248,o),
(390.625,229.492,o),
(391.602,230.469,q),
(388.672,231.445,o),
(384.033,233.154,o),
(379.395,234.863,o),
(372.559,236.328,qs),
(357.91,239.746,o),
(339.844,241.699,o),
(321.777,243.652,o),
(299.805,244.629,qs),
(277.832,245.117,o),
(262.207,246.338,o),
(246.582,247.559,o),
(235.84,250,q),
(212.891,252.441,o),
(225.586,284.668,qs),
(233.398,303.711,o),
(242.432,322.51,o),
(251.465,341.309,o),
(261.23,360.352,qs),
(278.809,394.043,ls),
(280.762,397.461,o),
(284.668,398.926,o),
(288.574,400.391,o),
(291.992,399.414,qs),
(307.617,395.996,o),
(331.543,392.578,o),
(355.469,389.16,o),
(388.184,386.719,qs),
(456.543,382.324,o),
(486.328,358.398,qs),
(500,347.656,o),
(500,328.125,qs),
(500,316.895,o),
(496.582,303.711,q),
(479.004,251.465,o),
(437.988,192.871,q),
(438.477,192.871,l),
(398.926,135.742,o),
(354.004,102.539,qs)
);
}
);
width = 291;
}
);
},
{
glyphname = "hah-ar.medi.feh";
layers = (
{
anchors = (
{
name = bottom;
pos = (510,-83);
},
{
name = bottom.mark;
pos = (457,-110);
},
{
name = entry;
pos = (387,279);
},
{
name = exit;
},
{
name = top;
pos = (365,650);
},
{
name = top.mark;
pos = (396,633);
}
);
layerId = "1467EB51-6BD4-4CFC-AEAA-3E4EB1A95CFA";
shapes = (
{
closed = 1;
nodes = (
(169,2,o),
(105,-3,o),
(56,2,cs),
(28,5,o),
(1,19,o),
(0,48,c),
(13,99,o),
(26,142,o),
(39,176,c),
(56,116,o),
(177,126,o),
(248,136,cs),
(369,153,o),
(466,184,o),
(556,232,cs),
(562,235,o),
(564,238,o),
(566,241,c),
(559,265,o),
(492,268,o),
(456,269,cs),
(426,270,o),
(405,271,o),
(392,274,cs),
(386,275,o),
(385,281,o),
(391,293,c),
(407,332,o),
(426,367,o),
(444,405,c),
(445,405,l),
(473,398,o),
(518,396,o),
(551,391,cs),
(583,386,o),
(623,380,o),
(642,365,cs),
(650,358,o),
(653,347,o),
(649,331,cs),
(640,291,o),
(615,249,o),
(594,218,cs),
(537,132,o),
(471,77,o),
(364,44,cs),
(329,33,o),
(290,24,o),
(246,16,cs)
);
}
);
width = 438;
},
{
anchors = (
{
name = bottom;
pos = (510,-83);
},
{
name = bottom.mark;
pos = (457,-110);
},
{
name = entry;
pos = (387,279);
},
{
name = exit;
},
{
name = top;
pos = (365,650);
},
{
name = top.mark;
pos = (396,633);
}
);
layerId = "EF321139-F770-433D-B2B6-C3EFA1B16465";
shapes = (
{
closed = 1;
nodes = (
(396,48,o),
(329,30,o),
(245,16,cs),
(197,7,o),
(150,0,o),
(98,0,cs),
(45,0,o),
(-4,9,o),
(-6,60,c),
(6,105,o),
(17,148,o),
(32,186,cs),
(34,190,o),
(38,194,o),
(44,194,cs),
(50,194,o),
(53,190,o),
(55,185,cs),
(62,156,o),
(112,148,o),
(155,148,cs),
(272,148,o),
(373,177,o),
(459,210,cs),
(486,220,o),
(512,233,o),
(536,246,c),
(533,248,o),
(528,249,o),
(520,251,cs),
(481,260,o),
(422,256,o),
(382,265,c),
(366,267,o),
(363,279,o),
(372,300,c),
(383,326,o),
(395,350,o),
(408,375,cs),
(425,409,l),
(432,419,o),
(446,413,o),
(461,411,cs),
(470,410,o),
(481,408,o),
(492,407,cs),
(536,403,o),
(581,397,o),
(615,383,cs),
(632,376,o),
(646,367,o),
(646,345,cs),
(646,339,o),
(646,333,o),
(644,328,c),
(638,296,o),
(621,269,o),
(607,244,cs),
(570,177,o),
(521,120,o),
(455,83,c),
(456,83,l)
);
}
);
width = 438;
},
{
associatedMasterId = "1467EB51-6BD4-4CFC-AEAA-3E4EB1A95CFA";
layerId = "65FF3633-7D70-4BF5-AFC0-1A1805EC098D";
name = Back;
shapes = (
{
closed = 1;
nodes = (
(130.371,-4.883,o),
(56.152,1.953,qs),
(35.156,3.906,o),
(18.066,15.137,o),
(0.977,26.367,o),
(0,48.34,q),
(19.531,125,o),
(39.062,175.781,q),
(47.852,145.02,o),
(93.75,134.766,qs),
(124.512,127.441,o),
(165.039,128.906,o),
(205.566,130.371,o),
(247.559,136.23,qs),
(322.754,146.484,o),
(384.277,164.062,qs),
(477.051,189.941,o),
(555.664,231.934,qs),
(563.965,235.84,o),
(566.406,240.723,q),
(562.988,252.93,o),
(534.18,259.766,qs),
(501.465,267.09,o),
(456.055,268.555,o),
(410.645,270.02,o),
(391.602,274.414,q),
(382.324,275.879,o),
(390.625,293.457,q),
(402.344,321.777,o),
(416.26,348.877,o),
(430.176,375.977,o),
(444.336,405.273,q),
(444.824,405.273,l),
(462.402,400.879,o),
(491.455,398.193,o),
(520.508,395.508,o),
(550.781,391.113,qs),
(578.613,387.207,o),
(603.76,381.348,o),
(628.906,375.488,o),
(642.09,365.234,q),
(654.297,354.98,o),
(648.682,330.811,o),
(643.066,306.641,o),
(629.395,278.809,qs),
(613.281,246.582,o),
(593.994,217.529,o),
(574.707,188.477,o),
(566.406,178.223,qs),
(521.484,120.605,o),
(459.473,84.961,qs),
(416.504,60.059,o),
(363.77,43.945,o),
(311.035,27.832,o),
(245.605,16.113,qs)
);
}
);
width = 438;
},
{
associatedMasterId = "EF321139-F770-433D-B2B6-C3EFA1B16465";
layerId = "D0D9A1E2-9493-4D0B-B4AC-9407F97CE306";
name = Back;
shapes = (
{
closed = 1;
nodes = (
(203.125,7.812,o),
(166.504,4.15,o),
(129.883,0.488,o),
(97.656,0.488,qs),
(87.891,0.488,o),
(77.637,0.732,o),
(67.383,0.977,o),
(58.105,1.953,qs),
(35.645,4.395,o),
(16.113,16.602,qs),
(-5.371,30.273,o),
(-6.348,59.57,q),
(3.418,97.656,o),
(12.939,129.395,o),
(22.461,161.133,o),
(32.227,186.035,qs),
(33.691,189.941,o),
(37.109,191.895,o),
(40.527,193.848,o),
(43.945,193.848,o),
(47.363,193.848,o),
(50.293,191.65,o),
(53.223,189.453,o),
(54.688,185.059,qs),
(60.547,162.109,o),
(98.633,153.32,qs),
(109.863,150.391,o),
(124.268,149.17,o),
(138.672,147.949,o),
(154.785,147.949,qs),
(175.293,147.949,o),
(197.51,149.902,o),
(219.727,151.855,o),
(243.164,155.273,qs),
(279.785,160.156,o),
(312.012,166.748,o),
(344.238,173.34,o),
(373.535,181.641,qs),
(417.969,194.336,o),
(458.74,209.961,o),
(499.512,225.586,o),
(536.133,245.605,q),
(531.25,248.535,o),
(519.043,251.465,q),
(519.531,251.465,l),
(504.395,254.883,o),
(486.328,256.836,o),
(468.262,258.789,o),
(445.801,259.277,q),
(423.828,260.254,o),
(407.959,261.475,o),
(392.09,262.695,o),
(381.836,265.137,q),
(357.91,268.555,o),
(372.07,300.293,q),
(372.07,299.805,l),
(379.883,318.848,o),
(388.916,337.646,o),
(397.949,356.445,o),
(407.715,375.488,qs),
(424.805,409.18,ls),
(426.758,412.109,o),
(430.664,413.818,o),
(434.57,415.527,o),
(437.988,414.551,qs),
(446.777,412.598,o),
(461.182,410.889,o),
(475.586,409.18,o),
(492.676,407.227,q),
(492.188,407.227,l),
(503.418,406.25,o),
(515.625,404.785,o),
(527.832,403.32,o),
(539.551,401.367,qs),
(552.734,399.414,o),
(566.406,396.973,o),
(580.078,394.531,o),
(592.529,391.113,o),
(604.98,387.695,o),
(615.479,383.301,o),
(625.977,378.906,o),
(632.812,373.535,qs),
(645.508,363.77,o),
(645.508,345.215,qs),
(645.508,341.309,o),
(645.264,336.914,o),
(645.02,332.52,o),
(643.555,328.125,q),
(643.555,329.102,l),
(641.113,316.406,o),
(635.986,303.223,o),
(630.859,290.039,o),
(624.023,275.879,q),
(615.723,260.254,o),
(606.689,244.141,o),
(597.656,228.027,o),
(589.355,215.332,qs),
(581.055,202.637,o),
(573.486,192.139,o),
(565.918,181.641,o),
(562.012,176.758,qs),
(540.039,148.926,o),
(512.695,124.756,o),
(485.352,100.586,o),
(455.078,83.496,q),
(455.566,83.496,l),
(413.086,58.594,o),
(361.572,42.725,o),
(310.059,26.855,o),
(244.629,15.625,q),
(245.117,15.625,l)
);
}
);
width = 438;
}
);
},
{
glyphname = "hah-ar.medi.hah";
layers = (
{
anchors = (
{
name = bottom;
pos = (444,101);
},
{
name = bottom.mark;
pos = (435,79);
},
{
name = entry;
pos = (208,389);
},
{
name = exit;
},
{
name = top;
pos = (189,716);
},
{
name = top.mark;
pos = (264,743);
}
);
layerId = "1467EB51-6BD4-4CFC-AEAA-3E4EB1A95CFA";
shapes = (
{
closed = 1;
nodes = (
(254,281,o),
(306,305,o),
(380,343,c),
(386,347,o),
(390,351,o),
(391,353,c),
(388,361,o),
(377,367,o),
(358,372,cs),
(337,377,o),
(310,379,o),
(280,380,cs),
(250,381,o),
(228,383,o),
(215,386,cs),
(209,387,o),
(209,394,o),
(214,405,cs),
(230,445,o),
(250,479,o),
(268,517,c),
(269,517,l),
(292,511,o),
(326,507,o),
(371,503,cs),
(416,499,o),
(448,491,o),
(466,477,cs),
(478,468,o),
(479,454,o),
(472,436,cs),
(450,382,o),
(428,348,o),
(399,302,c),
(366,252,o),
(329,213,o),
(286,186,c),
(238,154,o),
(176,137,o),
(124,109,cs),
(77,84,o),
(38,51,o),
(12,2,c),
(9,-1,o),
(0,-1,o),
(0,5,c),
(14,70,o),
(28,119,o),
(44,152,cs),
(56,178,o),
(71,199,o),
(88,215,cs),
(113,238,o),
(142,253,o),
(174,261,cs)
);
}
);
width = 268;
},
{
anchors = (
{
name = bottom;
pos = (444,101);
},
{
name = bottom.mark;
pos = (435,79);
},
{
name = entry;
pos = (211,389);
},
{
name = exit;
},
{
name = top;
pos = (189,716);
},
{
name = top.mark;
pos = (264,743);
}
);
layerId = "EF321139-F770-433D-B2B6-C3EFA1B16465";
shapes = (
{
closed = 1;
nodes = (
(242,295,o),
(303,321,o),
(365,354,c),
(365,354,l),
(360,356,o),
(353,357,o),
(347,359,cs),
(327,364,o),
(302,367,o),
(274,368,cs),
(245,369,o),
(224,371,o),
(210,374,c),
(210,373,l),
(195,376,o),
(192,387,o),
(200,407,cs),
(216,445,o),
(234,481,o),
(253,517,cs),
(255,520,o),
(261,525,o),
(267,523,cs),
(295,516,o),
(327,513,o),
(363,510,cs),
(409,506,o),
(441,497,o),
(461,482,c),
(471,474,o),
(476,463,o),
(476,451,cs),
(476,443,o),
(474,436,o),
(471,428,cs),
(459,399,o),
(447,374,o),
(432,350,cs),
(425,338,o),
(417,326,o),
(410,314,cs),
(400,297,l),
(353,226,o),
(292,173,o),
(207,142,cs),
(130,114,o),
(62,76,o),
(25,7,c),
(15,-3,o),
(-8,1,o),
(-8,17,c),
(4,73,o),
(17,123,o),
(37,164,c),
(36,164,l),
(63,220,o),
(107,259,o),
(169,275,cs)
);
}
);
width = 268;
},
{
associatedMasterId = "1467EB51-6BD4-4CFC-AEAA-3E4EB1A95CFA";
layerId = "BDB78539-8053-4396-AE7E-D490F22A8A2A";
name = Back;
shapes = (
{
closed = 1;
nodes = (
(316.895,310.547,o),
(379.883,343.262,q),
(388.672,349.121,o),
(390.625,352.539,q),
(386.719,364.746,o),
(357.91,371.582,qs),
(325.684,378.906,o),
(280.273,380.371,o),
(234.863,381.836,o),
(215.332,386.23,qs),
(207.031,387.695,o),
(214.355,404.785,qs),
(226.074,433.594,o),
(240.234,460.449,o),
(254.395,487.305,o),
(268.066,516.602,q),
(269.043,517.09,l),
(303.223,508.789,o),
(370.85,503.174,o),
(438.477,497.559,o),
(465.82,476.562,qs),
(483.398,462.891,o),
(472.168,435.791,o),
(460.938,408.691,o),
(454.102,394.531,qs),
(441.895,369.629,o),
(427.979,347.412,o),
(414.062,325.195,o),
(399.414,301.758,q),
(349.609,227.051,o),
(285.645,186.035,q),
(248.535,161.621,o),
(205.322,145.508,o),
(162.109,129.395,o),
(124.023,108.887,qs),
(90.332,90.82,o),
(61.279,65.674,o),
(32.227,40.527,o),
(11.719,2.441,q),
(9.277,0,o),
(4.639,0.488,o),
(0,0.977,o),
(0,5.371,q),
(20.508,102.539,o),
(44.434,152.344,qs),
(62.988,190.918,o),
(88.379,214.844,q),
(125.977,249.023,o),
(174.316,261.23,o),
(222.656,273.438,o),
(268.066,291.504,qs)
);
}
);
width = 268;
},
{
associatedMasterId = "EF321139-F770-433D-B2B6-C3EFA1B16465";
layerId = "9A8CA851-5945-401F-92DE-7A3FCAFCF8DE";
name = Back;
shapes = (
{
closed = 1;
nodes = (
(280.762,312.5,o),
(307.861,325.195,o),
(334.961,337.891,o),
(364.746,353.516,q),
(364.746,354.004,l),
(361.816,355.469,o),
(357.178,356.689,o),
(352.539,357.91,o),
(347.168,359.375,qs),
(316.895,366.211,o),
(274.414,367.676,qs),
(231.445,369.141,o),
(209.961,373.535,q),
(209.961,373.047,l),
(187.5,377.441,o),
(200.195,407.715,q),
(200.195,407.227,l),
(207.031,423.34,o),
(214.844,439.941,o),
(222.656,456.543,o),
(230.957,472.168,qs),
(236.328,482.422,o),
(241.943,493.896,o),
(247.559,505.371,o),
(253.418,516.602,qs),
(255.371,520.02,o),
(259.277,521.973,o),
(263.184,523.926,o),
(266.602,522.949,qs),
(282.715,519.043,o),
(306.641,515.625,o),
(330.566,512.207,o),
(363.281,509.766,qs),
(432.129,504.395,o),
(461.426,481.934,q),
(476.074,469.238,o),
(476.074,451.172,qs),
(476.074,439.453,o),
(471.191,427.734,q),
(471.191,428.223,l),
(465.82,415.527,o),
(461.182,405.029,o),
(456.543,394.531,o),
(453.125,387.695,qs),
(443.359,367.188,o),
(432.373,349.609,o),
(421.387,332.031,o),
(410.156,313.965,qs),
(399.902,296.875,l),
(375,259.766,o),
(346.436,230.957,o),
(317.871,202.148,o),
(286.621,181.641,qs),
(269.043,170.41,o),
(248.535,159.912,o),
(228.027,149.414,o),
(206.543,141.602,qs),
(186.523,134.277,o),
(167.236,125.244,o),
(147.949,116.211,o),
(129.395,106.445,qs),
(98.145,89.844,o),
(71.289,66.406,o),
(44.434,42.969,o),
(24.902,6.836,q),
(20.996,2.93,o),
(15.625,1.709,o),
(10.254,0.488,o),
(4.883,1.709,o),
(-0.488,2.93,o),
(-4.15,6.836,o),
(-7.812,10.742,o),
(-7.812,17.09,q),
(2.441,66.406,o),
(13.428,103.027,o),
(24.414,139.648,o),
(36.621,164.062,q),
(36.133,164.062,l),
(54.688,202.637,o),
(81.543,228.027,qs),
(119.141,262.695,o),
(169.434,275.391,qs),
(192.871,281.738,o),
(214.844,288.818,o),
(236.816,295.898,o),
(258.789,304.199,qs)
);
}
);
width = 268;
}
);
},
{
glyphname = "hah-ar.medi.heh";
layers = (
{
anchors = (
{
name = bottom;
pos = (461,-13);
},
{
name = bottom.mark;
pos = (475,-35);
},
{
name = entry;
pos = (396,374);
},
{
name = exit;
},
{
name = top;
pos = (439,738);
},
{
name = top.mark;
pos = (387,694);
}
);
layerId = "1467EB51-6BD4-4CFC-AEAA-3E4EB1A95CFA";
shapes = (
{
closed = 1;
nodes = (
(106,-122,o),
(75,-186,o),
(44,-248,cs),
(25,-288,o),
(12,-299,o),
(6,-282,cs),
(0,-265,o),
(-1,-235,o),
(2,-194,cs),
(5,-156,l),
(5,-155,l),
(58,-90,l),
(58,-91,l),
(54,-121,l),
(62,-105,l),
(63,-103,l),
(125,22,o),
(202,167,o),
(320,232,cs),
(365,257,o),
(411,270,o),
(466,286,cs),
(519,301,o),
(516,302,o),
(565,328,cs),
(571,331,o),
(574,333,o),
(575,336,c),
(573,344,o),
(563,350,o),
(543,355,cs),
(522,360,o),
(495,363,o),
(465,364,cs),
(435,365,o),
(413,367,o),
(400,370,c),
(394,371,o),
(394,377,o),
(399,389,cs),
(415,428,o),
(435,463,o),
(453,501,c),
(454,501,l),
(476,495,o),
(511,491,o),
(556,487,cs),
(601,483,o),
(633,475,o),
(651,461,cs),
(663,452,o),
(664,438,o),
(657,420,cs),
(635,366,o),
(613,331,o),
(584,286,cs),
(548,230,o),
(503,190,o),
(444,162,c),
(284,88,o),
(184,17,o),
(146,-51,cs)
);
}
);
width = 453;
},
{
anchors = (
{
name = bottom;
pos = (461,-13);
},
{
name = bottom.mark;
pos = (475,-35);
},
{
name = entry;
pos = (396,374);
},
{
name = exit;
},
{
name = top;
pos = (439,738);
},
{
name = top.mark;
pos = (387,694);
}
);
layerId = "EF321139-F770-433D-B2B6-C3EFA1B16465";
shapes = (
{
closed = 1;
nodes = (
(61,-228,o),
(61,-230,o),
(59,-232,cs),
(44,-264,o),
(17,-308,o),
(0,-265,cs),
(-5,-251,o),
(-6,-232,o),
(-6,-212,cs),
(-6,-201,o),
(-5,-188,o),
(-4,-175,cs),
(-1,-133,l),
(53,-69,ls),
(56,-65,o),
(59,-63,o),
(64,-64,c),
(113,32,o),
(169,132,o),
(245,201,cs),
(266,220,o),
(288,235,o),
(310,247,c),
(352,271,o),
(393,282,o),
(443,296,c),
(453,299,l),
(499,312,o),
(510,318,o),
(545,338,c),
(540,340,o),
(534,343,o),
(527,344,cs),
(500,350,o),
(452,352,o),
(417,354,cs),
(407,355,o),
(398,355,o),
(391,357,c),
(357,360,o),
(392,418,o),
(398,430,cs),
(404,443,o),
(410,455,o),
(417,468,cs),
(434,501,ls),
(436,505,o),
(441,509,o),
(447,507,cs),
(475,500,o),
(506,498,o),
(543,495,cs),
(589,492,o),
(622,482,o),
(642,467,c),
(651,459,o),
(657,451,o),
(657,436,cs),
(657,429,o),
(654,421,o),
(651,413,cs),
(633,368,o),
(614,333,o),
(589,295,c),
(580,282,ls),
(544,227,o),
(498,185,o),
(439,158,cs),
(287,88,o),
(193,21,o),
(157,-43,c),
(121,-104,o),
(90,-164,o),
(61,-226,c),
(62,-225,l)
);
}
);
width = 453;
},
{
associatedMasterId = "1467EB51-6BD4-4CFC-AEAA-3E4EB1A95CFA";
layerId = "369A09E1-FE73-44FE-AD95-73728A74D1F3";
name = Back;
shapes = (
{
closed = 1;
nodes = (
(87.891,-152.344,o),
(46.875,-240.723,q),
(46.387,-241.699,ls),
(45.898,-243.652,o),
(43.945,-247.559,qs),
(15.137,-308.105,o),
(6.348,-282.227,o),
(-2.441,-256.348,o),
(1.953,-194.336,qs),
(4.883,-155.762,l),
(4.883,-155.273,l),
(58.105,-89.844,l),
(58.105,-91.309,l),
(53.711,-120.605,l),
(61.523,-104.98,l),
(62.988,-102.539,l),
(91.309,-45.41,o),
(123.291,12.207,o),
(155.273,69.824,o),
(195.801,121.582,qs),
(253.418,195.801,o),
(320.312,232.422,qs),
(354.004,250.977,o),
(389.893,262.451,o),
(425.781,273.926,o),
(466.309,285.645,qs),
(500,294.922,o),
(514.16,301.514,o),
(528.32,308.105,o),
(564.941,327.637,qs),
(573.242,331.543,o),
(575.195,336.426,q),
(572.266,348.633,o),
(542.969,355.469,qs),
(510.742,362.793,o),
(465.332,364.258,o),
(419.922,365.723,o),
(400.391,370.117,q),
(392.09,371.094,o),
(399.414,389.16,qs),
(411.133,417.48,o),
(425.049,444.58,o),
(438.965,471.68,o),
(453.125,500.977,q),
(454.102,500.977,l),
(487.793,492.676,o),
(555.908,487.305,o),
(624.023,481.934,o),
(650.879,460.938,qs),
(668.457,446.777,o),
(657.227,419.678,o),
(645.996,392.578,o),
(639.16,378.418,qs),
(626.953,353.516,o),
(613.037,331.299,o),
(599.121,309.082,o),
(584.473,286.133,qs),
(554.688,240.723,o),
(519.043,210.938,o),
(483.398,181.152,o),
(443.848,162.109,q),
(203.125,50.781,o),
(145.508,-50.781,o)
);
}
);
width = 453;
},
{
associatedMasterId = "EF321139-F770-433D-B2B6-C3EFA1B16465";
layerId = "7EB7B5E2-2B1E-4EF7-8B2E-5AADA3002FFE";
name = Back;
shapes = (
{
closed = 1;
nodes = (
(61.035,-227.051,o),
(60.547,-229.004,o),
(60.059,-230.957,o),
(58.594,-232.91,qs),
(59.082,-232.422,l),
(39.551,-273.438,o),
(24.414,-280.273,o),
(9.277,-287.109,o),
(0.488,-264.648,qs),
(-2.93,-255.859,o),
(-4.395,-242.676,o),
(-5.859,-229.492,o),
(-5.859,-212.402,qs),
(-5.859,-195.312,o),
(-4.395,-175.293,qs),
(-0.977,-133.301,l),
(52.734,-68.848,ls),
(57.617,-62.5,o),
(64.453,-64.453,q),
(90.332,-13.672,o),
(120.605,39.062,o),
(150.879,91.797,o),
(185.547,136.23,qs),
(214.355,172.852,o),
(245.361,200.928,o),
(276.367,229.004,o),
(309.57,246.582,q),
(341.309,264.648,o),
(374.023,275.391,o),
(406.738,286.133,o),
(443.359,296.387,q),
(442.871,296.387,l),
(452.637,299.316,l),
(485.352,308.594,o),
(497.07,313.965,qs),
(503.906,316.895,o),
(516.113,322.754,o),
(528.32,328.613,o),
(545.41,338.379,q),
(538.574,341.797,o),
(527.344,343.75,q),
(497.559,350.586,o),
(454.59,352.051,qs),
(432.617,353.027,o),
(417.236,354.004,o),
(401.855,354.98,o),
(391.113,357.422,q),
(379.883,358.398,o),
(376.953,367.432,o),
(374.023,376.465,o),
(380.859,392.09,qs),
(388.672,411.133,o),
(397.705,429.932,o),
(406.738,448.73,o),
(416.504,468.262,q),
(434.082,501.465,ls),
(436.035,504.883,o),
(439.697,506.592,o),
(443.359,508.301,o),
(447.266,507.324,qs),
(462.891,503.418,o),
(486.572,500.244,o),
(510.254,497.07,o),
(543.457,494.629,qs),
(612.305,489.746,o),
(641.602,466.797,q),
(649.414,459.961,o),
(653.076,452.881,o),
(656.738,445.801,o),
(656.738,436.035,qs),
(656.738,424.805,o),
(651.367,412.598,q),
(651.367,413.086,l),
(645.996,399.902,o),
(641.602,389.404,o),
(637.207,378.906,o),
(634.277,372.07,qs),
(624.023,351.562,o),
(612.793,333.008,o),
(601.562,314.453,o),
(588.867,294.922,qs),
(580.078,281.738,ls),
(550.781,237.305,o),
(514.893,206.787,o),
(479.004,176.27,o),
(438.965,157.715,qs),
(210.449,52.734,o),
(156.738,-42.969,q),
(127.441,-93.262,o),
(104.004,-138.916,o),
(80.566,-184.57,o),
(61.035,-226.074,q),
(62.012,-225.098,l)
);
}
);
width = 453;
}
);
},
{
glyphname = "hah-ar.medi.heh.ragaa";
layers = (
{
anchors = (
{
name = bottom;
pos = (372,-99);
},
{
name = bottom.mark;
pos = (385,-121);
},
{
name = entry;
pos = (306,288);
},
{
name = exit;
},
{
name = top;
pos = (350,653);
},
{
name = top.mark;
pos = (297,609);
}
);
layerId = "1467EB51-6BD4-4CFC-AEAA-3E4EB1A95CFA";
shapes = (
{
closed = 1;
nodes = (
(491,149,o),
(442,107,o),
(402,90,cs),
(354,70,o),
(294,60,o),
(250,42,cs),
(180,14,o),
(138,-33,o),
(106,-105,cs),
(95,-130,o),
(85,-155,o),
(73,-182,c),
(62,-208,o),
(52,-228,o),
(44,-248,cs),
(25,-288,o),
(12,-299,o),
(6,-282,cs),
(-2,-260,o),
(-3,-231,o),
(2,-194,cs),
(8,-155,l),
(59,-90,l),
(59,-91,l),
(55,-120,l),
(62,-105,l),
(63,-103,l),
(84,-62,o),
(104,-23,o),
(122,12,cs),
(156,77,o),
(213,133,o),
(283,161,cs),
(315,174,o),
(349,183,o),
(384,189,cs),
(425,196,o),
(460,207,o),
(489,222,c),
(490,222,l),
(492,223,o),
(494,225,o),
(496,226,c),
(454,250,o),
(368,278,o),
(312,288,cs),
(307,289,o),
(307,294,o),
(312,304,cs),
(334,358,o),
(337,366,o),
(358,407,c),
(421,396,o),
(539,361,o),
(584,333,cs),
(599,324,o),
(599,305,o),
(583,277,cs),
(553,225,o),
(552,221,o),
(520,184,cs)
);
}
);
width = 391;
},
{
anchors = (
{
name = bottom;
pos = (354,-82);
},
{
name = bottom.mark;
pos = (368,-104);
},
{
name = entry;
pos = (301,305);
},
{
name = exit;
},
{
name = top;
pos = (333,670);
},
{
name = top.mark;
pos = (280,626);
}
);
layerId = "EF321139-F770-433D-B2B6-C3EFA1B16465";
shapes = (
{
closed = 1;
nodes = (
(554,251,o),
(531,214,o),
(495,179,cs),
(452,138,o),
(406,108,o),
(340,92,cs),
(255,73,o),
(195,46,o),
(153,-15,cs),
(142,-31,o),
(131,-49,o),
(122,-70,c),
(107,-111,o),
(86,-156,o),
(67,-196,c),
(66,-200,l),
(65,-202,l),
(64,-202,l),
(28,-275,o),
(5,-274,o),
(-3,-218,cs),
(-4,-210,o),
(-4,-200,o),
(-4,-190,cs),
(-4,-177,o),
(-3,-159,o),
(-2,-148,cs),
(1,-107,l),
(55,-42,l),
(59,-38,o),
(62,-36,o),
(67,-37,c),
(114,54,ls),
(164,151,o),
(251,211,o),
(376,232,cs),
(406,237,o),
(433,244,o),
(458,255,c),
(440,263,o),
(417,271,o),
(397,278,c),
(368,287,o),
(337,296,o),
(306,302,c),
(283,305,o),
(280,318,o),
(293,337,c),
(346,445,ls),
(347,447,o),
(355,451,o),
(359,450,cs),
(395,444,o),
(452,424,o),
(484,412,cs),
(527,396,o),
(558,381,o),
(578,368,cs),
(587,362,o),
(594,353,o),
(594,338,cs),
(594,328,o),
(589,314,o),
(580,297,cs)
);
}
);
width = 391;
},
{
associatedMasterId = "1467EB51-6BD4-4CFC-AEAA-3E4EB1A95CFA";
layerId = "E1CF8546-0F64-40C6-B2E2-3F9801F3AEED";
name = Back;
shapes = (
{
closed = 1;
nodes = (
(497.07,155.762,o),
(469.727,133.301,qs),
(432.617,102.539,o),
(401.611,89.844,o),
(370.605,77.148,o),
(342.285,70.312,qs),
(290.039,58.105,o),
(250.244,42.236,o),
(210.449,26.367,o),
(179.688,-0.488,qs),
(135.742,-38.574,o),
(105.957,-105.469,qs),
(98.633,-122.07,o),
(90.82,-141.113,o),
(83.008,-160.156,o),
(73.242,-182.129,q),
(59.082,-216.309,o),
(47.852,-240.234,q),
(47.363,-241.211,ls),
(45.41,-245.117,o),
(44.434,-247.559,qs),
(15.625,-308.105,o),
(6.348,-282.227,qs),
(-5.371,-249.512,o),
(2.441,-193.848,qs),
(7.812,-155.273,l),
(59.082,-89.844,l),
(58.594,-91.309,l),
(54.688,-120.117,l),
(62.5,-104.98,l),
(63.477,-102.539,l),
(94.238,-41.016,o),
(121.826,12.207,o),
(149.414,65.43,o),
(194.824,106.445,qs),
(234.375,142.09,o),
(282.715,161.377,o),
(331.055,180.664,o),
(383.789,189.453,qs),
(445.312,199.707,o),
(489.258,222.168,q),
(489.746,222.168,l),
(493.164,223.633,o),
(496.094,225.586,q),
(462.402,245.117,o),
(408.447,262.695,o),
(354.492,280.273,o),
(311.523,288.086,qs),
(304.688,289.551,o),
(311.523,304.199,qs),
(329.102,346.68,o),
(332.031,353.516,qs),
(345.703,382.812,o),
(358.398,407.227,q),
(408.691,398.438,o),
(478.271,376.709,o),
(547.852,354.98,o),
(584.473,332.52,q),
(606.445,318.359,o),
(582.764,277.1,o),
(559.082,235.84,o),
(551.27,224.609,qs),
(538.574,205.078,o),
(520.02,183.594,q)
);
}
);
width = 391;
},
{
associatedMasterId = "EF321139-F770-433D-B2B6-C3EFA1B16465";
layerId = "53F6A5B2-D3C1-4CE6-A7F3-FADDA14DA125";
name = Back;
shapes = (
{
closed = 1;
nodes = (
(542.969,235.84,o),
(535.156,225.586,o),
(527.344,215.332,o),
(519.043,205.566,qs),
(507.812,191.406,o),
(494.873,178.955,o),
(481.934,166.504,o),
(468.75,155.273,qs),
(450.195,139.648,o),
(433.105,129.395,o),
(416.016,119.141,o),
(400.146,112.061,o),
(384.277,104.98,o),
(369.385,100.342,o),
(354.492,95.703,o),
(340.332,92.285,qs),
(291.016,81.055,o),
(254.395,66.162,o),
(217.773,51.27,o),
(189.453,26.855,qs),
(169.434,9.766,o),
(152.588,-14.648,o),
(135.742,-39.062,o),
(121.582,-69.824,q),
(119.141,-76.66,o),
(115.479,-84.473,o),
(111.816,-92.285,o),
(108.887,-99.609,qs),
(101.074,-119.629,o),
(90.332,-144.043,q),
(90.332,-143.555,l),
(83.984,-158.691,o),
(78.369,-171.631,o),
(72.754,-184.57,o),
(67.383,-195.801,q),
(65.918,-199.707,ls),
(64.941,-201.66,l),
(64.453,-202.148,l),
(20.02,-293.457,o),
(1.953,-239.258,qs),
(-0.977,-230.469,o),
(-2.686,-218.018,o),
(-4.395,-205.566,o),
(-4.395,-189.941,qs),
(-4.395,-180.664,o),
(-3.906,-169.922,qs),
(-3.418,-157.715,o),
(-2.441,-148.438,qs),
(1.465,-107.422,l),
(54.688,-41.504,l),
(60.059,-36.133,o),
(66.895,-37.109,q),
(113.77,54.199,ls),
(127.93,81.543,o),
(145.508,104.492,qs),
(164.062,127.93,o),
(187.012,148.926,qs),
(227.051,184.57,o),
(275.146,203.857,o),
(323.242,223.145,o),
(375.977,231.934,qs),
(398.926,235.84,o),
(419.189,241.455,o),
(439.453,247.07,o),
(457.52,254.883,q),
(444.824,260.742,o),
(429.443,266.357,o),
(414.062,271.973,o),
(397.461,277.832,q),
(373.047,285.645,o),
(349.609,291.748,o),
(326.172,297.852,o),
(305.664,301.758,q),
(290.039,303.711,o),
(286.621,312.744,o),
(283.203,321.777,o),
(293.457,336.914,q),
(346.191,444.824,ls),
(347.656,446.777,o),
(352.539,448.73,qs),
(356.445,450.195,o),
(358.887,449.707,qs),
(383.301,445.801,o),
(419.434,434.082,o),
(455.566,422.363,o),
(484.863,411.621,q),
(484.375,411.621,l),
(548.34,388.184,o),
(577.637,368.164,qs),
(585.449,362.793,o),
(589.844,355.225,o),
(594.238,347.656,o),
(594.238,337.891,qs),
(594.238,322.754,o),
(580.078,297.363,qs),
(568.848,277.344,o),
(561.035,264.16,o),
(553.223,250.977,o),
(549.316,245.605,qs)
);
}
);
width = 391;
}
);
},
{
glyphname = "hah-ar.medi.meem";
layers = (
{
anchors = (
{
name = bottom;
pos = (378,-4);
},
{
name = bottom.mark;
pos = (435,4);
},
{
name = entry;
pos = (249,389);
},
{
name = exit;
pos = (-10,-24);
},
{
name = top;
pos = (202,738);
},
{
name = top.mark;
pos = (229,725);
}
);
layerId = "1467EB51-6BD4-4CFC-AEAA-3E4EB1A95CFA";
shapes = (
{
closed = 1;
nodes = (
(15,-1,o),
(12,0,o),
(11,1,c),
(0,2,l),
(10,24,o),
(15,35,o),
(21,60,cs),
(37,120,o),
(56,164,o),
(77,192,cs),
(99,221,o),
(134,244,o),
(182,261,cs),
(226,277,o),
(269,288,o),
(319,303,cs),
(375,319,o),
(367,317,o),
(417,344,cs),
(423,347,o),
(426,350,o),
(428,353,c),
(417,389,o),
(291,378,o),
(253,387,cs),
(247,388,o),
(247,394,o),
(252,405,cs),
(269,445,o),
(287,478,o),
(306,517,c),
(307,518,l),
(330,512,o),
(364,508,o),
(409,504,cs),
(454,500,o),
(486,492,o),
(504,478,c),
(516,469,o),
(518,454,o),
(510,436,cs),
(487,382,o),
(466,348,o),
(437,303,cs),
(389,230,o),
(324,186,o),
(239,153,cs),
(190,134,o),
(127,106,o),
(90,82,c),
(65,64,o),
(45,41,o),
(29,16,cs),
(25,10,o),
(23,5,o),
(21,0,c),
(18,0,l)
);
}
);
width = 306;
},
{
anchors = (
{
name = bottom;
pos = (378,-4);
},
{
name = bottom.mark;
pos = (435,4);
},
{
name = entry;
pos = (249,389);
},
{
name = exit;
pos = (-10,-24);
},
{
name = top;
pos = (202,738);
},
{
name = top.mark;
pos = (229,725);
}
);
layerId = "EF321139-F770-433D-B2B6-C3EFA1B16465";
shapes = (
{
closed = 1;
nodes = (
(17,-1,o),
(15,0,o),
(11,1,c),
(1,2,o),
(-12,5,o),
(-6,19,cs),
(3,39,o),
(8,50,o),
(14,73,cs),
(30,132,o),
(48,175,o),
(69,204,cs),
(98,242,o),
(150,270,o),
(210,287,cs),
(251,299,o),
(298,312,o),
(338,325,cs),
(365,333,o),
(367,336,o),
(401,354,c),
(389,361,o),
(369,363,o),
(352,365,cs),
(321,368,o),
(276,367,o),
(248,374,cs),
(232,377,o),
(231,391,o),
(237,408,c),
(248,433,o),
(260,457,o),
(272,481,c),
(271,481,l),
(277,493,o),
(284,506,o),
(290,518,cs),
(292,521,o),
(297,525,o),
(303,523,cs),
(331,516,o),
(363,513,o),
(400,510,cs),
(445,507,o),
(494,499,o),
(510,469,cs),
(513,464,o),
(514,458,o),
(514,452,cs),
(514,435,o),
(503,418,o),
(498,406,cs),
(483,370,o),
(465,342,o),
(445,311,c),
(437,298,l),
(404,250,o),
(361,209,o),
(309,181,cs),
(241,146,o),
(160,122,o),
(98,81,c),
(75,64,o),
(56,44,o),
(42,21,c),
(42,21,l),
(35,7,ls),
(33,3,o),
(28,-1,o),
(22,0,c),
(22,0,l)
);
}
);
width = 306;
},
{
associatedMasterId = "1467EB51-6BD4-4CFC-AEAA-3E4EB1A95CFA";
layerId = "5C65CE65-0E5F-4C24-8F22-352234D6596B";
name = Back;
shapes = (
{
closed = 1;
nodes = (
(13.184,-0.488,o),
(11.23,0.977,q),
(0,2.441,l),
(7.324,18.555,o),
(12.207,30.518,o),
(17.09,42.48,o),
(21.484,60.059,qs),
(44.922,149.902,o),
(77.148,191.895,qs),
(110.352,235.84,o),
(181.641,261.23,qs),
(208.984,270.996,o),
(242.92,280.518,o),
(276.855,290.039,o),
(319.336,303.223,q),
(355.957,313.965,o),
(368.896,319.58,o),
(381.836,325.195,o),
(417.48,344.238,qs),
(425.781,348.145,o),
(428.223,353.027,q),
(424.316,365.234,o),
(395.996,372.07,qs),
(363.281,379.395,o),
(317.871,380.859,o),
(272.461,382.324,o),
(253.418,386.719,q),
(244.629,388.184,o),
(251.953,405.273,qs),
(264.16,434.082,o),
(278.076,460.938,o),
(291.992,487.793,o),
(306.152,517.09,q),
(306.641,517.578,l),
(340.82,509.277,o),
(408.691,503.662,o),
(476.562,498.047,o),
(503.906,477.539,q),
(521.484,463.379,o),
(510.01,436.279,o),
(498.535,409.18,o),
(491.699,395.02,qs),
(479.492,370.117,o),
(465.576,347.9,o),
(451.66,325.684,o),
(437.012,302.734,qs),
(387.695,227.539,o),
(309.57,185.547,qs),
(275.879,167.48,o),
(239.258,153.076,o),
(202.637,138.672,o),
(167.48,123.047,qs),
(119.629,101.074,o),
(89.844,81.543,q),
(52.734,54.199,o),
(28.809,16.113,qs),
(23.438,7.324,o),
(20.508,0,q),
(17.578,0.488,l)
);
}
);
width = 306;
},
{
associatedMasterId = "EF321139-F770-433D-B2B6-C3EFA1B16465";
layerId = "E87F2074-1AFA-4C09-B185-E00BDFD70B2D";
name = Back;
shapes = (
{
closed = 1;
nodes = (
(18.555,0,o),
(16.113,0.244,o),
(13.672,0.488,o),
(11.23,1.465,q),
(2.441,2.441,ls),
(-3.418,3.418,o),
(-6.104,8.301,o),
(-8.789,13.184,o),
(-6.348,19.043,qs),
(0.488,34.18,o),
(5.127,45.654,o),
(9.766,57.129,o),
(13.672,72.754,qs),
(37.109,161.133,o),
(69.336,204.102,qs),
(104.004,250,o),
(176.27,275.391,qs),
(191.895,281.25,o),
(210.205,286.621,o),
(228.516,291.992,o),
(249.512,298.34,qs),
(263.672,302.246,o),
(278.564,306.641,o),
(293.457,311.035,o),
(309.57,315.918,qs),
(326.66,321.289,o),
(338.379,324.951,o),
(350.098,328.613,o),
(355.957,331.055,qs),
(368.164,336.914,o),
(401.367,354.492,q),
(398.926,355.957,o),
(394.531,357.178,o),
(390.137,358.398,o),
(384.277,359.863,q),
(384.766,359.863,l),
(369.629,363.281,o),
(351.562,365.234,o),
(333.496,367.188,o),
(311.035,368.164,qs),
(289.062,369.141,o),
(273.438,370.117,o),
(257.812,371.094,o),
(247.559,373.535,q),
(236.328,375.488,o),
(233.887,384.766,o),
(231.445,394.043,o),
(236.816,408.203,q),
(245.117,426.758,o),
(254.15,445.068,o),
(263.184,463.379,o),
(271.973,481.445,q),
(271.484,481.445,l),
(275.391,490.234,o),
(280.273,499.023,o),
(285.156,507.812,o),
(290.039,517.578,qs),
(291.992,520.996,o),
(295.898,522.705,o),
(299.805,524.414,o),
(303.223,523.438,qs),
(319.336,519.531,o),
(343.262,516.113,o),
(367.188,512.695,o),
(400.391,510.254,qs),
(435.059,507.812,o),
(459.473,500.732,o),
(483.887,493.652,o),
(498.535,482.91,q),
(505.371,477.051,o),
(509.521,469.238,o),
(513.672,461.426,o),
(513.672,452.148,qs),
(513.672,446.777,o),
(511.963,441.162,o),
(510.254,435.547,o),
(507.812,428.711,qs),
(502.441,416.016,o),
(498.047,405.518,o),
(493.652,395.02,o),
(490.234,388.184,qs),
(480.469,367.676,o),
(468.994,349.121,o),
(457.52,330.566,o),
(444.824,311.035,qs),
(436.523,297.852,l),
(411.621,260.742,o),
(379.639,230.957,o),
(347.656,201.172,o),
(309.082,180.664,qs),
(287.109,169.434,o),
(265.137,159.912,o),
(243.164,150.391,o),
(220.703,141.113,qs),
(208.008,135.742,o),
(195.801,130.615,o),
(183.594,125.488,o),
(170.898,119.629,qs),
(148.926,109.375,o),
(130.371,99.609,o),
(111.816,89.844,o),
(97.656,80.566,q),
(98.145,81.055,l),
(63.477,55.176,o),
(41.992,20.996,q),
(42.48,20.996,l),
(35.156,7.324,ls),
(33.691,3.906,o),
(30.029,1.465,o),
(26.367,-0.977,o),
(22.461,0,q),
(22.461,0.488,l)
);
}
);
width = 306;
}
);
},
{
glyphname = "hah-ar.medi.ragaa";
layers = (
{
anchors = (
{
name = bottom;
pos = (462,167);
},
{
name = bottom.mark;
pos = (301,-86);
},
{
name = entry;
pos = (149,340);
},
{
name = exit;
},
{
name = top;
pos = (167,693);
},
{
name = top.mark;
pos = (344,682);
}
);
layerId = "1467EB51-6BD4-4CFC-AEAA-3E4EB1A95CFA";
shapes = (
{
closed = 1;
nodes = (
(324,277,o),
(328,280,o),
(329,283,c),
(328,289,o),
(323,293,o),
(315,297,c),
(264,315,o),
(210,324,o),
(154,337,cs),
(148,338,o),
(148,344,o),
(153,356,cs),
(170,395,o),
(189,430,o),
(207,468,c),
(208,468,l),
(231,462,o),
(264,454,o),
(309,444,cs),
(354,434,o),
(386,422,o),
(404,408,cs),
(410,404,o),
(413,397,o),
(414,390,cs),
(415,361,o),
(402,345,o),
(393,326,cs),
(377,292,o),
(357,264,o),
(337,233,cs),
(315,199,o),
(296,173,o),
(280,155,cs),
(249,122,o),
(217,99,o),
(175,84,cs),
(155,77,o),
(132,63,o),
(104,42,c),
(88,28,o),
(59,13,o),
(42,0,c),
(0,30,l),
(2,35,o),
(3,39,o),
(4,42,cs),
(7,48,o),
(21,82,o),
(24,88,cs),
(44,130,o),
(85,165,o),
(146,194,c),
(235,235,o),
(227,226,o),
(318,274,cs)
);
}
);
width = 198;
},
{
anchors = (
{
name = bottom;
pos = (462,167);
},
{
name = bottom.mark;
pos = (301,-86);
},
{
name = entry;
pos = (149,340);
},
{
name = exit;
},
{
name = top;
pos = (167,693);
},
{
name = top.mark;
pos = (344,682);
}
);
layerId = "EF321139-F770-433D-B2B6-C3EFA1B16465";
shapes = (
{
closed = 1;
nodes = (
(182,231,o),
(211,240,o),
(250,260,cs),
(264,267,o),
(282,277,o),
(303,288,c),
(255,304,o),
(201,313,o),
(149,326,c),
(150,325,l),
(117,331,o),
(148,382,o),
(156,398,cs),
(168,422,o),
(181,446,o),
(192,470,cs),
(194,474,o),
(201,478,o),
(207,476,cs),
(258,464,o),
(318,453,o),
(363,436,cs),
(379,430,o),
(392,423,o),
(401,416,c),
(408,410,o),
(414,401,o),
(415,389,cs),
(416,362,o),
(407,344,o),
(396,327,cs),
(395,326,o),
(395,324,o),
(394,321,c),
(379,289,o),
(363,266,o),
(345,238,c),
(345,238,l),
(325,203,o),
(299,171,o),
(282,153,c),
(282,154,l),
(266,137,o),
(251,123,o),
(236,112,c),
(204,91,o),
(179,86,o),
(147,67,cs),
(136,60,o),
(124,51,o),
(111,42,c),
(103,34,o),
(91,28,o),
(81,22,c),
(82,22,l),
(61,9,l),
(62,10,l),
(53,3,ls),
(49,0,o),
(42,-1,o),
(38,2,cs),
(-3,31,ls),
(-6,33,o),
(-10,39,o),
(-8,45,cs),
(-4,58,l),
(2,73,o),
(9,88,o),
(15,103,c),
(36,146,o),
(77,181,o),
(139,211,c)
);
}
);
width = 198;
},
{
associatedMasterId = "1467EB51-6BD4-4CFC-AEAA-3E4EB1A95CFA";
layerId = "E5C50E48-4B45-4021-997B-0E3A93445249";
name = Back;
shapes = (
{
closed = 1;
nodes = (
(326.66,278.32,o),
(328.613,283.203,q),
(326.66,291.504,o),
(314.941,297.363,q),
(276.855,311.035,o),
(236.328,319.336,o),
(195.801,327.637,o),
(154.297,337.402,q),
(145.508,338.867,o),
(152.832,356.445,qs),
(165.039,384.766,o),
(178.955,411.865,o),
(192.871,438.965,o),
(207.031,468.262,q),
(207.52,468.262,l),
(241.699,459.961,o),
(309.326,444.336,o),
(376.953,428.711,o),
(404.297,407.715,qs),
(412.598,401.367,o),
(413.574,390.137,q),
(414.062,368.652,o),
(406.738,354.248,o),
(399.414,339.844,o),
(392.578,325.684,qs),
(380.371,300.293,o),
(366.455,278.076,o),
(352.539,255.859,o),
(337.402,232.91,qs),
(304.199,181.641,o),
(279.541,155.273,o),
(254.883,128.906,o),
(233.887,114.258,qs),
(204.59,94.238,o),
(175.293,83.74,o),
(145.996,73.242,o),
(103.516,41.504,q),
(95.215,34.18,o),
(80.322,25.391,o),
(65.43,16.602,o),
(51.758,7.324,qs),
(49.316,5.371,o),
(46.875,3.418,o),
(44.434,1.465,o),
(42.48,0,q),
(42.48,0,l),
(0,29.785,l),
(0,29.785,l),
(2.93,37.598,o),
(4.395,42.48,q),
(6.836,48.34,o),
(13.916,64.697,o),
(20.996,81.055,o),
(23.926,87.891,qs),
(54.199,150.391,o),
(145.996,193.848,q),
(203.125,220.215,o),
(227.783,229.736,o),
(252.441,239.258,o),
(318.359,274.414,qs)
);
}
);
width = 198;
},
{
associatedMasterId = "EF321139-F770-433D-B2B6-C3EFA1B16465";
layerId = "6767409F-C403-4443-82E9-E84868C6F739";
name = Back;
shapes = (
{
closed = 1;
nodes = (
(229.004,250,o),
(250,260.498,o),
(270.996,270.996,o),
(302.734,287.598,q),
(277.832,295.898,o),
(250.732,302.49,o),
(223.633,309.082,o),
(196.777,315.43,qs),
(185.547,317.871,o),
(173.34,320.312,o),
(161.133,322.754,o),
(149.414,325.684,q),
(150.391,325.195,l),
(125.977,329.59,o),
(139.16,360.84,qs),
(146.973,379.395,o),
(156.006,397.705,o),
(165.039,416.016,o),
(174.805,434.57,qs),
(178.711,442.871,o),
(183.594,452.148,o),
(188.477,461.426,o),
(192.383,469.727,qs),
(194.336,473.145,o),
(198.486,475.098,o),
(202.637,477.051,o),
(206.543,476.074,qs),
(231.934,470.215,l),
(304.688,453.125,ls),
(337.891,445.312,o),
(362.549,435.791,o),
(387.207,426.27,o),
(401.367,415.527,q),
(407.227,410.156,o),
(410.889,403.809,o),
(414.551,397.461,o),
(415.039,389.16,qs),
(415.527,370.117,o),
(410.156,356.445,o),
(404.785,342.773,o),
(397.949,330.566,qs),
(396.973,328.613,o),
(395.752,326.66,o),
(394.531,324.707,o),
(393.555,320.801,q),
(381.836,296.387,o),
(369.629,276.855,o),
(357.422,257.324,o),
(344.727,237.793,q),
(344.727,238.281,l),
(339.844,229.98,l),
(306.641,179.199,o),
(282.227,153.32,q),
(282.227,153.809,l),
(258.789,128.418,o),
(236.328,112.305,q),
(206.543,92.285,o),
(176.758,81.543,qs),
(164.551,76.66,o),
(147.461,66.65,o),
(130.371,56.641,o),
(110.84,42.48,q),
(105.469,37.109,o),
(97.412,32.227,o),
(89.355,27.344,o),
(81.055,21.973,q),
(81.543,21.973,l),
(60.547,8.789,l),
(61.523,9.766,l),
(52.734,2.93,ls),
(49.805,0.488,o),
(45.41,0.244,o),
(41.016,0,o),
(37.598,2.441,qs),
(-3.418,31.25,ls),
(-6.348,33.203,o),
(-7.812,37.354,o),
(-9.277,41.504,o),
(-7.812,45.41,qs),
(-3.906,58.105,l),
(5.371,79.59,l),
(15.137,102.539,l),
(45.898,166.504,o),
(138.672,210.938,q),
(166.504,223.633,o),
(186.523,232.422,o),
(206.543,241.211,o),
(218.262,245.605,qs)
);
}
);
width = 198;
}
);
},
